G04 EAGLE Gerber X2 export*
%TF.Part,Single*%
%TF.FileFunction,Copper,L2,Bot,Mixed*%
%TF.FilePolarity,Positive*%
%TF.GenerationSoftware,Autodesk,EAGLE,9.0.1*%
%TF.CreationDate,2018-07-03T17:36:12Z*%
G75*
%MOMM*%
%FSLAX34Y34*%
%LPD*%
%AMOC8*
5,1,8,0,0,1.08239X$1,22.5*%
G01*
%ADD10P,1.319650X8X112.500000*%
%ADD11C,1.676400*%
%ADD12C,1.350000*%
%ADD13R,10.000000X5.000000*%
%ADD14C,2.540000*%
%ADD15C,1.524000*%
%ADD16R,1.524000X1.524000*%
%ADD17C,1.879600*%
%ADD18R,1.879600X1.879600*%
%ADD19P,2.034460X8X292.500000*%
%ADD20C,4.016000*%
%ADD21C,0.604000*%
%ADD22C,0.812800*%
%ADD23C,0.254000*%

G36*
X1144516Y3483D02*
X1144516Y3483D01*
X1144534Y3481D01*
X1144716Y3502D01*
X1144899Y3521D01*
X1144916Y3526D01*
X1144933Y3528D01*
X1145108Y3585D01*
X1145284Y3639D01*
X1145299Y3647D01*
X1145316Y3653D01*
X1145476Y3743D01*
X1145638Y3831D01*
X1145651Y3842D01*
X1145667Y3851D01*
X1145806Y3971D01*
X1145947Y4088D01*
X1145958Y4102D01*
X1145972Y4114D01*
X1146084Y4259D01*
X1146199Y4402D01*
X1146207Y4418D01*
X1146218Y4432D01*
X1146300Y4597D01*
X1146385Y4759D01*
X1146390Y4776D01*
X1146398Y4792D01*
X1146445Y4971D01*
X1146496Y5146D01*
X1146498Y5164D01*
X1146502Y5181D01*
X1146529Y5512D01*
X1146529Y803828D01*
X1146527Y803846D01*
X1146529Y803864D01*
X1146508Y804046D01*
X1146489Y804229D01*
X1146484Y804246D01*
X1146482Y804263D01*
X1146425Y804438D01*
X1146371Y804614D01*
X1146363Y804629D01*
X1146357Y804646D01*
X1146267Y804806D01*
X1146179Y804968D01*
X1146168Y804981D01*
X1146159Y804997D01*
X1146039Y805136D01*
X1145922Y805277D01*
X1145908Y805288D01*
X1145896Y805302D01*
X1145751Y805414D01*
X1145608Y805529D01*
X1145592Y805537D01*
X1145578Y805548D01*
X1145413Y805630D01*
X1145251Y805715D01*
X1145234Y805720D01*
X1145218Y805728D01*
X1145039Y805775D01*
X1144864Y805826D01*
X1144846Y805828D01*
X1144829Y805832D01*
X1144498Y805859D01*
X6182Y805859D01*
X6164Y805857D01*
X6146Y805859D01*
X5964Y805838D01*
X5781Y805819D01*
X5764Y805814D01*
X5747Y805812D01*
X5572Y805755D01*
X5396Y805701D01*
X5381Y805693D01*
X5364Y805687D01*
X5204Y805597D01*
X5042Y805509D01*
X5029Y805498D01*
X5013Y805489D01*
X4874Y805369D01*
X4733Y805252D01*
X4722Y805238D01*
X4708Y805226D01*
X4596Y805081D01*
X4481Y804938D01*
X4473Y804922D01*
X4462Y804908D01*
X4380Y804743D01*
X4295Y804581D01*
X4290Y804564D01*
X4282Y804548D01*
X4235Y804369D01*
X4184Y804194D01*
X4182Y804176D01*
X4178Y804159D01*
X4151Y803828D01*
X4151Y5512D01*
X4153Y5494D01*
X4151Y5476D01*
X4172Y5294D01*
X4191Y5111D01*
X4196Y5094D01*
X4198Y5077D01*
X4255Y4902D01*
X4309Y4726D01*
X4317Y4711D01*
X4323Y4694D01*
X4413Y4534D01*
X4501Y4372D01*
X4512Y4359D01*
X4521Y4343D01*
X4641Y4204D01*
X4758Y4063D01*
X4772Y4052D01*
X4784Y4038D01*
X4929Y3926D01*
X5072Y3811D01*
X5088Y3803D01*
X5102Y3792D01*
X5267Y3710D01*
X5429Y3625D01*
X5446Y3620D01*
X5462Y3612D01*
X5641Y3565D01*
X5816Y3514D01*
X5834Y3512D01*
X5851Y3508D01*
X6182Y3481D01*
X1144498Y3481D01*
X1144516Y3483D01*
G37*
%LPC*%
G36*
X76310Y206645D02*
X76310Y206645D01*
X71082Y208811D01*
X28281Y251612D01*
X26115Y256840D01*
X26115Y302500D01*
X28281Y307728D01*
X32568Y312015D01*
X35520Y314967D01*
X35537Y314988D01*
X35558Y315005D01*
X35665Y315143D01*
X35775Y315279D01*
X35788Y315302D01*
X35804Y315323D01*
X35882Y315480D01*
X35964Y315634D01*
X35972Y315660D01*
X35984Y315684D01*
X36029Y315853D01*
X36079Y316020D01*
X36081Y316047D01*
X36088Y316073D01*
X36115Y316403D01*
X36115Y613300D01*
X38281Y618528D01*
X92282Y672529D01*
X97510Y674695D01*
X114084Y674695D01*
X114102Y674697D01*
X114120Y674695D01*
X114302Y674716D01*
X114485Y674735D01*
X114502Y674740D01*
X114519Y674742D01*
X114694Y674799D01*
X114870Y674853D01*
X114885Y674861D01*
X114902Y674867D01*
X115062Y674957D01*
X115224Y675045D01*
X115237Y675056D01*
X115253Y675065D01*
X115392Y675185D01*
X115533Y675302D01*
X115544Y675316D01*
X115558Y675328D01*
X115670Y675473D01*
X115785Y675616D01*
X115793Y675632D01*
X115804Y675646D01*
X115886Y675811D01*
X115971Y675973D01*
X115976Y675990D01*
X115984Y676006D01*
X116031Y676185D01*
X116082Y676360D01*
X116084Y676378D01*
X116088Y676395D01*
X116115Y676726D01*
X116115Y741114D01*
X116113Y741132D01*
X116115Y741150D01*
X116094Y741332D01*
X116075Y741515D01*
X116070Y741532D01*
X116068Y741549D01*
X116011Y741724D01*
X115957Y741900D01*
X115949Y741915D01*
X115943Y741932D01*
X115853Y742092D01*
X115765Y742254D01*
X115754Y742267D01*
X115745Y742283D01*
X115625Y742422D01*
X115508Y742563D01*
X115494Y742574D01*
X115482Y742588D01*
X115337Y742700D01*
X115194Y742815D01*
X115178Y742823D01*
X115164Y742834D01*
X114999Y742916D01*
X114837Y743001D01*
X114820Y743006D01*
X114804Y743014D01*
X114625Y743061D01*
X114450Y743112D01*
X114432Y743114D01*
X114415Y743118D01*
X114084Y743145D01*
X79708Y743145D01*
X78815Y744038D01*
X78815Y795302D01*
X79708Y796195D01*
X180972Y796195D01*
X181865Y795302D01*
X181865Y744038D01*
X180972Y743145D01*
X146596Y743145D01*
X146578Y743143D01*
X146560Y743145D01*
X146378Y743124D01*
X146195Y743105D01*
X146178Y743100D01*
X146161Y743098D01*
X145986Y743041D01*
X145810Y742987D01*
X145795Y742979D01*
X145778Y742973D01*
X145618Y742883D01*
X145456Y742795D01*
X145443Y742784D01*
X145427Y742775D01*
X145288Y742655D01*
X145147Y742538D01*
X145136Y742524D01*
X145122Y742512D01*
X145010Y742367D01*
X144895Y742224D01*
X144887Y742208D01*
X144876Y742194D01*
X144794Y742029D01*
X144709Y741867D01*
X144704Y741850D01*
X144696Y741834D01*
X144649Y741655D01*
X144598Y741480D01*
X144596Y741462D01*
X144592Y741445D01*
X144565Y741114D01*
X144565Y727290D01*
X144567Y727272D01*
X144565Y727254D01*
X144586Y727072D01*
X144605Y726889D01*
X144610Y726872D01*
X144612Y726855D01*
X144669Y726680D01*
X144723Y726504D01*
X144731Y726489D01*
X144737Y726472D01*
X144827Y726312D01*
X144915Y726150D01*
X144926Y726137D01*
X144935Y726121D01*
X145056Y725981D01*
X145172Y725841D01*
X145186Y725830D01*
X145198Y725816D01*
X145343Y725704D01*
X145486Y725589D01*
X145502Y725581D01*
X145516Y725570D01*
X145681Y725488D01*
X145843Y725403D01*
X145860Y725398D01*
X145876Y725390D01*
X146055Y725343D01*
X146230Y725292D01*
X146248Y725290D01*
X146265Y725286D01*
X146596Y725259D01*
X151452Y725259D01*
X153506Y724408D01*
X165078Y712836D01*
X165929Y710782D01*
X165929Y708558D01*
X165078Y706504D01*
X163506Y704932D01*
X161452Y704081D01*
X159228Y704081D01*
X157174Y704932D01*
X148620Y713486D01*
X148599Y713503D01*
X148582Y713524D01*
X148444Y713631D01*
X148308Y713741D01*
X148285Y713754D01*
X148264Y713770D01*
X148107Y713848D01*
X147953Y713930D01*
X147927Y713938D01*
X147903Y713950D01*
X147734Y713995D01*
X147567Y714045D01*
X147540Y714047D01*
X147514Y714054D01*
X147184Y714081D01*
X146596Y714081D01*
X146578Y714079D01*
X146560Y714081D01*
X146378Y714060D01*
X146195Y714041D01*
X146178Y714036D01*
X146161Y714034D01*
X145986Y713977D01*
X145810Y713923D01*
X145795Y713915D01*
X145778Y713909D01*
X145618Y713819D01*
X145456Y713731D01*
X145443Y713720D01*
X145427Y713711D01*
X145288Y713591D01*
X145147Y713474D01*
X145136Y713460D01*
X145122Y713448D01*
X145010Y713303D01*
X144895Y713160D01*
X144887Y713144D01*
X144876Y713130D01*
X144794Y712965D01*
X144709Y712803D01*
X144704Y712786D01*
X144696Y712770D01*
X144649Y712591D01*
X144598Y712416D01*
X144596Y712398D01*
X144592Y712381D01*
X144565Y712050D01*
X144565Y657640D01*
X142399Y652412D01*
X138398Y648411D01*
X135544Y647229D01*
X133170Y646245D01*
X107073Y646245D01*
X107047Y646243D01*
X107020Y646245D01*
X106846Y646223D01*
X106673Y646205D01*
X106647Y646198D01*
X106621Y646194D01*
X106455Y646139D01*
X106288Y646087D01*
X106264Y646074D01*
X106239Y646066D01*
X106087Y645979D01*
X105934Y645895D01*
X105913Y645878D01*
X105890Y645865D01*
X105637Y645650D01*
X65160Y605173D01*
X65143Y605152D01*
X65122Y605135D01*
X65015Y604997D01*
X64905Y604861D01*
X64892Y604838D01*
X64876Y604817D01*
X64798Y604660D01*
X64716Y604506D01*
X64708Y604480D01*
X64696Y604456D01*
X64651Y604287D01*
X64601Y604120D01*
X64599Y604093D01*
X64592Y604067D01*
X64565Y603737D01*
X64565Y306840D01*
X62399Y301612D01*
X58112Y297325D01*
X55160Y294373D01*
X55143Y294352D01*
X55122Y294335D01*
X55016Y294197D01*
X54905Y294061D01*
X54892Y294038D01*
X54876Y294017D01*
X54798Y293860D01*
X54716Y293706D01*
X54708Y293680D01*
X54696Y293656D01*
X54651Y293487D01*
X54601Y293320D01*
X54599Y293293D01*
X54592Y293267D01*
X54565Y292937D01*
X54565Y266403D01*
X54567Y266377D01*
X54565Y266350D01*
X54587Y266176D01*
X54605Y266003D01*
X54612Y265977D01*
X54616Y265951D01*
X54671Y265785D01*
X54723Y265618D01*
X54736Y265594D01*
X54744Y265569D01*
X54831Y265417D01*
X54915Y265264D01*
X54932Y265243D01*
X54945Y265220D01*
X55160Y264967D01*
X84437Y235690D01*
X84458Y235673D01*
X84475Y235652D01*
X84613Y235545D01*
X84749Y235435D01*
X84772Y235422D01*
X84793Y235406D01*
X84950Y235328D01*
X85104Y235246D01*
X85130Y235238D01*
X85154Y235226D01*
X85323Y235181D01*
X85490Y235131D01*
X85517Y235129D01*
X85543Y235122D01*
X85873Y235095D01*
X217070Y235095D01*
X222298Y232929D01*
X226299Y228928D01*
X228465Y223700D01*
X228465Y218040D01*
X226299Y212812D01*
X222298Y208811D01*
X221496Y208479D01*
X217070Y206645D01*
X76310Y206645D01*
G37*
%LPD*%
%LPC*%
G36*
X212110Y526885D02*
X212110Y526885D01*
X206882Y529051D01*
X202881Y533052D01*
X200715Y538280D01*
X200715Y553712D01*
X200714Y553723D01*
X200715Y553737D01*
X200681Y556572D01*
X200682Y556574D01*
X200683Y556593D01*
X200688Y556612D01*
X200715Y556942D01*
X200715Y569340D01*
X202881Y574568D01*
X205180Y576867D01*
X205197Y576888D01*
X205218Y576905D01*
X205325Y577043D01*
X205435Y577179D01*
X205448Y577202D01*
X205464Y577223D01*
X205542Y577380D01*
X205624Y577534D01*
X205632Y577560D01*
X205644Y577584D01*
X205689Y577753D01*
X205739Y577920D01*
X205741Y577947D01*
X205748Y577973D01*
X205775Y578303D01*
X205775Y632830D01*
X207941Y638058D01*
X241612Y671729D01*
X246840Y673895D01*
X613607Y673895D01*
X613633Y673897D01*
X613660Y673895D01*
X613834Y673917D01*
X614007Y673935D01*
X614033Y673942D01*
X614059Y673946D01*
X614225Y674001D01*
X614392Y674053D01*
X614416Y674066D01*
X614441Y674074D01*
X614593Y674161D01*
X614746Y674245D01*
X614767Y674262D01*
X614790Y674275D01*
X615043Y674490D01*
X680267Y739714D01*
X680278Y739728D01*
X680292Y739739D01*
X680406Y739884D01*
X680522Y740025D01*
X680531Y740041D01*
X680542Y740055D01*
X680625Y740219D01*
X680711Y740381D01*
X680716Y740398D01*
X680724Y740414D01*
X680773Y740591D01*
X680826Y740767D01*
X680827Y740785D01*
X680832Y740802D01*
X680845Y740985D01*
X680862Y741168D01*
X680860Y741186D01*
X680861Y741204D01*
X680838Y741386D01*
X680819Y741568D01*
X680813Y741585D01*
X680811Y741603D01*
X680753Y741777D01*
X680697Y741952D01*
X680688Y741968D01*
X680683Y741985D01*
X680591Y742144D01*
X680502Y742304D01*
X680491Y742318D01*
X680482Y742334D01*
X680267Y742587D01*
X678815Y744038D01*
X678815Y795302D01*
X679708Y796195D01*
X780972Y796195D01*
X781865Y795302D01*
X781865Y744038D01*
X780972Y743145D01*
X724773Y743145D01*
X724747Y743143D01*
X724720Y743145D01*
X724546Y743123D01*
X724373Y743105D01*
X724347Y743098D01*
X724321Y743094D01*
X724155Y743039D01*
X723988Y742987D01*
X723964Y742974D01*
X723939Y742966D01*
X723787Y742879D01*
X723634Y742795D01*
X723613Y742778D01*
X723590Y742765D01*
X723337Y742550D01*
X628398Y647611D01*
X623170Y645445D01*
X256403Y645445D01*
X256377Y645443D01*
X256350Y645445D01*
X256176Y645423D01*
X256003Y645405D01*
X255977Y645398D01*
X255951Y645394D01*
X255785Y645339D01*
X255618Y645287D01*
X255594Y645274D01*
X255569Y645266D01*
X255417Y645179D01*
X255264Y645095D01*
X255243Y645078D01*
X255220Y645065D01*
X254967Y644850D01*
X234820Y624703D01*
X234803Y624682D01*
X234782Y624665D01*
X234675Y624527D01*
X234565Y624391D01*
X234552Y624368D01*
X234536Y624347D01*
X234458Y624190D01*
X234376Y624036D01*
X234368Y624010D01*
X234356Y623986D01*
X234311Y623817D01*
X234261Y623650D01*
X234259Y623623D01*
X234252Y623597D01*
X234225Y623267D01*
X234225Y548967D01*
X234226Y548956D01*
X234225Y548943D01*
X234259Y546123D01*
X233179Y543516D01*
X233176Y543506D01*
X233170Y543494D01*
X232122Y540875D01*
X230127Y538880D01*
X230120Y538871D01*
X230110Y538862D01*
X229161Y537891D01*
X229149Y537876D01*
X229134Y537863D01*
X229023Y537719D01*
X228909Y537576D01*
X228901Y537559D01*
X228889Y537544D01*
X228737Y537249D01*
X226999Y533052D01*
X222998Y529051D01*
X217770Y526885D01*
X212110Y526885D01*
G37*
%LPD*%
%LPC*%
G36*
X349883Y154749D02*
X349883Y154749D01*
X345419Y159213D01*
X345419Y165527D01*
X349883Y169991D01*
X356197Y169991D01*
X360428Y165760D01*
X360448Y165743D01*
X360466Y165722D01*
X360604Y165615D01*
X360739Y165505D01*
X360763Y165492D01*
X360784Y165476D01*
X360941Y165398D01*
X361095Y165316D01*
X361120Y165308D01*
X361144Y165296D01*
X361314Y165251D01*
X361481Y165201D01*
X361507Y165199D01*
X361533Y165192D01*
X361864Y165165D01*
X751041Y165165D01*
X751068Y165167D01*
X751094Y165165D01*
X751268Y165187D01*
X751442Y165205D01*
X751467Y165212D01*
X751494Y165216D01*
X751659Y165271D01*
X751827Y165323D01*
X751850Y165336D01*
X751875Y165344D01*
X752027Y165431D01*
X752181Y165515D01*
X752201Y165532D01*
X752224Y165545D01*
X752477Y165760D01*
X796950Y210233D01*
X796967Y210253D01*
X796988Y210271D01*
X797095Y210409D01*
X797205Y210544D01*
X797218Y210568D01*
X797234Y210589D01*
X797312Y210746D01*
X797394Y210900D01*
X797402Y210925D01*
X797414Y210949D01*
X797459Y211119D01*
X797509Y211286D01*
X797511Y211312D01*
X797518Y211338D01*
X797545Y211669D01*
X797545Y260828D01*
X810036Y273318D01*
X810050Y273335D01*
X810067Y273350D01*
X810177Y273491D01*
X810291Y273629D01*
X810301Y273649D01*
X810315Y273667D01*
X810396Y273827D01*
X810479Y273985D01*
X810486Y274006D01*
X810496Y274026D01*
X810543Y274200D01*
X810594Y274371D01*
X810596Y274393D01*
X810602Y274415D01*
X810614Y274593D01*
X810630Y274772D01*
X810628Y274794D01*
X810630Y274816D01*
X810606Y274994D01*
X810587Y275172D01*
X810580Y275194D01*
X810577Y275216D01*
X810476Y275532D01*
X810117Y276397D01*
X810117Y280743D01*
X810365Y281341D01*
X810367Y281346D01*
X810369Y281350D01*
X810425Y281538D01*
X810482Y281727D01*
X810482Y281731D01*
X810483Y281736D01*
X810501Y281932D01*
X810520Y282128D01*
X810519Y282132D01*
X810520Y282137D01*
X810499Y282331D01*
X810478Y282528D01*
X810477Y282532D01*
X810476Y282537D01*
X810417Y282724D01*
X810358Y282913D01*
X810356Y282916D01*
X810355Y282921D01*
X810259Y283094D01*
X810165Y283266D01*
X810162Y283269D01*
X810160Y283273D01*
X810032Y283424D01*
X809906Y283574D01*
X809903Y283577D01*
X809900Y283580D01*
X809745Y283702D01*
X809591Y283825D01*
X809587Y283827D01*
X809584Y283830D01*
X809410Y283918D01*
X809233Y284009D01*
X809229Y284010D01*
X809225Y284012D01*
X809034Y284065D01*
X808846Y284118D01*
X808841Y284119D01*
X808837Y284120D01*
X808636Y284135D01*
X808444Y284150D01*
X808440Y284149D01*
X808435Y284149D01*
X808237Y284124D01*
X808045Y284101D01*
X808040Y284100D01*
X808036Y284099D01*
X807851Y284037D01*
X807662Y283974D01*
X807658Y283972D01*
X807654Y283971D01*
X807486Y283874D01*
X807313Y283775D01*
X807309Y283772D01*
X807305Y283770D01*
X807052Y283555D01*
X806114Y282617D01*
X804444Y281925D01*
X802636Y281925D01*
X800966Y282617D01*
X800502Y283080D01*
X800482Y283097D01*
X800464Y283118D01*
X800326Y283225D01*
X800191Y283335D01*
X800167Y283348D01*
X800146Y283364D01*
X799989Y283442D01*
X799835Y283524D01*
X799810Y283532D01*
X799786Y283544D01*
X799616Y283589D01*
X799449Y283639D01*
X799423Y283641D01*
X799397Y283648D01*
X799066Y283675D01*
X769157Y283675D01*
X769131Y283673D01*
X769104Y283675D01*
X768930Y283653D01*
X768757Y283635D01*
X768731Y283628D01*
X768705Y283624D01*
X768539Y283569D01*
X768372Y283517D01*
X768348Y283504D01*
X768323Y283496D01*
X768171Y283409D01*
X768018Y283325D01*
X767997Y283308D01*
X767974Y283295D01*
X767721Y283080D01*
X724432Y239791D01*
X696266Y239791D01*
X691527Y244530D01*
X691507Y244547D01*
X691489Y244568D01*
X691351Y244675D01*
X691216Y244785D01*
X691192Y244798D01*
X691171Y244814D01*
X691014Y244892D01*
X690860Y244974D01*
X690835Y244982D01*
X690811Y244994D01*
X690641Y245039D01*
X690474Y245089D01*
X690448Y245091D01*
X690422Y245098D01*
X690091Y245125D01*
X689436Y245125D01*
X687766Y245817D01*
X686487Y247096D01*
X685795Y248766D01*
X685795Y250574D01*
X686487Y252244D01*
X687766Y253523D01*
X689436Y254215D01*
X691244Y254215D01*
X692914Y253523D01*
X694193Y252244D01*
X694885Y250574D01*
X694885Y249919D01*
X694887Y249892D01*
X694885Y249866D01*
X694907Y249692D01*
X694925Y249518D01*
X694932Y249493D01*
X694936Y249466D01*
X694991Y249301D01*
X695043Y249133D01*
X695056Y249110D01*
X695064Y249085D01*
X695151Y248933D01*
X695235Y248779D01*
X695252Y248759D01*
X695265Y248736D01*
X695480Y248483D01*
X697534Y246429D01*
X697537Y246426D01*
X697540Y246422D01*
X697693Y246298D01*
X697845Y246174D01*
X697849Y246172D01*
X697853Y246169D01*
X698030Y246076D01*
X698201Y245985D01*
X698205Y245984D01*
X698209Y245982D01*
X698399Y245926D01*
X698587Y245870D01*
X698591Y245870D01*
X698595Y245869D01*
X698787Y245852D01*
X698988Y245834D01*
X698992Y245834D01*
X698997Y245834D01*
X699188Y245856D01*
X699388Y245877D01*
X699392Y245879D01*
X699397Y245879D01*
X699583Y245939D01*
X699772Y245999D01*
X699776Y246001D01*
X699780Y246002D01*
X699952Y246098D01*
X700124Y246194D01*
X700128Y246197D01*
X700131Y246199D01*
X700278Y246325D01*
X700431Y246454D01*
X700434Y246458D01*
X700437Y246461D01*
X700557Y246614D01*
X700681Y246770D01*
X700683Y246774D01*
X700685Y246778D01*
X700773Y246952D01*
X700863Y247129D01*
X700864Y247133D01*
X700866Y247137D01*
X700917Y247324D01*
X700971Y247517D01*
X700971Y247522D01*
X700973Y247526D01*
X700985Y247714D01*
X701000Y247918D01*
X701000Y247923D01*
X701000Y247927D01*
X700975Y248118D01*
X700950Y248318D01*
X700949Y248322D01*
X700948Y248327D01*
X700846Y248643D01*
X700795Y248766D01*
X700795Y250574D01*
X701487Y252244D01*
X701950Y252708D01*
X701967Y252728D01*
X701988Y252746D01*
X702095Y252884D01*
X702205Y253019D01*
X702218Y253043D01*
X702234Y253064D01*
X702312Y253221D01*
X702394Y253375D01*
X702402Y253400D01*
X702414Y253424D01*
X702459Y253594D01*
X702509Y253761D01*
X702511Y253787D01*
X702518Y253813D01*
X702545Y254144D01*
X702545Y255828D01*
X786950Y340233D01*
X786967Y340253D01*
X786988Y340271D01*
X787095Y340409D01*
X787205Y340544D01*
X787218Y340568D01*
X787234Y340589D01*
X787312Y340746D01*
X787394Y340900D01*
X787402Y340925D01*
X787414Y340949D01*
X787459Y341119D01*
X787509Y341286D01*
X787511Y341312D01*
X787518Y341338D01*
X787545Y341669D01*
X787545Y355196D01*
X787543Y355223D01*
X787545Y355249D01*
X787523Y355423D01*
X787505Y355597D01*
X787498Y355622D01*
X787494Y355649D01*
X787439Y355815D01*
X787387Y355982D01*
X787374Y356005D01*
X787366Y356031D01*
X787279Y356182D01*
X787195Y356336D01*
X787178Y356356D01*
X787165Y356379D01*
X786950Y356632D01*
X786487Y357096D01*
X785795Y358766D01*
X785795Y360574D01*
X786487Y362244D01*
X787766Y363523D01*
X789436Y364215D01*
X791244Y364215D01*
X792914Y363523D01*
X794078Y362360D01*
X794085Y362354D01*
X794090Y362347D01*
X794241Y362226D01*
X794389Y362104D01*
X794397Y362100D01*
X794404Y362095D01*
X794574Y362006D01*
X794745Y361916D01*
X794754Y361913D01*
X794761Y361909D01*
X794946Y361856D01*
X795131Y361801D01*
X795140Y361800D01*
X795148Y361798D01*
X795339Y361782D01*
X795532Y361765D01*
X795541Y361766D01*
X795550Y361765D01*
X795739Y361787D01*
X795932Y361808D01*
X795941Y361811D01*
X795949Y361812D01*
X796131Y361871D01*
X796316Y361930D01*
X796324Y361934D01*
X796332Y361937D01*
X796499Y362031D01*
X796668Y362124D01*
X796675Y362130D01*
X796683Y362135D01*
X796827Y362259D01*
X796975Y362385D01*
X796981Y362392D01*
X796988Y362398D01*
X797104Y362548D01*
X797225Y362701D01*
X797229Y362709D01*
X797234Y362716D01*
X797319Y362886D01*
X797407Y363060D01*
X797410Y363068D01*
X797414Y363076D01*
X797463Y363262D01*
X797515Y363448D01*
X797516Y363457D01*
X797518Y363465D01*
X797545Y363796D01*
X797545Y375696D01*
X797543Y375723D01*
X797545Y375749D01*
X797523Y375923D01*
X797505Y376097D01*
X797498Y376122D01*
X797494Y376149D01*
X797439Y376315D01*
X797387Y376482D01*
X797374Y376505D01*
X797366Y376531D01*
X797279Y376682D01*
X797195Y376836D01*
X797178Y376856D01*
X797165Y376879D01*
X796950Y377132D01*
X796487Y377596D01*
X795795Y379266D01*
X795795Y381074D01*
X796487Y382744D01*
X797766Y384023D01*
X799436Y384715D01*
X801244Y384715D01*
X802914Y384023D01*
X804193Y382744D01*
X804885Y381074D01*
X804885Y379266D01*
X804193Y377596D01*
X803730Y377132D01*
X803713Y377112D01*
X803692Y377094D01*
X803585Y376956D01*
X803475Y376821D01*
X803462Y376797D01*
X803446Y376776D01*
X803368Y376619D01*
X803286Y376465D01*
X803278Y376440D01*
X803266Y376416D01*
X803221Y376246D01*
X803171Y376079D01*
X803169Y376053D01*
X803162Y376027D01*
X803135Y375696D01*
X803135Y328512D01*
X800903Y326280D01*
X767355Y292732D01*
X767349Y292725D01*
X767342Y292720D01*
X767222Y292570D01*
X767100Y292421D01*
X767095Y292413D01*
X767090Y292406D01*
X767001Y292235D01*
X766911Y292065D01*
X766908Y292057D01*
X766904Y292049D01*
X766851Y291863D01*
X766796Y291679D01*
X766795Y291670D01*
X766793Y291662D01*
X766777Y291470D01*
X766760Y291278D01*
X766761Y291269D01*
X766760Y291260D01*
X766782Y291071D01*
X766803Y290878D01*
X766806Y290869D01*
X766807Y290861D01*
X766866Y290679D01*
X766925Y290494D01*
X766929Y290486D01*
X766932Y290478D01*
X767027Y290309D01*
X767119Y290142D01*
X767125Y290135D01*
X767130Y290127D01*
X767256Y289981D01*
X767380Y289835D01*
X767387Y289829D01*
X767393Y289822D01*
X767544Y289705D01*
X767696Y289585D01*
X767704Y289581D01*
X767711Y289576D01*
X767883Y289490D01*
X768055Y289403D01*
X768063Y289400D01*
X768071Y289396D01*
X768258Y289346D01*
X768443Y289295D01*
X768452Y289294D01*
X768460Y289292D01*
X768791Y289265D01*
X799066Y289265D01*
X799093Y289267D01*
X799119Y289265D01*
X799293Y289287D01*
X799467Y289305D01*
X799492Y289312D01*
X799519Y289316D01*
X799685Y289371D01*
X799852Y289423D01*
X799875Y289436D01*
X799901Y289444D01*
X800052Y289531D01*
X800206Y289615D01*
X800226Y289632D01*
X800249Y289645D01*
X800502Y289860D01*
X800966Y290323D01*
X802636Y291015D01*
X804444Y291015D01*
X806114Y290323D01*
X807393Y289044D01*
X808085Y287374D01*
X808085Y285966D01*
X808086Y285957D01*
X808085Y285948D01*
X808106Y285756D01*
X808125Y285565D01*
X808127Y285556D01*
X808128Y285548D01*
X808186Y285365D01*
X808243Y285180D01*
X808247Y285172D01*
X808250Y285164D01*
X808343Y284995D01*
X808435Y284826D01*
X808440Y284819D01*
X808445Y284811D01*
X808569Y284664D01*
X808692Y284517D01*
X808699Y284511D01*
X808705Y284504D01*
X808856Y284385D01*
X809006Y284265D01*
X809014Y284260D01*
X809021Y284255D01*
X809194Y284167D01*
X809363Y284079D01*
X809372Y284077D01*
X809380Y284072D01*
X809566Y284021D01*
X809750Y283968D01*
X809759Y283967D01*
X809768Y283964D01*
X809961Y283950D01*
X810152Y283935D01*
X810160Y283936D01*
X810169Y283935D01*
X810362Y283959D01*
X810551Y283982D01*
X810560Y283984D01*
X810569Y283986D01*
X810752Y284047D01*
X810934Y284106D01*
X810942Y284111D01*
X810950Y284114D01*
X811117Y284210D01*
X811285Y284304D01*
X811292Y284310D01*
X811299Y284315D01*
X811552Y284529D01*
X814853Y287830D01*
X818627Y289393D01*
X818635Y289398D01*
X818644Y289400D01*
X818812Y289492D01*
X818982Y289584D01*
X818989Y289589D01*
X818997Y289594D01*
X819143Y289717D01*
X819293Y289840D01*
X819298Y289847D01*
X819305Y289853D01*
X819425Y290003D01*
X819546Y290153D01*
X819551Y290161D01*
X819556Y290167D01*
X819644Y290339D01*
X819733Y290509D01*
X819736Y290518D01*
X819740Y290526D01*
X819793Y290711D01*
X819847Y290896D01*
X819847Y290904D01*
X819850Y290913D01*
X819865Y291104D01*
X819881Y291297D01*
X819880Y291306D01*
X819881Y291314D01*
X819857Y291507D01*
X819836Y291697D01*
X819833Y291705D01*
X819832Y291714D01*
X819771Y291899D01*
X819713Y292080D01*
X819709Y292088D01*
X819706Y292096D01*
X819610Y292264D01*
X819516Y292432D01*
X819511Y292438D01*
X819506Y292446D01*
X819380Y292591D01*
X819255Y292737D01*
X819248Y292743D01*
X819242Y292750D01*
X819089Y292867D01*
X818938Y292986D01*
X818930Y292990D01*
X818923Y292995D01*
X818627Y293147D01*
X814853Y294710D01*
X811780Y297783D01*
X810117Y301797D01*
X810117Y306143D01*
X811780Y310157D01*
X814853Y313230D01*
X818627Y314793D01*
X818635Y314798D01*
X818644Y314800D01*
X818812Y314892D01*
X818982Y314984D01*
X818989Y314989D01*
X818997Y314994D01*
X819143Y315117D01*
X819293Y315240D01*
X819298Y315247D01*
X819305Y315253D01*
X819425Y315403D01*
X819546Y315553D01*
X819551Y315561D01*
X819556Y315567D01*
X819644Y315739D01*
X819733Y315909D01*
X819736Y315918D01*
X819740Y315926D01*
X819793Y316111D01*
X819847Y316296D01*
X819847Y316304D01*
X819850Y316313D01*
X819865Y316504D01*
X819881Y316697D01*
X819880Y316706D01*
X819881Y316714D01*
X819857Y316907D01*
X819836Y317097D01*
X819833Y317105D01*
X819832Y317114D01*
X819771Y317299D01*
X819713Y317480D01*
X819709Y317488D01*
X819706Y317496D01*
X819610Y317664D01*
X819516Y317832D01*
X819511Y317838D01*
X819506Y317846D01*
X819380Y317991D01*
X819255Y318137D01*
X819248Y318143D01*
X819242Y318150D01*
X819089Y318267D01*
X818938Y318386D01*
X818930Y318390D01*
X818923Y318395D01*
X818627Y318547D01*
X814853Y320110D01*
X811780Y323183D01*
X810117Y327197D01*
X810117Y331543D01*
X811780Y335557D01*
X814853Y338630D01*
X818627Y340193D01*
X818635Y340198D01*
X818644Y340200D01*
X818812Y340292D01*
X818982Y340384D01*
X818989Y340389D01*
X818997Y340394D01*
X819143Y340517D01*
X819293Y340640D01*
X819298Y340647D01*
X819305Y340653D01*
X819425Y340803D01*
X819546Y340953D01*
X819551Y340961D01*
X819556Y340967D01*
X819644Y341139D01*
X819733Y341309D01*
X819736Y341318D01*
X819740Y341326D01*
X819793Y341511D01*
X819847Y341696D01*
X819847Y341704D01*
X819850Y341713D01*
X819865Y341904D01*
X819881Y342097D01*
X819880Y342106D01*
X819881Y342114D01*
X819857Y342307D01*
X819836Y342497D01*
X819833Y342505D01*
X819832Y342514D01*
X819771Y342699D01*
X819713Y342880D01*
X819709Y342888D01*
X819706Y342896D01*
X819610Y343064D01*
X819516Y343232D01*
X819511Y343238D01*
X819506Y343246D01*
X819380Y343391D01*
X819255Y343537D01*
X819248Y343543D01*
X819242Y343550D01*
X819089Y343667D01*
X818938Y343786D01*
X818930Y343790D01*
X818923Y343795D01*
X818627Y343947D01*
X814853Y345510D01*
X811780Y348583D01*
X810117Y352597D01*
X810117Y356943D01*
X811780Y360957D01*
X814853Y364030D01*
X818627Y365593D01*
X818635Y365598D01*
X818644Y365600D01*
X818812Y365692D01*
X818982Y365784D01*
X818989Y365789D01*
X818997Y365794D01*
X819143Y365917D01*
X819293Y366040D01*
X819298Y366047D01*
X819305Y366053D01*
X819424Y366202D01*
X819546Y366353D01*
X819551Y366361D01*
X819556Y366367D01*
X819644Y366539D01*
X819733Y366709D01*
X819736Y366718D01*
X819740Y366726D01*
X819793Y366911D01*
X819847Y367096D01*
X819847Y367104D01*
X819850Y367113D01*
X819865Y367304D01*
X819881Y367497D01*
X819880Y367506D01*
X819881Y367514D01*
X819857Y367707D01*
X819836Y367897D01*
X819833Y367905D01*
X819832Y367914D01*
X819771Y368099D01*
X819713Y368280D01*
X819709Y368288D01*
X819706Y368296D01*
X819610Y368464D01*
X819516Y368632D01*
X819511Y368638D01*
X819506Y368646D01*
X819380Y368791D01*
X819255Y368937D01*
X819248Y368943D01*
X819242Y368950D01*
X819089Y369067D01*
X818938Y369186D01*
X818930Y369190D01*
X818923Y369195D01*
X818627Y369347D01*
X814853Y370910D01*
X811780Y373983D01*
X810117Y377997D01*
X810117Y382343D01*
X811780Y386357D01*
X814853Y389430D01*
X818627Y390993D01*
X818635Y390998D01*
X818644Y391000D01*
X818812Y391092D01*
X818982Y391184D01*
X818989Y391189D01*
X818997Y391194D01*
X819143Y391317D01*
X819293Y391440D01*
X819298Y391447D01*
X819305Y391453D01*
X819425Y391603D01*
X819546Y391753D01*
X819551Y391761D01*
X819556Y391767D01*
X819644Y391939D01*
X819733Y392109D01*
X819736Y392118D01*
X819740Y392126D01*
X819793Y392311D01*
X819847Y392496D01*
X819847Y392504D01*
X819850Y392513D01*
X819865Y392704D01*
X819881Y392897D01*
X819880Y392906D01*
X819881Y392914D01*
X819857Y393107D01*
X819836Y393297D01*
X819833Y393305D01*
X819832Y393314D01*
X819771Y393499D01*
X819713Y393680D01*
X819709Y393688D01*
X819706Y393696D01*
X819610Y393864D01*
X819516Y394032D01*
X819511Y394038D01*
X819506Y394046D01*
X819380Y394191D01*
X819255Y394337D01*
X819248Y394343D01*
X819242Y394350D01*
X819089Y394467D01*
X818938Y394586D01*
X818930Y394590D01*
X818923Y394595D01*
X818627Y394747D01*
X814853Y396310D01*
X811780Y399383D01*
X810117Y403397D01*
X810117Y407743D01*
X811780Y411757D01*
X814853Y414830D01*
X815682Y415173D01*
X815686Y415175D01*
X815690Y415177D01*
X815863Y415270D01*
X816037Y415364D01*
X816041Y415366D01*
X816044Y415369D01*
X816193Y415493D01*
X816347Y415620D01*
X816350Y415623D01*
X816354Y415626D01*
X816476Y415779D01*
X816601Y415933D01*
X816603Y415937D01*
X816606Y415940D01*
X816695Y416111D01*
X816788Y416289D01*
X816789Y416293D01*
X816791Y416297D01*
X816846Y416486D01*
X816901Y416676D01*
X816902Y416680D01*
X816903Y416684D01*
X816919Y416882D01*
X816936Y417077D01*
X816935Y417081D01*
X816936Y417086D01*
X816913Y417280D01*
X816891Y417477D01*
X816889Y417481D01*
X816889Y417485D01*
X816829Y417669D01*
X816768Y417860D01*
X816765Y417864D01*
X816764Y417868D01*
X816667Y418041D01*
X816571Y418212D01*
X816568Y418215D01*
X816566Y418219D01*
X816438Y418368D01*
X816309Y418517D01*
X816306Y418520D01*
X816303Y418524D01*
X816149Y418643D01*
X815992Y418766D01*
X815988Y418768D01*
X815985Y418770D01*
X815807Y418859D01*
X815633Y418946D01*
X815628Y418948D01*
X815624Y418950D01*
X815432Y419001D01*
X815244Y419053D01*
X815240Y419053D01*
X815236Y419054D01*
X814905Y419081D01*
X808496Y419081D01*
X808470Y419079D01*
X808443Y419081D01*
X808269Y419059D01*
X808096Y419041D01*
X808070Y419034D01*
X808044Y419030D01*
X807878Y418975D01*
X807711Y418923D01*
X807687Y418910D01*
X807662Y418902D01*
X807510Y418815D01*
X807357Y418731D01*
X807336Y418714D01*
X807313Y418701D01*
X807060Y418486D01*
X705364Y316790D01*
X705363Y316790D01*
X703506Y314932D01*
X701452Y314081D01*
X647960Y314081D01*
X647942Y314079D01*
X647924Y314081D01*
X647742Y314060D01*
X647559Y314041D01*
X647542Y314036D01*
X647525Y314034D01*
X647350Y313977D01*
X647174Y313923D01*
X647159Y313915D01*
X647142Y313909D01*
X646982Y313819D01*
X646820Y313731D01*
X646807Y313720D01*
X646791Y313711D01*
X646652Y313591D01*
X646511Y313474D01*
X646500Y313460D01*
X646486Y313448D01*
X646374Y313303D01*
X646259Y313160D01*
X646251Y313144D01*
X646240Y313130D01*
X646157Y312964D01*
X646073Y312803D01*
X646068Y312786D01*
X646060Y312770D01*
X646013Y312591D01*
X645962Y312416D01*
X645960Y312398D01*
X645956Y312381D01*
X645929Y312050D01*
X645929Y308558D01*
X645078Y306504D01*
X643220Y304647D01*
X643220Y304646D01*
X545364Y206790D01*
X545363Y206790D01*
X540806Y202232D01*
X538752Y201381D01*
X536528Y201381D01*
X534474Y202232D01*
X532902Y203804D01*
X532051Y205858D01*
X532051Y208082D01*
X532902Y210136D01*
X537460Y214693D01*
X537460Y214694D01*
X565371Y242605D01*
X565374Y242608D01*
X565378Y242611D01*
X565501Y242763D01*
X565626Y242917D01*
X565629Y242921D01*
X565631Y242924D01*
X565724Y243100D01*
X565815Y243272D01*
X565816Y243276D01*
X565818Y243280D01*
X565875Y243473D01*
X565930Y243658D01*
X565930Y243663D01*
X565931Y243667D01*
X565948Y243855D01*
X565965Y244048D01*
X566013Y244044D01*
X566017Y244045D01*
X566022Y244044D01*
X566219Y244069D01*
X566413Y244093D01*
X566417Y244094D01*
X566421Y244095D01*
X566605Y244157D01*
X566795Y244219D01*
X566799Y244222D01*
X566803Y244223D01*
X566974Y244321D01*
X567145Y244419D01*
X567148Y244422D01*
X567152Y244424D01*
X567405Y244639D01*
X634156Y311390D01*
X634173Y311411D01*
X634194Y311428D01*
X634301Y311566D01*
X634411Y311701D01*
X634424Y311725D01*
X634440Y311746D01*
X634518Y311903D01*
X634600Y312057D01*
X634608Y312083D01*
X634620Y312107D01*
X634665Y312276D01*
X634715Y312443D01*
X634717Y312470D01*
X634724Y312496D01*
X634751Y312826D01*
X634751Y320782D01*
X635602Y322836D01*
X637174Y324408D01*
X639228Y325259D01*
X697184Y325259D01*
X697210Y325261D01*
X697237Y325259D01*
X697411Y325281D01*
X697584Y325299D01*
X697610Y325306D01*
X697636Y325310D01*
X697802Y325365D01*
X697969Y325417D01*
X697993Y325430D01*
X698018Y325438D01*
X698170Y325525D01*
X698323Y325609D01*
X698344Y325626D01*
X698367Y325639D01*
X698620Y325854D01*
X802174Y429408D01*
X804089Y430201D01*
X804090Y430201D01*
X804228Y430259D01*
X808595Y430259D01*
X808604Y430260D01*
X808613Y430259D01*
X808803Y430279D01*
X808996Y430299D01*
X809004Y430301D01*
X809013Y430302D01*
X809196Y430360D01*
X809381Y430417D01*
X809389Y430421D01*
X809397Y430424D01*
X809566Y430517D01*
X809735Y430609D01*
X809742Y430614D01*
X809749Y430619D01*
X809897Y430744D01*
X810044Y430866D01*
X810049Y430873D01*
X810056Y430879D01*
X810176Y431030D01*
X810296Y431180D01*
X810300Y431188D01*
X810306Y431195D01*
X810394Y431368D01*
X810482Y431537D01*
X810484Y431546D01*
X810488Y431554D01*
X810540Y431740D01*
X810593Y431924D01*
X810594Y431933D01*
X810596Y431942D01*
X810610Y432134D01*
X810626Y432326D01*
X810625Y432334D01*
X810626Y432343D01*
X810601Y432535D01*
X810579Y432725D01*
X810576Y432734D01*
X810575Y432743D01*
X810514Y432925D01*
X810454Y433108D01*
X810450Y433116D01*
X810447Y433124D01*
X810351Y433292D01*
X810256Y433459D01*
X810251Y433466D01*
X810246Y433473D01*
X810117Y433625D01*
X810117Y453700D01*
X811010Y454593D01*
X817237Y454593D01*
X817241Y454593D01*
X817246Y454593D01*
X817440Y454613D01*
X817638Y454633D01*
X817642Y454634D01*
X817646Y454634D01*
X817832Y454692D01*
X818022Y454751D01*
X818026Y454753D01*
X818031Y454754D01*
X818202Y454848D01*
X818377Y454943D01*
X818380Y454945D01*
X818384Y454948D01*
X818535Y455075D01*
X818686Y455200D01*
X818689Y455204D01*
X818692Y455207D01*
X818815Y455361D01*
X818938Y455514D01*
X818940Y455518D01*
X818943Y455521D01*
X819033Y455697D01*
X819124Y455871D01*
X819125Y455876D01*
X819127Y455880D01*
X819180Y456068D01*
X819235Y456258D01*
X819235Y456263D01*
X819237Y456267D01*
X819252Y456460D01*
X819268Y456660D01*
X819267Y456664D01*
X819268Y456668D01*
X819244Y456861D01*
X819221Y457059D01*
X819220Y457064D01*
X819219Y457068D01*
X819157Y457254D01*
X819096Y457442D01*
X819094Y457446D01*
X819093Y457450D01*
X818995Y457622D01*
X818898Y457793D01*
X818895Y457796D01*
X818893Y457800D01*
X818763Y457949D01*
X818635Y458097D01*
X818632Y458100D01*
X818629Y458104D01*
X818472Y458224D01*
X818317Y458344D01*
X818313Y458346D01*
X818309Y458349D01*
X818014Y458501D01*
X814853Y459810D01*
X811780Y462883D01*
X810117Y466897D01*
X810117Y471243D01*
X811780Y475257D01*
X814853Y478330D01*
X816353Y478951D01*
X818627Y479893D01*
X818635Y479898D01*
X818644Y479900D01*
X818812Y479992D01*
X818982Y480084D01*
X818989Y480089D01*
X818997Y480094D01*
X819143Y480217D01*
X819293Y480340D01*
X819298Y480347D01*
X819305Y480353D01*
X819425Y480503D01*
X819546Y480653D01*
X819551Y480661D01*
X819556Y480667D01*
X819644Y480839D01*
X819733Y481009D01*
X819736Y481018D01*
X819740Y481026D01*
X819793Y481211D01*
X819847Y481396D01*
X819847Y481404D01*
X819850Y481413D01*
X819865Y481604D01*
X819881Y481797D01*
X819880Y481806D01*
X819881Y481814D01*
X819857Y482007D01*
X819836Y482197D01*
X819833Y482205D01*
X819832Y482214D01*
X819771Y482399D01*
X819713Y482580D01*
X819709Y482588D01*
X819706Y482596D01*
X819610Y482764D01*
X819516Y482932D01*
X819511Y482938D01*
X819506Y482946D01*
X819380Y483091D01*
X819255Y483237D01*
X819248Y483243D01*
X819242Y483250D01*
X819089Y483367D01*
X818938Y483486D01*
X818930Y483490D01*
X818923Y483495D01*
X818627Y483647D01*
X814853Y485210D01*
X811780Y488283D01*
X810117Y492297D01*
X810117Y496643D01*
X811780Y500657D01*
X814853Y503730D01*
X818627Y505293D01*
X818635Y505298D01*
X818644Y505300D01*
X818812Y505392D01*
X818982Y505484D01*
X818989Y505489D01*
X818997Y505494D01*
X819143Y505617D01*
X819293Y505740D01*
X819298Y505747D01*
X819305Y505753D01*
X819425Y505903D01*
X819546Y506053D01*
X819551Y506061D01*
X819556Y506067D01*
X819644Y506239D01*
X819733Y506409D01*
X819736Y506418D01*
X819740Y506426D01*
X819793Y506611D01*
X819847Y506796D01*
X819847Y506804D01*
X819850Y506813D01*
X819865Y507004D01*
X819881Y507197D01*
X819880Y507206D01*
X819881Y507214D01*
X819857Y507407D01*
X819836Y507597D01*
X819833Y507605D01*
X819832Y507614D01*
X819771Y507799D01*
X819713Y507980D01*
X819709Y507988D01*
X819706Y507996D01*
X819610Y508163D01*
X819516Y508332D01*
X819511Y508338D01*
X819506Y508346D01*
X819381Y508490D01*
X819255Y508637D01*
X819248Y508643D01*
X819242Y508650D01*
X819089Y508767D01*
X818938Y508886D01*
X818930Y508890D01*
X818923Y508895D01*
X818627Y509047D01*
X814853Y510610D01*
X811780Y513683D01*
X810117Y517697D01*
X810117Y522043D01*
X811780Y526057D01*
X814853Y529130D01*
X818627Y530693D01*
X818635Y530698D01*
X818644Y530700D01*
X818812Y530792D01*
X818982Y530884D01*
X818989Y530889D01*
X818997Y530894D01*
X819143Y531017D01*
X819293Y531140D01*
X819298Y531147D01*
X819305Y531153D01*
X819425Y531303D01*
X819546Y531453D01*
X819551Y531461D01*
X819556Y531467D01*
X819644Y531639D01*
X819733Y531809D01*
X819736Y531818D01*
X819740Y531826D01*
X819793Y532011D01*
X819847Y532196D01*
X819847Y532204D01*
X819850Y532213D01*
X819865Y532404D01*
X819881Y532597D01*
X819880Y532606D01*
X819881Y532614D01*
X819857Y532807D01*
X819836Y532997D01*
X819833Y533005D01*
X819832Y533014D01*
X819771Y533199D01*
X819713Y533380D01*
X819709Y533388D01*
X819706Y533396D01*
X819610Y533564D01*
X819516Y533732D01*
X819511Y533738D01*
X819506Y533746D01*
X819380Y533891D01*
X819255Y534037D01*
X819248Y534043D01*
X819242Y534050D01*
X819089Y534167D01*
X818938Y534286D01*
X818930Y534290D01*
X818923Y534295D01*
X818627Y534447D01*
X814853Y536010D01*
X811780Y539083D01*
X810117Y543097D01*
X810117Y547443D01*
X811780Y551457D01*
X814853Y554530D01*
X818627Y556093D01*
X818635Y556098D01*
X818644Y556100D01*
X818813Y556193D01*
X818982Y556284D01*
X818989Y556289D01*
X818997Y556294D01*
X819145Y556418D01*
X819293Y556540D01*
X819298Y556547D01*
X819305Y556553D01*
X819425Y556703D01*
X819546Y556853D01*
X819551Y556861D01*
X819556Y556868D01*
X819643Y557037D01*
X819734Y557209D01*
X819736Y557218D01*
X819740Y557226D01*
X819792Y557408D01*
X819847Y557596D01*
X819847Y557605D01*
X819850Y557613D01*
X819865Y557804D01*
X819881Y557997D01*
X819880Y558006D01*
X819881Y558014D01*
X819858Y558205D01*
X819836Y558397D01*
X819833Y558405D01*
X819832Y558414D01*
X819772Y558596D01*
X819713Y558780D01*
X819708Y558788D01*
X819706Y558796D01*
X819610Y558964D01*
X819517Y559132D01*
X819511Y559138D01*
X819506Y559146D01*
X819380Y559291D01*
X819255Y559437D01*
X819248Y559443D01*
X819242Y559450D01*
X819090Y559567D01*
X818938Y559686D01*
X818930Y559690D01*
X818923Y559695D01*
X818627Y559847D01*
X814853Y561410D01*
X811780Y564483D01*
X810117Y568497D01*
X810117Y572843D01*
X811780Y576857D01*
X814853Y579930D01*
X817339Y580960D01*
X817417Y581002D01*
X817500Y581035D01*
X817594Y581097D01*
X817694Y581150D01*
X817762Y581206D01*
X817837Y581255D01*
X817917Y581334D01*
X818004Y581406D01*
X818060Y581475D01*
X818123Y581538D01*
X818187Y581631D01*
X818258Y581719D01*
X818299Y581797D01*
X818349Y581871D01*
X818392Y581975D01*
X818445Y582075D01*
X818470Y582161D01*
X818504Y582243D01*
X818526Y582353D01*
X818558Y582462D01*
X818566Y582550D01*
X818583Y582637D01*
X818583Y582751D01*
X818593Y582863D01*
X818583Y582951D01*
X818583Y583040D01*
X818560Y583151D01*
X818547Y583263D01*
X818520Y583348D01*
X818503Y583435D01*
X818459Y583539D01*
X818424Y583646D01*
X818381Y583724D01*
X818347Y583806D01*
X818283Y583899D01*
X818228Y583998D01*
X818170Y584065D01*
X818120Y584139D01*
X818040Y584218D01*
X817966Y584304D01*
X817896Y584358D01*
X817833Y584421D01*
X817738Y584482D01*
X817649Y584552D01*
X817570Y584592D01*
X817495Y584640D01*
X817365Y584695D01*
X817289Y584733D01*
X817245Y584745D01*
X817189Y584768D01*
X816457Y585006D01*
X814783Y585859D01*
X813262Y586964D01*
X811934Y588292D01*
X810829Y589813D01*
X809976Y591487D01*
X809395Y593274D01*
X809355Y593531D01*
X820532Y593531D01*
X820550Y593532D01*
X820567Y593531D01*
X820750Y593552D01*
X820932Y593571D01*
X820949Y593576D01*
X820967Y593578D01*
X821045Y593603D01*
X821182Y593564D01*
X821200Y593562D01*
X821217Y593558D01*
X821548Y593531D01*
X832725Y593531D01*
X832685Y593274D01*
X832104Y591487D01*
X831251Y589813D01*
X830146Y588292D01*
X828818Y586964D01*
X827297Y585859D01*
X825623Y585006D01*
X824891Y584768D01*
X824809Y584732D01*
X824725Y584706D01*
X824626Y584652D01*
X824522Y584606D01*
X824449Y584555D01*
X824372Y584513D01*
X824285Y584440D01*
X824193Y584375D01*
X824131Y584311D01*
X824063Y584254D01*
X823993Y584165D01*
X823915Y584083D01*
X823868Y584008D01*
X823812Y583939D01*
X823761Y583838D01*
X823701Y583743D01*
X823669Y583660D01*
X823629Y583581D01*
X823598Y583472D01*
X823558Y583366D01*
X823543Y583278D01*
X823519Y583193D01*
X823510Y583081D01*
X823492Y582969D01*
X823495Y582880D01*
X823488Y582792D01*
X823501Y582680D01*
X823505Y582567D01*
X823526Y582480D01*
X823536Y582392D01*
X823572Y582285D01*
X823598Y582175D01*
X823635Y582094D01*
X823663Y582010D01*
X823719Y581912D01*
X823766Y581809D01*
X823818Y581737D01*
X823862Y581660D01*
X823937Y581575D01*
X824003Y581484D01*
X824068Y581424D01*
X824127Y581357D01*
X824216Y581288D01*
X824300Y581211D01*
X824376Y581165D01*
X824446Y581111D01*
X824572Y581047D01*
X824644Y581003D01*
X824687Y580987D01*
X824741Y580960D01*
X827227Y579930D01*
X830300Y576857D01*
X831963Y572843D01*
X831963Y568497D01*
X830300Y564483D01*
X827227Y561410D01*
X823546Y559885D01*
X823545Y559885D01*
X823453Y559847D01*
X823445Y559842D01*
X823436Y559840D01*
X823268Y559748D01*
X823098Y559656D01*
X823091Y559651D01*
X823083Y559646D01*
X822937Y559523D01*
X822787Y559400D01*
X822782Y559393D01*
X822775Y559387D01*
X822655Y559237D01*
X822534Y559087D01*
X822529Y559079D01*
X822524Y559073D01*
X822436Y558901D01*
X822347Y558731D01*
X822344Y558722D01*
X822340Y558714D01*
X822288Y558530D01*
X822233Y558344D01*
X822233Y558336D01*
X822230Y558327D01*
X822215Y558136D01*
X822199Y557943D01*
X822200Y557934D01*
X822199Y557926D01*
X822222Y557735D01*
X822244Y557543D01*
X822247Y557535D01*
X822248Y557526D01*
X822308Y557343D01*
X822367Y557160D01*
X822371Y557152D01*
X822374Y557144D01*
X822470Y556975D01*
X822563Y556808D01*
X822569Y556802D01*
X822574Y556794D01*
X822700Y556649D01*
X822825Y556503D01*
X822832Y556497D01*
X822838Y556490D01*
X822990Y556373D01*
X823142Y556254D01*
X823150Y556250D01*
X823157Y556245D01*
X823453Y556093D01*
X827227Y554530D01*
X830300Y551457D01*
X831963Y547443D01*
X831963Y543097D01*
X830300Y539083D01*
X827227Y536010D01*
X823453Y534447D01*
X823445Y534442D01*
X823436Y534440D01*
X823267Y534347D01*
X823098Y534256D01*
X823091Y534251D01*
X823083Y534246D01*
X822935Y534122D01*
X822787Y534000D01*
X822782Y533993D01*
X822775Y533987D01*
X822655Y533836D01*
X822534Y533687D01*
X822529Y533680D01*
X822524Y533672D01*
X822437Y533502D01*
X822347Y533331D01*
X822344Y533322D01*
X822340Y533314D01*
X822288Y533132D01*
X822233Y532944D01*
X822233Y532935D01*
X822230Y532927D01*
X822215Y532736D01*
X822199Y532543D01*
X822200Y532534D01*
X822199Y532526D01*
X822222Y532335D01*
X822244Y532143D01*
X822247Y532135D01*
X822248Y532126D01*
X822308Y531945D01*
X822367Y531760D01*
X822372Y531752D01*
X822374Y531744D01*
X822469Y531578D01*
X822564Y531408D01*
X822569Y531402D01*
X822574Y531394D01*
X822701Y531248D01*
X822825Y531103D01*
X822832Y531097D01*
X822838Y531090D01*
X822991Y530973D01*
X823142Y530854D01*
X823150Y530850D01*
X823157Y530845D01*
X823453Y530693D01*
X827227Y529130D01*
X830300Y526057D01*
X831963Y522043D01*
X831963Y517697D01*
X830300Y513683D01*
X827227Y510610D01*
X823453Y509047D01*
X823445Y509042D01*
X823436Y509040D01*
X823267Y508947D01*
X823098Y508856D01*
X823091Y508851D01*
X823083Y508846D01*
X822935Y508722D01*
X822787Y508600D01*
X822782Y508593D01*
X822775Y508587D01*
X822655Y508436D01*
X822534Y508287D01*
X822529Y508280D01*
X822524Y508272D01*
X822437Y508102D01*
X822347Y507931D01*
X822344Y507922D01*
X822340Y507914D01*
X822288Y507732D01*
X822233Y507544D01*
X822233Y507535D01*
X822230Y507527D01*
X822215Y507336D01*
X822199Y507143D01*
X822200Y507134D01*
X822199Y507126D01*
X822222Y506935D01*
X822244Y506743D01*
X822247Y506735D01*
X822248Y506726D01*
X822308Y506545D01*
X822367Y506360D01*
X822372Y506352D01*
X822374Y506344D01*
X822469Y506178D01*
X822564Y506008D01*
X822569Y506002D01*
X822574Y505994D01*
X822701Y505848D01*
X822825Y505703D01*
X822832Y505697D01*
X822838Y505690D01*
X822991Y505573D01*
X823142Y505454D01*
X823150Y505450D01*
X823157Y505445D01*
X823453Y505293D01*
X827227Y503730D01*
X830300Y500657D01*
X831963Y496643D01*
X831963Y492297D01*
X830300Y488283D01*
X827227Y485210D01*
X823453Y483647D01*
X823445Y483642D01*
X823436Y483640D01*
X823267Y483547D01*
X823098Y483456D01*
X823091Y483451D01*
X823083Y483446D01*
X822935Y483322D01*
X822787Y483200D01*
X822782Y483193D01*
X822775Y483187D01*
X822655Y483036D01*
X822534Y482887D01*
X822529Y482880D01*
X822524Y482872D01*
X822437Y482702D01*
X822347Y482531D01*
X822344Y482522D01*
X822340Y482514D01*
X822288Y482332D01*
X822233Y482144D01*
X822233Y482135D01*
X822230Y482127D01*
X822215Y481934D01*
X822199Y481743D01*
X822200Y481734D01*
X822199Y481726D01*
X822222Y481535D01*
X822244Y481343D01*
X822247Y481335D01*
X822248Y481326D01*
X822308Y481145D01*
X822367Y480960D01*
X822372Y480952D01*
X822374Y480944D01*
X822469Y480778D01*
X822564Y480608D01*
X822569Y480602D01*
X822574Y480594D01*
X822701Y480448D01*
X822825Y480303D01*
X822832Y480297D01*
X822838Y480290D01*
X822991Y480173D01*
X823142Y480054D01*
X823150Y480050D01*
X823157Y480045D01*
X823453Y479893D01*
X827227Y478330D01*
X830300Y475257D01*
X831963Y471243D01*
X831963Y466897D01*
X830300Y462883D01*
X827227Y459810D01*
X824066Y458501D01*
X824062Y458499D01*
X824058Y458497D01*
X823882Y458402D01*
X823711Y458310D01*
X823707Y458308D01*
X823703Y458305D01*
X823553Y458180D01*
X823400Y458054D01*
X823398Y458051D01*
X823394Y458048D01*
X823270Y457893D01*
X823147Y457741D01*
X823145Y457737D01*
X823142Y457734D01*
X823051Y457559D01*
X822960Y457385D01*
X822958Y457381D01*
X822956Y457377D01*
X822902Y457187D01*
X822847Y456998D01*
X822846Y456994D01*
X822845Y456990D01*
X822829Y456792D01*
X822812Y456597D01*
X822812Y456593D01*
X822812Y456588D01*
X822835Y456391D01*
X822857Y456197D01*
X822858Y456193D01*
X822859Y456189D01*
X822921Y456000D01*
X822980Y455814D01*
X822982Y455810D01*
X822984Y455806D01*
X823082Y455631D01*
X823177Y455462D01*
X823180Y455459D01*
X823182Y455455D01*
X823310Y455306D01*
X823438Y455157D01*
X823442Y455154D01*
X823445Y455150D01*
X823599Y455031D01*
X823756Y454908D01*
X823760Y454906D01*
X823763Y454904D01*
X823940Y454816D01*
X824115Y454728D01*
X824119Y454726D01*
X824124Y454724D01*
X824316Y454673D01*
X824504Y454621D01*
X824508Y454621D01*
X824512Y454620D01*
X824843Y454593D01*
X831070Y454593D01*
X831963Y453700D01*
X831963Y433622D01*
X831915Y433564D01*
X831794Y433415D01*
X831789Y433407D01*
X831784Y433400D01*
X831695Y433230D01*
X831605Y433059D01*
X831602Y433050D01*
X831598Y433043D01*
X831545Y432859D01*
X831490Y432673D01*
X831489Y432664D01*
X831487Y432656D01*
X831471Y432465D01*
X831454Y432272D01*
X831455Y432263D01*
X831454Y432254D01*
X831476Y432065D01*
X831497Y431872D01*
X831500Y431863D01*
X831501Y431855D01*
X831561Y431671D01*
X831619Y431488D01*
X831623Y431480D01*
X831626Y431472D01*
X831721Y431303D01*
X831813Y431136D01*
X831819Y431129D01*
X831824Y431121D01*
X831949Y430976D01*
X832074Y430829D01*
X832081Y430823D01*
X832087Y430816D01*
X832238Y430699D01*
X832390Y430579D01*
X832398Y430575D01*
X832405Y430570D01*
X832577Y430484D01*
X832749Y430397D01*
X832757Y430394D01*
X832765Y430390D01*
X832953Y430340D01*
X833137Y430289D01*
X833145Y430288D01*
X833154Y430286D01*
X833485Y430259D01*
X846452Y430259D01*
X848506Y429408D01*
X855363Y422550D01*
X855364Y422550D01*
X885078Y392836D01*
X885929Y390782D01*
X885929Y192826D01*
X885931Y192800D01*
X885929Y192773D01*
X885951Y192599D01*
X885969Y192426D01*
X885976Y192400D01*
X885980Y192374D01*
X886035Y192208D01*
X886087Y192041D01*
X886100Y192017D01*
X886108Y191992D01*
X886195Y191840D01*
X886279Y191687D01*
X886296Y191666D01*
X886309Y191643D01*
X886524Y191390D01*
X905078Y172836D01*
X905929Y170782D01*
X905929Y168558D01*
X905078Y166504D01*
X903506Y164932D01*
X901452Y164081D01*
X899228Y164081D01*
X897174Y164932D01*
X877460Y184646D01*
X877460Y184647D01*
X875602Y186504D01*
X874751Y188558D01*
X874751Y386514D01*
X874749Y386540D01*
X874751Y386567D01*
X874729Y386741D01*
X874711Y386914D01*
X874704Y386940D01*
X874700Y386966D01*
X874645Y387132D01*
X874593Y387299D01*
X874580Y387323D01*
X874572Y387348D01*
X874485Y387500D01*
X874401Y387653D01*
X874384Y387674D01*
X874371Y387697D01*
X874156Y387950D01*
X847460Y414646D01*
X847460Y414647D01*
X843620Y418486D01*
X843599Y418503D01*
X843582Y418524D01*
X843444Y418631D01*
X843308Y418741D01*
X843285Y418754D01*
X843264Y418770D01*
X843107Y418848D01*
X842953Y418930D01*
X842927Y418938D01*
X842903Y418950D01*
X842734Y418995D01*
X842567Y419045D01*
X842540Y419047D01*
X842514Y419054D01*
X842184Y419081D01*
X827175Y419081D01*
X827171Y419081D01*
X827166Y419081D01*
X826972Y419061D01*
X826775Y419041D01*
X826770Y419040D01*
X826766Y419040D01*
X826579Y418981D01*
X826390Y418923D01*
X826386Y418921D01*
X826381Y418920D01*
X826208Y418825D01*
X826036Y418731D01*
X826032Y418729D01*
X826028Y418726D01*
X825875Y418598D01*
X825726Y418474D01*
X825724Y418470D01*
X825720Y418467D01*
X825596Y418311D01*
X825474Y418160D01*
X825472Y418156D01*
X825469Y418153D01*
X825380Y417978D01*
X825289Y417803D01*
X825287Y417798D01*
X825285Y417794D01*
X825232Y417607D01*
X825177Y417416D01*
X825177Y417411D01*
X825176Y417407D01*
X825160Y417212D01*
X825144Y417014D01*
X825145Y417010D01*
X825144Y417006D01*
X825168Y416812D01*
X825191Y416615D01*
X825193Y416610D01*
X825193Y416606D01*
X825254Y416421D01*
X825316Y416232D01*
X825318Y416228D01*
X825320Y416224D01*
X825417Y416052D01*
X825514Y415881D01*
X825517Y415878D01*
X825519Y415874D01*
X825650Y415723D01*
X825777Y415577D01*
X825781Y415574D01*
X825784Y415570D01*
X825941Y415449D01*
X826095Y415330D01*
X826099Y415328D01*
X826103Y415325D01*
X826398Y415173D01*
X827227Y414830D01*
X830300Y411757D01*
X831963Y407743D01*
X831963Y403397D01*
X830300Y399383D01*
X827227Y396310D01*
X823453Y394747D01*
X823445Y394742D01*
X823436Y394740D01*
X823267Y394647D01*
X823098Y394556D01*
X823091Y394551D01*
X823083Y394546D01*
X822935Y394422D01*
X822787Y394300D01*
X822782Y394293D01*
X822775Y394287D01*
X822655Y394136D01*
X822534Y393987D01*
X822529Y393980D01*
X822524Y393972D01*
X822437Y393802D01*
X822347Y393631D01*
X822344Y393622D01*
X822340Y393614D01*
X822288Y393432D01*
X822233Y393244D01*
X822233Y393235D01*
X822230Y393227D01*
X822215Y393036D01*
X822199Y392843D01*
X822200Y392834D01*
X822199Y392826D01*
X822222Y392635D01*
X822244Y392443D01*
X822247Y392435D01*
X822248Y392426D01*
X822308Y392243D01*
X822367Y392060D01*
X822372Y392052D01*
X822374Y392044D01*
X822469Y391878D01*
X822564Y391708D01*
X822569Y391702D01*
X822574Y391694D01*
X822701Y391548D01*
X822825Y391403D01*
X822832Y391397D01*
X822838Y391390D01*
X822991Y391273D01*
X823142Y391154D01*
X823150Y391150D01*
X823157Y391145D01*
X823453Y390993D01*
X827227Y389430D01*
X830300Y386357D01*
X831963Y382343D01*
X831963Y377997D01*
X830300Y373983D01*
X827227Y370910D01*
X823453Y369347D01*
X823445Y369342D01*
X823436Y369340D01*
X823267Y369247D01*
X823098Y369156D01*
X823091Y369151D01*
X823083Y369146D01*
X822935Y369022D01*
X822787Y368900D01*
X822782Y368893D01*
X822775Y368887D01*
X822655Y368736D01*
X822534Y368587D01*
X822529Y368580D01*
X822524Y368572D01*
X822437Y368402D01*
X822347Y368231D01*
X822344Y368222D01*
X822340Y368214D01*
X822288Y368032D01*
X822233Y367844D01*
X822233Y367835D01*
X822230Y367827D01*
X822215Y367636D01*
X822199Y367443D01*
X822200Y367434D01*
X822199Y367426D01*
X822222Y367235D01*
X822244Y367043D01*
X822247Y367035D01*
X822248Y367026D01*
X822308Y366845D01*
X822367Y366660D01*
X822372Y366652D01*
X822374Y366644D01*
X822469Y366478D01*
X822564Y366308D01*
X822569Y366302D01*
X822574Y366294D01*
X822701Y366148D01*
X822825Y366003D01*
X822832Y365997D01*
X822838Y365990D01*
X822991Y365873D01*
X823142Y365754D01*
X823150Y365750D01*
X823157Y365745D01*
X823453Y365593D01*
X827227Y364030D01*
X830300Y360957D01*
X831963Y356943D01*
X831963Y352597D01*
X830300Y348583D01*
X827227Y345510D01*
X823453Y343947D01*
X823445Y343942D01*
X823436Y343940D01*
X823267Y343847D01*
X823098Y343756D01*
X823091Y343751D01*
X823083Y343746D01*
X822935Y343622D01*
X822787Y343500D01*
X822782Y343493D01*
X822775Y343487D01*
X822655Y343336D01*
X822534Y343187D01*
X822529Y343180D01*
X822524Y343172D01*
X822437Y343002D01*
X822347Y342831D01*
X822344Y342822D01*
X822340Y342814D01*
X822288Y342632D01*
X822233Y342444D01*
X822233Y342435D01*
X822230Y342427D01*
X822215Y342236D01*
X822199Y342043D01*
X822200Y342034D01*
X822199Y342026D01*
X822222Y341835D01*
X822244Y341643D01*
X822247Y341635D01*
X822248Y341626D01*
X822308Y341445D01*
X822367Y341260D01*
X822372Y341252D01*
X822374Y341244D01*
X822469Y341078D01*
X822564Y340908D01*
X822569Y340902D01*
X822574Y340894D01*
X822701Y340748D01*
X822825Y340603D01*
X822832Y340597D01*
X822838Y340590D01*
X822991Y340473D01*
X823142Y340354D01*
X823150Y340350D01*
X823157Y340345D01*
X823453Y340193D01*
X827227Y338630D01*
X830300Y335557D01*
X831963Y331543D01*
X831963Y327197D01*
X830300Y323183D01*
X827227Y320110D01*
X823453Y318547D01*
X823445Y318542D01*
X823436Y318540D01*
X823267Y318447D01*
X823098Y318356D01*
X823091Y318351D01*
X823083Y318346D01*
X822935Y318222D01*
X822787Y318100D01*
X822782Y318093D01*
X822775Y318087D01*
X822655Y317936D01*
X822534Y317787D01*
X822529Y317780D01*
X822524Y317772D01*
X822437Y317602D01*
X822347Y317431D01*
X822344Y317422D01*
X822340Y317414D01*
X822288Y317232D01*
X822233Y317044D01*
X822233Y317035D01*
X822230Y317027D01*
X822215Y316836D01*
X822199Y316643D01*
X822200Y316634D01*
X822199Y316626D01*
X822222Y316435D01*
X822244Y316243D01*
X822247Y316235D01*
X822248Y316226D01*
X822308Y316045D01*
X822367Y315860D01*
X822372Y315852D01*
X822374Y315844D01*
X822469Y315678D01*
X822564Y315508D01*
X822569Y315502D01*
X822574Y315494D01*
X822701Y315348D01*
X822825Y315203D01*
X822832Y315197D01*
X822838Y315190D01*
X822991Y315073D01*
X823142Y314954D01*
X823150Y314950D01*
X823157Y314945D01*
X823453Y314793D01*
X827227Y313230D01*
X830300Y310157D01*
X831963Y306143D01*
X831963Y301797D01*
X830300Y297783D01*
X827227Y294710D01*
X823453Y293147D01*
X823445Y293142D01*
X823436Y293140D01*
X823267Y293047D01*
X823098Y292956D01*
X823091Y292951D01*
X823083Y292946D01*
X822935Y292822D01*
X822787Y292700D01*
X822782Y292693D01*
X822775Y292687D01*
X822655Y292536D01*
X822534Y292387D01*
X822529Y292379D01*
X822524Y292372D01*
X822437Y292202D01*
X822347Y292031D01*
X822344Y292022D01*
X822340Y292014D01*
X822288Y291832D01*
X822233Y291644D01*
X822233Y291635D01*
X822230Y291627D01*
X822215Y291436D01*
X822199Y291243D01*
X822200Y291234D01*
X822199Y291226D01*
X822222Y291035D01*
X822244Y290843D01*
X822247Y290835D01*
X822248Y290826D01*
X822308Y290645D01*
X822367Y290460D01*
X822372Y290452D01*
X822374Y290444D01*
X822469Y290278D01*
X822564Y290108D01*
X822569Y290102D01*
X822574Y290094D01*
X822701Y289948D01*
X822825Y289803D01*
X822832Y289797D01*
X822838Y289790D01*
X822991Y289673D01*
X823142Y289554D01*
X823150Y289550D01*
X823157Y289545D01*
X823453Y289393D01*
X827227Y287830D01*
X830300Y284757D01*
X831963Y280743D01*
X831963Y276397D01*
X830300Y272383D01*
X827227Y269310D01*
X823453Y267747D01*
X823445Y267742D01*
X823436Y267740D01*
X823267Y267647D01*
X823098Y267556D01*
X823091Y267551D01*
X823083Y267546D01*
X822935Y267422D01*
X822787Y267300D01*
X822782Y267293D01*
X822775Y267287D01*
X822655Y267136D01*
X822534Y266987D01*
X822529Y266980D01*
X822524Y266972D01*
X822436Y266800D01*
X822347Y266631D01*
X822344Y266622D01*
X822340Y266614D01*
X822288Y266430D01*
X822233Y266244D01*
X822233Y266235D01*
X822230Y266227D01*
X822215Y266036D01*
X822199Y265843D01*
X822200Y265834D01*
X822199Y265826D01*
X822222Y265635D01*
X822244Y265443D01*
X822247Y265435D01*
X822248Y265426D01*
X822308Y265245D01*
X822367Y265060D01*
X822372Y265052D01*
X822374Y265044D01*
X822469Y264878D01*
X822564Y264708D01*
X822569Y264702D01*
X822574Y264694D01*
X822701Y264548D01*
X822825Y264403D01*
X822832Y264397D01*
X822838Y264390D01*
X822991Y264273D01*
X823142Y264154D01*
X823150Y264150D01*
X823157Y264145D01*
X823453Y263993D01*
X827227Y262430D01*
X830300Y259357D01*
X831963Y255343D01*
X831963Y250997D01*
X830300Y246983D01*
X827227Y243910D01*
X824066Y242601D01*
X824062Y242599D01*
X824057Y242597D01*
X823885Y242504D01*
X823711Y242410D01*
X823707Y242408D01*
X823703Y242405D01*
X823555Y242281D01*
X823400Y242154D01*
X823398Y242151D01*
X823394Y242148D01*
X823271Y241995D01*
X823147Y241841D01*
X823145Y241837D01*
X823142Y241834D01*
X823050Y241658D01*
X822960Y241485D01*
X822958Y241481D01*
X822956Y241477D01*
X822902Y241287D01*
X822847Y241098D01*
X822846Y241094D01*
X822845Y241090D01*
X822829Y240892D01*
X822812Y240697D01*
X822812Y240693D01*
X822812Y240688D01*
X822835Y240491D01*
X822857Y240297D01*
X822858Y240293D01*
X822859Y240289D01*
X822921Y240098D01*
X822980Y239914D01*
X822982Y239910D01*
X822984Y239906D01*
X823081Y239733D01*
X823177Y239562D01*
X823180Y239559D01*
X823182Y239555D01*
X823310Y239406D01*
X823438Y239257D01*
X823442Y239254D01*
X823445Y239250D01*
X823597Y239132D01*
X823755Y239008D01*
X823760Y239006D01*
X823763Y239004D01*
X823938Y238917D01*
X824115Y238828D01*
X824119Y238826D01*
X824124Y238824D01*
X824316Y238773D01*
X824504Y238721D01*
X824508Y238721D01*
X824512Y238720D01*
X824843Y238693D01*
X831070Y238693D01*
X831963Y237800D01*
X831963Y217740D01*
X831070Y216847D01*
X811010Y216847D01*
X810117Y217740D01*
X810117Y237800D01*
X811010Y238693D01*
X817237Y238693D01*
X817241Y238693D01*
X817246Y238693D01*
X817440Y238713D01*
X817638Y238733D01*
X817642Y238734D01*
X817646Y238734D01*
X817832Y238792D01*
X818023Y238851D01*
X818027Y238853D01*
X818031Y238854D01*
X818202Y238948D01*
X818377Y239043D01*
X818380Y239045D01*
X818384Y239048D01*
X818533Y239173D01*
X818686Y239300D01*
X818689Y239304D01*
X818692Y239307D01*
X818813Y239459D01*
X818938Y239614D01*
X818940Y239618D01*
X818943Y239621D01*
X819033Y239796D01*
X819124Y239971D01*
X819125Y239976D01*
X819127Y239980D01*
X819180Y240167D01*
X819235Y240358D01*
X819235Y240363D01*
X819237Y240367D01*
X819252Y240560D01*
X819268Y240760D01*
X819267Y240764D01*
X819268Y240768D01*
X819244Y240961D01*
X819221Y241159D01*
X819220Y241164D01*
X819219Y241168D01*
X819158Y241351D01*
X819096Y241542D01*
X819094Y241546D01*
X819093Y241550D01*
X818996Y241720D01*
X818898Y241893D01*
X818895Y241896D01*
X818893Y241900D01*
X818762Y242051D01*
X818635Y242197D01*
X818632Y242200D01*
X818629Y242204D01*
X818472Y242324D01*
X818317Y242444D01*
X818313Y242446D01*
X818309Y242449D01*
X818014Y242601D01*
X814853Y243910D01*
X811780Y246983D01*
X810117Y250997D01*
X810117Y255343D01*
X811780Y259357D01*
X814853Y262430D01*
X817771Y263639D01*
X818627Y263993D01*
X818635Y263998D01*
X818644Y264000D01*
X818813Y264093D01*
X818982Y264184D01*
X818989Y264189D01*
X818997Y264193D01*
X819145Y264318D01*
X819293Y264440D01*
X819298Y264447D01*
X819305Y264453D01*
X819426Y264604D01*
X819546Y264753D01*
X819551Y264760D01*
X819556Y264767D01*
X819645Y264940D01*
X819733Y265109D01*
X819736Y265118D01*
X819740Y265126D01*
X819793Y265311D01*
X819847Y265496D01*
X819847Y265504D01*
X819850Y265513D01*
X819865Y265704D01*
X819881Y265897D01*
X819880Y265906D01*
X819881Y265914D01*
X819857Y266107D01*
X819836Y266297D01*
X819833Y266305D01*
X819832Y266314D01*
X819771Y266499D01*
X819713Y266680D01*
X819709Y266688D01*
X819706Y266696D01*
X819610Y266864D01*
X819516Y267032D01*
X819511Y267038D01*
X819506Y267046D01*
X819380Y267191D01*
X819255Y267337D01*
X819248Y267343D01*
X819242Y267350D01*
X819089Y267467D01*
X818938Y267586D01*
X818930Y267590D01*
X818923Y267595D01*
X818627Y267747D01*
X815456Y269060D01*
X815435Y269067D01*
X815415Y269077D01*
X815242Y269125D01*
X815071Y269177D01*
X815048Y269179D01*
X815027Y269185D01*
X814848Y269198D01*
X814670Y269215D01*
X814648Y269213D01*
X814625Y269214D01*
X814447Y269192D01*
X814269Y269173D01*
X814248Y269167D01*
X814226Y269164D01*
X814056Y269107D01*
X813885Y269053D01*
X813865Y269043D01*
X813844Y269036D01*
X813689Y268946D01*
X813532Y268860D01*
X813515Y268846D01*
X813495Y268835D01*
X813242Y268620D01*
X803730Y259107D01*
X803713Y259087D01*
X803692Y259069D01*
X803585Y258931D01*
X803475Y258796D01*
X803462Y258772D01*
X803446Y258751D01*
X803368Y258594D01*
X803286Y258440D01*
X803278Y258415D01*
X803266Y258391D01*
X803221Y258221D01*
X803171Y258054D01*
X803169Y258028D01*
X803162Y258002D01*
X803135Y257671D01*
X803135Y208512D01*
X754198Y159575D01*
X361864Y159575D01*
X361837Y159573D01*
X361811Y159575D01*
X361637Y159553D01*
X361463Y159535D01*
X361438Y159528D01*
X361411Y159524D01*
X361245Y159468D01*
X361078Y159417D01*
X361055Y159404D01*
X361030Y159396D01*
X360878Y159309D01*
X360724Y159225D01*
X360704Y159208D01*
X360681Y159195D01*
X360428Y158980D01*
X356197Y154749D01*
X349883Y154749D01*
G37*
%LPD*%
%LPC*%
G36*
X92110Y506885D02*
X92110Y506885D01*
X86882Y509051D01*
X82881Y513052D01*
X80715Y518280D01*
X80715Y587770D01*
X82881Y592998D01*
X91942Y602059D01*
X97170Y604225D01*
X133267Y604225D01*
X133293Y604227D01*
X133320Y604225D01*
X133494Y604247D01*
X133667Y604265D01*
X133693Y604272D01*
X133719Y604276D01*
X133885Y604331D01*
X134052Y604383D01*
X134076Y604396D01*
X134101Y604404D01*
X134253Y604491D01*
X134406Y604575D01*
X134427Y604592D01*
X134450Y604605D01*
X134703Y604820D01*
X155180Y625297D01*
X155197Y625318D01*
X155218Y625335D01*
X155325Y625473D01*
X155435Y625609D01*
X155448Y625632D01*
X155464Y625653D01*
X155542Y625810D01*
X155624Y625964D01*
X155632Y625990D01*
X155644Y626014D01*
X155689Y626183D01*
X155739Y626350D01*
X155741Y626377D01*
X155748Y626403D01*
X155775Y626733D01*
X155775Y662830D01*
X157941Y668058D01*
X211612Y721729D01*
X216840Y723895D01*
X363607Y723895D01*
X363633Y723897D01*
X363660Y723895D01*
X363834Y723917D01*
X364007Y723935D01*
X364033Y723942D01*
X364059Y723946D01*
X364225Y724001D01*
X364392Y724053D01*
X364416Y724066D01*
X364441Y724074D01*
X364593Y724161D01*
X364746Y724245D01*
X364767Y724262D01*
X364790Y724275D01*
X365043Y724490D01*
X380267Y739714D01*
X380278Y739728D01*
X380292Y739739D01*
X380406Y739884D01*
X380522Y740025D01*
X380531Y740041D01*
X380542Y740055D01*
X380625Y740219D01*
X380711Y740381D01*
X380716Y740398D01*
X380724Y740414D01*
X380773Y740591D01*
X380826Y740767D01*
X380827Y740785D01*
X380832Y740802D01*
X380845Y740985D01*
X380862Y741168D01*
X380860Y741186D01*
X380861Y741204D01*
X380838Y741386D01*
X380819Y741568D01*
X380813Y741585D01*
X380811Y741603D01*
X380753Y741777D01*
X380697Y741952D01*
X380688Y741968D01*
X380683Y741985D01*
X380591Y742144D01*
X380502Y742304D01*
X380491Y742318D01*
X380482Y742334D01*
X380267Y742587D01*
X378815Y744038D01*
X378815Y795302D01*
X379708Y796195D01*
X480972Y796195D01*
X481865Y795302D01*
X481865Y744038D01*
X480972Y743145D01*
X424773Y743145D01*
X424747Y743143D01*
X424720Y743145D01*
X424546Y743123D01*
X424373Y743105D01*
X424347Y743098D01*
X424321Y743094D01*
X424155Y743039D01*
X423988Y742987D01*
X423964Y742974D01*
X423939Y742966D01*
X423787Y742879D01*
X423634Y742795D01*
X423613Y742778D01*
X423590Y742765D01*
X423337Y742550D01*
X378398Y697611D01*
X374458Y695979D01*
X373170Y695445D01*
X226403Y695445D01*
X226377Y695443D01*
X226350Y695445D01*
X226176Y695423D01*
X226003Y695405D01*
X225977Y695398D01*
X225951Y695394D01*
X225785Y695339D01*
X225618Y695287D01*
X225594Y695274D01*
X225569Y695266D01*
X225417Y695179D01*
X225264Y695095D01*
X225243Y695078D01*
X225220Y695065D01*
X224967Y694850D01*
X184820Y654703D01*
X184803Y654682D01*
X184782Y654665D01*
X184675Y654527D01*
X184565Y654391D01*
X184552Y654368D01*
X184536Y654347D01*
X184458Y654190D01*
X184376Y654036D01*
X184368Y654010D01*
X184356Y653986D01*
X184311Y653817D01*
X184261Y653650D01*
X184259Y653623D01*
X184252Y653597D01*
X184225Y653267D01*
X184225Y617170D01*
X182059Y611942D01*
X148058Y577941D01*
X142830Y575775D01*
X111196Y575775D01*
X111178Y575773D01*
X111160Y575775D01*
X110978Y575754D01*
X110795Y575735D01*
X110778Y575730D01*
X110761Y575728D01*
X110586Y575671D01*
X110410Y575617D01*
X110395Y575609D01*
X110378Y575603D01*
X110218Y575513D01*
X110056Y575425D01*
X110043Y575414D01*
X110027Y575405D01*
X109888Y575285D01*
X109747Y575168D01*
X109736Y575154D01*
X109722Y575142D01*
X109610Y574997D01*
X109495Y574854D01*
X109487Y574838D01*
X109476Y574824D01*
X109394Y574659D01*
X109309Y574497D01*
X109304Y574480D01*
X109296Y574464D01*
X109249Y574285D01*
X109198Y574110D01*
X109196Y574092D01*
X109192Y574075D01*
X109165Y573744D01*
X109165Y518280D01*
X106999Y513052D01*
X102998Y509051D01*
X98222Y507073D01*
X97770Y506885D01*
X92110Y506885D01*
G37*
%LPD*%
%LPC*%
G36*
X469436Y205125D02*
X469436Y205125D01*
X467766Y205817D01*
X466487Y207096D01*
X465795Y208766D01*
X465795Y210574D01*
X466487Y212244D01*
X467766Y213523D01*
X469436Y214215D01*
X471244Y214215D01*
X471537Y214093D01*
X471559Y214087D01*
X471579Y214077D01*
X471752Y214028D01*
X471923Y213977D01*
X471945Y213975D01*
X471967Y213969D01*
X472146Y213955D01*
X472324Y213939D01*
X472346Y213941D01*
X472368Y213939D01*
X472547Y213962D01*
X472724Y213980D01*
X472745Y213987D01*
X472768Y213990D01*
X472937Y214047D01*
X473108Y214100D01*
X473128Y214111D01*
X473149Y214118D01*
X473304Y214207D01*
X473462Y214293D01*
X473479Y214308D01*
X473498Y214319D01*
X473751Y214533D01*
X507451Y248234D01*
X507463Y248248D01*
X507476Y248259D01*
X507590Y248403D01*
X507706Y248545D01*
X507715Y248561D01*
X507726Y248575D01*
X507809Y248739D01*
X507895Y248901D01*
X507900Y248918D01*
X507908Y248934D01*
X507958Y249111D01*
X508010Y249287D01*
X508011Y249305D01*
X508016Y249322D01*
X508030Y249505D01*
X508046Y249688D01*
X508044Y249706D01*
X508046Y249723D01*
X508023Y249905D01*
X508003Y250088D01*
X507997Y250105D01*
X507995Y250123D01*
X507937Y250297D01*
X507881Y250472D01*
X507873Y250488D01*
X507867Y250504D01*
X507775Y250664D01*
X507686Y250824D01*
X507675Y250838D01*
X507666Y250853D01*
X507451Y251106D01*
X496527Y262030D01*
X496507Y262047D01*
X496489Y262068D01*
X496351Y262175D01*
X496216Y262285D01*
X496192Y262298D01*
X496171Y262314D01*
X496014Y262392D01*
X495860Y262474D01*
X495835Y262482D01*
X495811Y262494D01*
X495641Y262539D01*
X495474Y262589D01*
X495448Y262591D01*
X495422Y262598D01*
X495091Y262625D01*
X494436Y262625D01*
X492766Y263317D01*
X492302Y263780D01*
X492282Y263797D01*
X492264Y263818D01*
X492127Y263924D01*
X491991Y264035D01*
X491967Y264048D01*
X491946Y264064D01*
X491790Y264142D01*
X491635Y264224D01*
X491610Y264232D01*
X491586Y264244D01*
X491417Y264289D01*
X491249Y264339D01*
X491223Y264341D01*
X491197Y264348D01*
X490866Y264375D01*
X461682Y264375D01*
X349777Y376280D01*
X349757Y376297D01*
X349739Y376318D01*
X349601Y376425D01*
X349466Y376535D01*
X349442Y376548D01*
X349421Y376564D01*
X349264Y376642D01*
X349110Y376724D01*
X349085Y376732D01*
X349061Y376744D01*
X348891Y376789D01*
X348724Y376839D01*
X348698Y376841D01*
X348672Y376848D01*
X348341Y376875D01*
X329182Y376875D01*
X317545Y388512D01*
X317545Y515628D01*
X319777Y517860D01*
X327963Y526045D01*
X327977Y526062D01*
X327994Y526077D01*
X328104Y526218D01*
X328218Y526357D01*
X328228Y526376D01*
X328242Y526394D01*
X328323Y526554D01*
X328406Y526712D01*
X328413Y526734D01*
X328423Y526754D01*
X328470Y526927D01*
X328521Y527098D01*
X328523Y527120D01*
X328529Y527142D01*
X328541Y527321D01*
X328558Y527499D01*
X328555Y527521D01*
X328557Y527544D01*
X328534Y527721D01*
X328514Y527899D01*
X328508Y527921D01*
X328505Y527943D01*
X328403Y528259D01*
X327517Y530397D01*
X327517Y534743D01*
X329180Y538757D01*
X332253Y541830D01*
X336267Y543493D01*
X340613Y543493D01*
X344627Y541830D01*
X347700Y538757D01*
X348793Y536119D01*
X348803Y536099D01*
X348810Y536078D01*
X348898Y535922D01*
X348983Y535764D01*
X348997Y535747D01*
X349008Y535727D01*
X349125Y535592D01*
X349239Y535453D01*
X349257Y535439D01*
X349271Y535422D01*
X349413Y535313D01*
X349552Y535200D01*
X349572Y535189D01*
X349589Y535176D01*
X349750Y535096D01*
X349909Y535013D01*
X349930Y535006D01*
X349950Y534996D01*
X350124Y534950D01*
X350295Y534900D01*
X350317Y534898D01*
X350339Y534892D01*
X350669Y534865D01*
X358298Y534865D01*
X359935Y533228D01*
X359935Y480616D01*
X359937Y480590D01*
X359935Y480563D01*
X359957Y480389D01*
X359975Y480216D01*
X359982Y480190D01*
X359986Y480164D01*
X360041Y479998D01*
X360093Y479831D01*
X360106Y479807D01*
X360114Y479782D01*
X360201Y479630D01*
X360285Y479477D01*
X360302Y479456D01*
X360315Y479433D01*
X360530Y479180D01*
X375950Y463760D01*
X375957Y463754D01*
X375962Y463747D01*
X376112Y463627D01*
X376261Y463505D01*
X376269Y463501D01*
X376276Y463495D01*
X376446Y463407D01*
X376617Y463316D01*
X376626Y463314D01*
X376633Y463310D01*
X376818Y463256D01*
X377003Y463202D01*
X377012Y463201D01*
X377020Y463198D01*
X377212Y463183D01*
X377404Y463165D01*
X377413Y463166D01*
X377422Y463165D01*
X377611Y463188D01*
X377804Y463209D01*
X377813Y463211D01*
X377821Y463212D01*
X378003Y463272D01*
X378188Y463330D01*
X378196Y463334D01*
X378204Y463337D01*
X378373Y463432D01*
X378540Y463525D01*
X378547Y463531D01*
X378555Y463535D01*
X378701Y463661D01*
X378847Y463785D01*
X378853Y463792D01*
X378860Y463798D01*
X378977Y463950D01*
X379097Y464101D01*
X379101Y464109D01*
X379106Y464116D01*
X379192Y464288D01*
X379279Y464460D01*
X379282Y464469D01*
X379286Y464477D01*
X379336Y464663D01*
X379387Y464848D01*
X379388Y464857D01*
X379390Y464866D01*
X379417Y465196D01*
X379417Y474194D01*
X385816Y480593D01*
X394864Y480593D01*
X401604Y473853D01*
X401617Y473842D01*
X401629Y473828D01*
X401773Y473714D01*
X401915Y473598D01*
X401931Y473590D01*
X401945Y473579D01*
X402109Y473496D01*
X402271Y473410D01*
X402288Y473405D01*
X402304Y473396D01*
X402481Y473347D01*
X402657Y473295D01*
X402675Y473293D01*
X402692Y473288D01*
X402875Y473275D01*
X403058Y473258D01*
X403076Y473260D01*
X403093Y473259D01*
X403275Y473282D01*
X403458Y473302D01*
X403475Y473307D01*
X403493Y473310D01*
X403666Y473368D01*
X403842Y473423D01*
X403858Y473432D01*
X403874Y473438D01*
X404034Y473530D01*
X404194Y473618D01*
X404208Y473630D01*
X404223Y473639D01*
X404476Y473853D01*
X411216Y480593D01*
X420264Y480593D01*
X426663Y474194D01*
X426663Y465146D01*
X419923Y458406D01*
X419912Y458393D01*
X419898Y458381D01*
X419785Y458237D01*
X419668Y458095D01*
X419660Y458079D01*
X419649Y458065D01*
X419566Y457901D01*
X419480Y457739D01*
X419475Y457722D01*
X419466Y457706D01*
X419417Y457529D01*
X419365Y457353D01*
X419363Y457335D01*
X419358Y457318D01*
X419345Y457135D01*
X419328Y456952D01*
X419330Y456934D01*
X419329Y456917D01*
X419352Y456735D01*
X419372Y456552D01*
X419377Y456535D01*
X419380Y456517D01*
X419438Y456344D01*
X419493Y456168D01*
X419502Y456152D01*
X419508Y456136D01*
X419600Y455976D01*
X419688Y455816D01*
X419700Y455802D01*
X419709Y455787D01*
X419923Y455534D01*
X426663Y448794D01*
X426663Y440968D01*
X426665Y440950D01*
X426663Y440932D01*
X426684Y440750D01*
X426703Y440567D01*
X426708Y440550D01*
X426710Y440533D01*
X426767Y440357D01*
X426821Y440182D01*
X426829Y440167D01*
X426835Y440150D01*
X426925Y439990D01*
X427013Y439828D01*
X427024Y439815D01*
X427033Y439799D01*
X427153Y439660D01*
X427270Y439519D01*
X427284Y439508D01*
X427296Y439494D01*
X427441Y439382D01*
X427584Y439267D01*
X427600Y439259D01*
X427614Y439248D01*
X427779Y439166D01*
X427941Y439081D01*
X427958Y439076D01*
X427974Y439068D01*
X428153Y439021D01*
X428328Y438970D01*
X428346Y438968D01*
X428363Y438964D01*
X428694Y438937D01*
X463248Y438937D01*
X479125Y423060D01*
X479146Y423043D01*
X479163Y423022D01*
X479301Y422915D01*
X479437Y422805D01*
X479460Y422792D01*
X479481Y422776D01*
X479638Y422698D01*
X479792Y422616D01*
X479818Y422608D01*
X479842Y422596D01*
X480011Y422551D01*
X480178Y422501D01*
X480205Y422499D01*
X480231Y422492D01*
X480561Y422465D01*
X481498Y422465D01*
X483135Y420828D01*
X483135Y418456D01*
X483122Y418432D01*
X483106Y418411D01*
X483028Y418254D01*
X482946Y418100D01*
X482938Y418075D01*
X482926Y418051D01*
X482881Y417881D01*
X482831Y417714D01*
X482829Y417688D01*
X482822Y417662D01*
X482795Y417331D01*
X482795Y417172D01*
X475980Y410357D01*
X475963Y410337D01*
X475942Y410319D01*
X475835Y410181D01*
X475725Y410046D01*
X475712Y410022D01*
X475696Y410001D01*
X475618Y409844D01*
X475536Y409690D01*
X475528Y409665D01*
X475516Y409641D01*
X475471Y409471D01*
X475421Y409304D01*
X475419Y409278D01*
X475412Y409252D01*
X475385Y408921D01*
X475385Y408266D01*
X474693Y406596D01*
X473414Y405317D01*
X471744Y404625D01*
X469936Y404625D01*
X468266Y405317D01*
X466987Y406596D01*
X466295Y408266D01*
X466295Y410074D01*
X466987Y411744D01*
X467976Y412734D01*
X467988Y412747D01*
X468001Y412759D01*
X468115Y412903D01*
X468232Y413045D01*
X468240Y413061D01*
X468251Y413075D01*
X468334Y413239D01*
X468420Y413401D01*
X468425Y413418D01*
X468433Y413434D01*
X468483Y413611D01*
X468535Y413787D01*
X468537Y413805D01*
X468541Y413822D01*
X468555Y414005D01*
X468571Y414188D01*
X468569Y414206D01*
X468571Y414223D01*
X468548Y414405D01*
X468528Y414588D01*
X468523Y414605D01*
X468520Y414623D01*
X468462Y414796D01*
X468406Y414972D01*
X468398Y414988D01*
X468392Y415004D01*
X468301Y415163D01*
X468212Y415324D01*
X468200Y415338D01*
X468191Y415353D01*
X467976Y415606D01*
X467302Y416280D01*
X467282Y416297D01*
X467264Y416318D01*
X467126Y416425D01*
X466991Y416535D01*
X466967Y416548D01*
X466946Y416564D01*
X466789Y416642D01*
X466635Y416724D01*
X466610Y416732D01*
X466586Y416744D01*
X466416Y416789D01*
X466249Y416839D01*
X466223Y416841D01*
X466197Y416848D01*
X465866Y416875D01*
X459466Y416875D01*
X459457Y416874D01*
X459448Y416875D01*
X459256Y416854D01*
X459065Y416835D01*
X459057Y416833D01*
X459048Y416832D01*
X458865Y416774D01*
X458680Y416717D01*
X458672Y416713D01*
X458664Y416710D01*
X458496Y416617D01*
X458326Y416525D01*
X458319Y416520D01*
X458312Y416515D01*
X458164Y416390D01*
X458017Y416268D01*
X458011Y416261D01*
X458005Y416255D01*
X457885Y416103D01*
X457765Y415954D01*
X457761Y415946D01*
X457755Y415939D01*
X457668Y415767D01*
X457579Y415597D01*
X457577Y415588D01*
X457573Y415580D01*
X457521Y415394D01*
X457468Y415210D01*
X457467Y415201D01*
X457465Y415192D01*
X457451Y415000D01*
X457435Y414808D01*
X457436Y414800D01*
X457435Y414791D01*
X457460Y414598D01*
X457482Y414409D01*
X457485Y414400D01*
X457486Y414391D01*
X457547Y414208D01*
X457607Y414026D01*
X457611Y414018D01*
X457614Y414010D01*
X457709Y413844D01*
X457805Y413675D01*
X457810Y413668D01*
X457815Y413661D01*
X458030Y413408D01*
X459193Y412244D01*
X459885Y410574D01*
X459885Y408766D01*
X459193Y407096D01*
X457914Y405817D01*
X456244Y405125D01*
X454436Y405125D01*
X452766Y405817D01*
X452302Y406280D01*
X452282Y406297D01*
X452264Y406318D01*
X452126Y406425D01*
X451991Y406535D01*
X451967Y406548D01*
X451946Y406564D01*
X451789Y406642D01*
X451635Y406724D01*
X451610Y406732D01*
X451586Y406744D01*
X451416Y406789D01*
X451249Y406839D01*
X451223Y406841D01*
X451197Y406848D01*
X450866Y406875D01*
X425781Y406875D01*
X425755Y406873D01*
X425728Y406875D01*
X425554Y406853D01*
X425380Y406835D01*
X425355Y406828D01*
X425328Y406824D01*
X425163Y406769D01*
X424996Y406717D01*
X424972Y406705D01*
X424947Y406696D01*
X424795Y406609D01*
X424642Y406525D01*
X424621Y406508D01*
X424598Y406495D01*
X424345Y406280D01*
X423997Y405932D01*
X423991Y405925D01*
X423984Y405920D01*
X423864Y405770D01*
X423742Y405621D01*
X423737Y405613D01*
X423732Y405606D01*
X423644Y405436D01*
X423553Y405265D01*
X423551Y405257D01*
X423546Y405249D01*
X423493Y405063D01*
X423438Y404879D01*
X423437Y404870D01*
X423435Y404862D01*
X423419Y404668D01*
X423402Y404478D01*
X423403Y404469D01*
X423402Y404460D01*
X423424Y404270D01*
X423445Y404078D01*
X423448Y404069D01*
X423449Y404061D01*
X423508Y403878D01*
X423567Y403694D01*
X423571Y403686D01*
X423574Y403678D01*
X423668Y403511D01*
X423762Y403342D01*
X423767Y403335D01*
X423772Y403327D01*
X423897Y403182D01*
X424022Y403035D01*
X424029Y403029D01*
X424035Y403022D01*
X424186Y402905D01*
X424338Y402785D01*
X424346Y402781D01*
X424353Y402776D01*
X424525Y402690D01*
X424697Y402603D01*
X424706Y402600D01*
X424714Y402596D01*
X424901Y402546D01*
X425085Y402495D01*
X425094Y402494D01*
X425102Y402492D01*
X425433Y402465D01*
X441516Y402465D01*
X450711Y393270D01*
X450814Y393149D01*
X480903Y363060D01*
X480923Y363043D01*
X480941Y363022D01*
X481079Y362915D01*
X481214Y362805D01*
X481238Y362792D01*
X481259Y362776D01*
X481416Y362698D01*
X481570Y362616D01*
X481595Y362608D01*
X481619Y362596D01*
X481789Y362551D01*
X481956Y362501D01*
X481982Y362499D01*
X482008Y362492D01*
X482339Y362465D01*
X506498Y362465D01*
X509153Y359810D01*
X509173Y359793D01*
X509191Y359772D01*
X509329Y359665D01*
X509464Y359555D01*
X509488Y359542D01*
X509509Y359526D01*
X509666Y359448D01*
X509820Y359366D01*
X509845Y359358D01*
X509869Y359346D01*
X510039Y359301D01*
X510206Y359251D01*
X510232Y359249D01*
X510258Y359242D01*
X510589Y359215D01*
X511244Y359215D01*
X512914Y358523D01*
X514193Y357244D01*
X514885Y355574D01*
X514885Y353766D01*
X514193Y352096D01*
X512914Y350817D01*
X511244Y350125D01*
X509436Y350125D01*
X507766Y350817D01*
X506487Y352096D01*
X505795Y353766D01*
X505795Y354421D01*
X505793Y354448D01*
X505795Y354474D01*
X505773Y354648D01*
X505755Y354822D01*
X505748Y354847D01*
X505744Y354874D01*
X505689Y355039D01*
X505637Y355207D01*
X505624Y355230D01*
X505616Y355255D01*
X505529Y355407D01*
X505445Y355561D01*
X505428Y355581D01*
X505415Y355604D01*
X505200Y355857D01*
X504777Y356280D01*
X504757Y356297D01*
X504739Y356318D01*
X504601Y356425D01*
X504466Y356535D01*
X504442Y356548D01*
X504421Y356564D01*
X504264Y356642D01*
X504110Y356724D01*
X504085Y356732D01*
X504061Y356744D01*
X503891Y356789D01*
X503724Y356839D01*
X503698Y356841D01*
X503672Y356848D01*
X503341Y356875D01*
X479182Y356875D01*
X476602Y359455D01*
X476595Y359461D01*
X476590Y359468D01*
X476440Y359588D01*
X476291Y359710D01*
X476283Y359715D01*
X476276Y359720D01*
X476106Y359809D01*
X475935Y359899D01*
X475926Y359902D01*
X475919Y359906D01*
X475734Y359959D01*
X475549Y360014D01*
X475540Y360015D01*
X475532Y360017D01*
X475341Y360033D01*
X475148Y360050D01*
X475139Y360049D01*
X475130Y360050D01*
X474941Y360028D01*
X474748Y360007D01*
X474739Y360004D01*
X474731Y360003D01*
X474549Y359944D01*
X474364Y359885D01*
X474356Y359881D01*
X474348Y359878D01*
X474179Y359783D01*
X474012Y359691D01*
X474005Y359685D01*
X473997Y359680D01*
X473851Y359554D01*
X473705Y359430D01*
X473699Y359423D01*
X473692Y359417D01*
X473575Y359266D01*
X473455Y359114D01*
X473451Y359106D01*
X473446Y359099D01*
X473360Y358927D01*
X473273Y358755D01*
X473270Y358747D01*
X473266Y358739D01*
X473216Y358553D01*
X473165Y358367D01*
X473164Y358358D01*
X473162Y358350D01*
X473135Y358019D01*
X473135Y344144D01*
X473137Y344117D01*
X473135Y344091D01*
X473157Y343917D01*
X473175Y343743D01*
X473182Y343718D01*
X473186Y343691D01*
X473241Y343525D01*
X473293Y343358D01*
X473306Y343335D01*
X473314Y343309D01*
X473401Y343158D01*
X473485Y343004D01*
X473502Y342984D01*
X473515Y342961D01*
X473730Y342708D01*
X474193Y342244D01*
X474885Y340574D01*
X474885Y338766D01*
X474193Y337096D01*
X472914Y335817D01*
X471244Y335125D01*
X469436Y335125D01*
X467766Y335817D01*
X466487Y337096D01*
X465795Y338766D01*
X465795Y340574D01*
X466487Y342244D01*
X466950Y342708D01*
X466967Y342728D01*
X466988Y342746D01*
X467095Y342884D01*
X467205Y343019D01*
X467218Y343043D01*
X467234Y343064D01*
X467312Y343221D01*
X467394Y343375D01*
X467402Y343400D01*
X467414Y343424D01*
X467459Y343594D01*
X467509Y343761D01*
X467511Y343787D01*
X467518Y343813D01*
X467545Y344144D01*
X467545Y357671D01*
X467543Y357698D01*
X467545Y357724D01*
X467523Y357898D01*
X467505Y358072D01*
X467498Y358097D01*
X467494Y358124D01*
X467439Y358289D01*
X467387Y358457D01*
X467374Y358480D01*
X467366Y358505D01*
X467279Y358657D01*
X467195Y358811D01*
X467178Y358831D01*
X467165Y358854D01*
X466950Y359107D01*
X441527Y384530D01*
X441507Y384547D01*
X441489Y384568D01*
X441351Y384675D01*
X441216Y384785D01*
X441192Y384798D01*
X441171Y384814D01*
X441014Y384892D01*
X440860Y384974D01*
X440835Y384982D01*
X440811Y384994D01*
X440641Y385039D01*
X440474Y385089D01*
X440448Y385091D01*
X440422Y385098D01*
X440091Y385125D01*
X439436Y385125D01*
X437766Y385817D01*
X436487Y387096D01*
X435795Y388766D01*
X435795Y390574D01*
X436487Y392244D01*
X437650Y393408D01*
X437656Y393415D01*
X437663Y393420D01*
X437784Y393571D01*
X437906Y393719D01*
X437910Y393727D01*
X437915Y393734D01*
X438004Y393904D01*
X438094Y394075D01*
X438097Y394084D01*
X438101Y394091D01*
X438154Y394276D01*
X438209Y394461D01*
X438210Y394470D01*
X438212Y394478D01*
X438228Y394669D01*
X438245Y394862D01*
X438244Y394871D01*
X438245Y394880D01*
X438223Y395069D01*
X438202Y395262D01*
X438199Y395271D01*
X438198Y395279D01*
X438139Y395461D01*
X438080Y395646D01*
X438076Y395654D01*
X438073Y395662D01*
X437979Y395829D01*
X437886Y395998D01*
X437880Y396005D01*
X437875Y396013D01*
X437750Y396158D01*
X437625Y396305D01*
X437618Y396311D01*
X437612Y396318D01*
X437462Y396434D01*
X437309Y396555D01*
X437301Y396559D01*
X437294Y396564D01*
X437124Y396649D01*
X436950Y396737D01*
X436942Y396740D01*
X436934Y396744D01*
X436748Y396793D01*
X436562Y396845D01*
X436553Y396846D01*
X436545Y396848D01*
X436214Y396875D01*
X404474Y396875D01*
X404447Y396873D01*
X404421Y396875D01*
X404247Y396853D01*
X404073Y396835D01*
X404048Y396827D01*
X404021Y396824D01*
X403856Y396769D01*
X403688Y396717D01*
X403665Y396704D01*
X403639Y396696D01*
X403488Y396609D01*
X403334Y396525D01*
X403314Y396508D01*
X403291Y396495D01*
X403038Y396280D01*
X402574Y395817D01*
X401456Y395354D01*
X400904Y395125D01*
X399096Y395125D01*
X397426Y395817D01*
X396962Y396280D01*
X396942Y396297D01*
X396924Y396318D01*
X396787Y396424D01*
X396651Y396535D01*
X396627Y396548D01*
X396606Y396564D01*
X396450Y396642D01*
X396295Y396724D01*
X396270Y396732D01*
X396246Y396744D01*
X396077Y396789D01*
X395909Y396839D01*
X395883Y396841D01*
X395857Y396848D01*
X395526Y396875D01*
X379182Y396875D01*
X367545Y408512D01*
X367545Y457671D01*
X367543Y457698D01*
X367545Y457724D01*
X367523Y457898D01*
X367505Y458072D01*
X367498Y458097D01*
X367494Y458124D01*
X367439Y458289D01*
X367387Y458457D01*
X367374Y458480D01*
X367366Y458505D01*
X367279Y458657D01*
X367195Y458811D01*
X367178Y458831D01*
X367165Y458854D01*
X366950Y459107D01*
X350524Y475534D01*
X350510Y475545D01*
X350498Y475559D01*
X350355Y475672D01*
X350212Y475789D01*
X350196Y475797D01*
X350182Y475808D01*
X350018Y475892D01*
X349856Y475978D01*
X349839Y475983D01*
X349823Y475991D01*
X349646Y476040D01*
X349471Y476092D01*
X349453Y476094D01*
X349436Y476099D01*
X349252Y476112D01*
X349070Y476129D01*
X349052Y476127D01*
X349034Y476128D01*
X348852Y476105D01*
X348669Y476085D01*
X348652Y476080D01*
X348635Y476078D01*
X348461Y476019D01*
X348285Y475964D01*
X348270Y475955D01*
X348253Y475950D01*
X348093Y475858D01*
X347933Y475769D01*
X347920Y475758D01*
X347904Y475749D01*
X347651Y475534D01*
X344627Y472510D01*
X342141Y471480D01*
X342063Y471438D01*
X341980Y471405D01*
X341886Y471344D01*
X341786Y471290D01*
X341718Y471234D01*
X341644Y471185D01*
X341563Y471106D01*
X341476Y471034D01*
X341420Y470965D01*
X341357Y470903D01*
X341293Y470809D01*
X341222Y470721D01*
X341181Y470643D01*
X341131Y470569D01*
X341088Y470465D01*
X341035Y470365D01*
X341010Y470280D01*
X340976Y470198D01*
X340954Y470087D01*
X340922Y469978D01*
X340914Y469890D01*
X340897Y469803D01*
X340897Y469690D01*
X340887Y469577D01*
X340897Y469489D01*
X340897Y469400D01*
X340920Y469289D01*
X340933Y469177D01*
X340960Y469092D01*
X340977Y469006D01*
X341021Y468901D01*
X341056Y468794D01*
X341099Y468716D01*
X341133Y468634D01*
X341197Y468541D01*
X341252Y468442D01*
X341310Y468375D01*
X341360Y468301D01*
X341440Y468222D01*
X341514Y468136D01*
X341584Y468082D01*
X341647Y468020D01*
X341742Y467958D01*
X341831Y467888D01*
X341910Y467848D01*
X341985Y467800D01*
X342115Y467745D01*
X342191Y467707D01*
X342235Y467695D01*
X342291Y467672D01*
X343023Y467434D01*
X344697Y466581D01*
X346218Y465476D01*
X347546Y464148D01*
X348651Y462627D01*
X349504Y460953D01*
X350085Y459166D01*
X350125Y458909D01*
X338948Y458909D01*
X338930Y458907D01*
X338913Y458909D01*
X338730Y458888D01*
X338548Y458869D01*
X338531Y458864D01*
X338513Y458862D01*
X338338Y458805D01*
X338163Y458751D01*
X338147Y458743D01*
X338130Y458737D01*
X337970Y458647D01*
X337809Y458559D01*
X337795Y458548D01*
X337779Y458539D01*
X337640Y458419D01*
X337499Y458302D01*
X337488Y458288D01*
X337475Y458276D01*
X337362Y458131D01*
X337247Y457988D01*
X337239Y457972D01*
X337228Y457958D01*
X337146Y457793D01*
X337106Y457717D01*
X336954Y457631D01*
X336792Y457543D01*
X336779Y457532D01*
X336763Y457523D01*
X336624Y457403D01*
X336483Y457285D01*
X336472Y457272D01*
X336458Y457260D01*
X336346Y457115D01*
X336231Y456972D01*
X336223Y456956D01*
X336212Y456942D01*
X336130Y456777D01*
X336045Y456614D01*
X336040Y456597D01*
X336032Y456581D01*
X335984Y456403D01*
X335934Y456228D01*
X335932Y456210D01*
X335928Y456193D01*
X335901Y455862D01*
X335901Y431478D01*
X335902Y431460D01*
X335901Y431443D01*
X335922Y431260D01*
X335941Y431078D01*
X335946Y431061D01*
X335948Y431043D01*
X336005Y430868D01*
X336059Y430693D01*
X336067Y430677D01*
X336073Y430660D01*
X336163Y430500D01*
X336250Y430339D01*
X336262Y430325D01*
X336271Y430309D01*
X336391Y430170D01*
X336508Y430029D01*
X336522Y430018D01*
X336534Y430005D01*
X336679Y429892D01*
X336822Y429777D01*
X336838Y429769D01*
X336852Y429758D01*
X337017Y429676D01*
X337093Y429636D01*
X337179Y429484D01*
X337267Y429322D01*
X337278Y429309D01*
X337287Y429293D01*
X337407Y429154D01*
X337525Y429013D01*
X337538Y429002D01*
X337550Y428988D01*
X337695Y428876D01*
X337838Y428761D01*
X337854Y428753D01*
X337868Y428742D01*
X338033Y428660D01*
X338196Y428575D01*
X338213Y428570D01*
X338229Y428562D01*
X338407Y428514D01*
X338582Y428464D01*
X338600Y428462D01*
X338617Y428458D01*
X338948Y428431D01*
X350125Y428431D01*
X350085Y428174D01*
X349504Y426387D01*
X348651Y424713D01*
X347546Y423192D01*
X346218Y421864D01*
X344697Y420759D01*
X343023Y419906D01*
X342291Y419668D01*
X342209Y419632D01*
X342125Y419606D01*
X342026Y419552D01*
X341922Y419506D01*
X341849Y419455D01*
X341772Y419413D01*
X341685Y419340D01*
X341593Y419275D01*
X341531Y419211D01*
X341463Y419154D01*
X341393Y419065D01*
X341315Y418983D01*
X341268Y418908D01*
X341212Y418839D01*
X341161Y418738D01*
X341101Y418643D01*
X341069Y418560D01*
X341029Y418481D01*
X340998Y418372D01*
X340958Y418266D01*
X340943Y418179D01*
X340919Y418093D01*
X340910Y417981D01*
X340892Y417869D01*
X340895Y417780D01*
X340888Y417692D01*
X340901Y417580D01*
X340905Y417467D01*
X340926Y417380D01*
X340936Y417292D01*
X340972Y417185D01*
X340998Y417075D01*
X341035Y416994D01*
X341063Y416910D01*
X341119Y416812D01*
X341166Y416709D01*
X341218Y416637D01*
X341262Y416560D01*
X341336Y416475D01*
X341403Y416384D01*
X341469Y416324D01*
X341527Y416257D01*
X341616Y416188D01*
X341700Y416111D01*
X341776Y416065D01*
X341846Y416011D01*
X341972Y415947D01*
X342044Y415903D01*
X342087Y415887D01*
X342141Y415860D01*
X344627Y414830D01*
X347700Y411757D01*
X349363Y407743D01*
X349363Y403397D01*
X347700Y399383D01*
X344627Y396310D01*
X340613Y394647D01*
X336267Y394647D01*
X332253Y396310D01*
X329180Y399383D01*
X327517Y403397D01*
X327517Y407743D01*
X329180Y411757D01*
X332253Y414830D01*
X334739Y415860D01*
X334817Y415902D01*
X334900Y415935D01*
X334994Y415997D01*
X335094Y416050D01*
X335162Y416106D01*
X335237Y416155D01*
X335317Y416234D01*
X335404Y416306D01*
X335460Y416375D01*
X335523Y416438D01*
X335587Y416531D01*
X335658Y416619D01*
X335699Y416697D01*
X335749Y416771D01*
X335792Y416875D01*
X335845Y416975D01*
X335870Y417061D01*
X335904Y417143D01*
X335926Y417253D01*
X335958Y417362D01*
X335966Y417450D01*
X335983Y417537D01*
X335983Y417651D01*
X335993Y417763D01*
X335983Y417851D01*
X335983Y417940D01*
X335960Y418051D01*
X335947Y418163D01*
X335920Y418248D01*
X335903Y418335D01*
X335859Y418439D01*
X335824Y418546D01*
X335781Y418624D01*
X335747Y418706D01*
X335683Y418799D01*
X335628Y418898D01*
X335570Y418965D01*
X335520Y419039D01*
X335440Y419118D01*
X335366Y419204D01*
X335296Y419258D01*
X335233Y419321D01*
X335138Y419382D01*
X335049Y419452D01*
X334970Y419492D01*
X334895Y419540D01*
X334765Y419595D01*
X334689Y419633D01*
X334645Y419645D01*
X334589Y419668D01*
X333857Y419906D01*
X332183Y420759D01*
X330662Y421864D01*
X329334Y423192D01*
X328229Y424713D01*
X327376Y426387D01*
X327098Y427243D01*
X327064Y427320D01*
X327039Y427401D01*
X326983Y427504D01*
X326936Y427612D01*
X326888Y427681D01*
X326847Y427755D01*
X326772Y427845D01*
X326705Y427941D01*
X326644Y428000D01*
X326590Y428064D01*
X326498Y428138D01*
X326413Y428219D01*
X326342Y428264D01*
X326276Y428317D01*
X326172Y428371D01*
X326072Y428433D01*
X325993Y428463D01*
X325919Y428502D01*
X325806Y428535D01*
X325696Y428576D01*
X325613Y428590D01*
X325532Y428614D01*
X325415Y428623D01*
X325299Y428642D01*
X325215Y428640D01*
X325130Y428646D01*
X325014Y428633D01*
X324896Y428629D01*
X324814Y428609D01*
X324731Y428600D01*
X324619Y428563D01*
X324505Y428536D01*
X324428Y428501D01*
X324348Y428475D01*
X324245Y428417D01*
X324139Y428368D01*
X324071Y428318D01*
X323997Y428277D01*
X323908Y428200D01*
X323813Y428131D01*
X323756Y428069D01*
X323692Y428014D01*
X323621Y427921D01*
X323541Y427834D01*
X323497Y427762D01*
X323446Y427696D01*
X323393Y427590D01*
X323333Y427490D01*
X323304Y427411D01*
X323266Y427335D01*
X323236Y427222D01*
X323196Y427111D01*
X323184Y427028D01*
X323162Y426946D01*
X323150Y426798D01*
X323137Y426713D01*
X323139Y426671D01*
X323135Y426616D01*
X323135Y391669D01*
X323137Y391642D01*
X323135Y391616D01*
X323157Y391442D01*
X323175Y391268D01*
X323182Y391243D01*
X323186Y391216D01*
X323241Y391051D01*
X323293Y390883D01*
X323306Y390860D01*
X323314Y390835D01*
X323401Y390683D01*
X323485Y390529D01*
X323502Y390509D01*
X323515Y390486D01*
X323730Y390233D01*
X330903Y383060D01*
X330923Y383043D01*
X330941Y383022D01*
X331079Y382915D01*
X331214Y382805D01*
X331238Y382792D01*
X331259Y382776D01*
X331416Y382698D01*
X331570Y382616D01*
X331595Y382608D01*
X331619Y382596D01*
X331789Y382551D01*
X331956Y382501D01*
X331982Y382499D01*
X332008Y382492D01*
X332339Y382465D01*
X351498Y382465D01*
X463403Y270560D01*
X463423Y270543D01*
X463441Y270522D01*
X463579Y270415D01*
X463714Y270305D01*
X463738Y270292D01*
X463759Y270276D01*
X463916Y270198D01*
X464070Y270116D01*
X464095Y270108D01*
X464119Y270096D01*
X464289Y270051D01*
X464456Y270001D01*
X464482Y269999D01*
X464508Y269992D01*
X464839Y269965D01*
X490866Y269965D01*
X490893Y269967D01*
X490919Y269965D01*
X491093Y269987D01*
X491267Y270005D01*
X491292Y270013D01*
X491319Y270016D01*
X491484Y270071D01*
X491652Y270123D01*
X491675Y270136D01*
X491701Y270144D01*
X491852Y270231D01*
X492006Y270315D01*
X492026Y270332D01*
X492049Y270345D01*
X492302Y270560D01*
X492766Y271023D01*
X494436Y271715D01*
X496244Y271715D01*
X497914Y271023D01*
X499193Y269744D01*
X499885Y268074D01*
X499885Y267419D01*
X499887Y267392D01*
X499885Y267366D01*
X499907Y267192D01*
X499925Y267018D01*
X499932Y266993D01*
X499936Y266966D01*
X499992Y266800D01*
X500043Y266633D01*
X500056Y266610D01*
X500064Y266585D01*
X500151Y266433D01*
X500235Y266279D01*
X500252Y266259D01*
X500265Y266236D01*
X500480Y265983D01*
X507328Y259135D01*
X507335Y259129D01*
X507340Y259122D01*
X507490Y259002D01*
X507639Y258880D01*
X507647Y258875D01*
X507654Y258870D01*
X507824Y258781D01*
X507995Y258691D01*
X508004Y258688D01*
X508011Y258684D01*
X508196Y258631D01*
X508381Y258576D01*
X508390Y258575D01*
X508398Y258573D01*
X508590Y258557D01*
X508782Y258540D01*
X508791Y258541D01*
X508800Y258540D01*
X508989Y258562D01*
X509182Y258583D01*
X509191Y258586D01*
X509199Y258587D01*
X509381Y258646D01*
X509566Y258705D01*
X509574Y258709D01*
X509582Y258712D01*
X509751Y258807D01*
X509918Y258899D01*
X509925Y258905D01*
X509933Y258910D01*
X510079Y259036D01*
X510225Y259160D01*
X510231Y259167D01*
X510238Y259173D01*
X510355Y259324D01*
X510475Y259476D01*
X510479Y259484D01*
X510484Y259491D01*
X510570Y259663D01*
X510657Y259835D01*
X510660Y259843D01*
X510664Y259851D01*
X510714Y260038D01*
X510765Y260223D01*
X510766Y260232D01*
X510768Y260240D01*
X510795Y260571D01*
X510795Y260574D01*
X511487Y262244D01*
X512766Y263523D01*
X514436Y264215D01*
X516244Y264215D01*
X517914Y263523D01*
X518378Y263060D01*
X518398Y263043D01*
X518416Y263022D01*
X518554Y262915D01*
X518689Y262805D01*
X518713Y262792D01*
X518734Y262776D01*
X518891Y262698D01*
X519045Y262616D01*
X519070Y262608D01*
X519094Y262596D01*
X519264Y262551D01*
X519431Y262501D01*
X519457Y262499D01*
X519483Y262492D01*
X519814Y262465D01*
X545866Y262465D01*
X545893Y262467D01*
X545919Y262465D01*
X546093Y262487D01*
X546267Y262505D01*
X546292Y262512D01*
X546319Y262516D01*
X546485Y262571D01*
X546652Y262623D01*
X546675Y262636D01*
X546701Y262644D01*
X546852Y262731D01*
X547006Y262815D01*
X547026Y262832D01*
X547049Y262845D01*
X547302Y263060D01*
X547766Y263523D01*
X549436Y264215D01*
X551244Y264215D01*
X552914Y263523D01*
X554193Y262244D01*
X554885Y260574D01*
X554885Y258766D01*
X554193Y257096D01*
X553030Y255932D01*
X553024Y255925D01*
X553017Y255920D01*
X552896Y255769D01*
X552774Y255621D01*
X552770Y255613D01*
X552765Y255606D01*
X552676Y255436D01*
X552586Y255265D01*
X552583Y255256D01*
X552579Y255249D01*
X552526Y255064D01*
X552471Y254879D01*
X552470Y254870D01*
X552468Y254862D01*
X552452Y254671D01*
X552435Y254478D01*
X552436Y254469D01*
X552435Y254460D01*
X552457Y254271D01*
X552478Y254078D01*
X552481Y254069D01*
X552482Y254061D01*
X552541Y253879D01*
X552600Y253694D01*
X552604Y253686D01*
X552607Y253678D01*
X552701Y253511D01*
X552794Y253342D01*
X552800Y253335D01*
X552805Y253327D01*
X552930Y253182D01*
X553055Y253035D01*
X553062Y253029D01*
X553068Y253022D01*
X553218Y252906D01*
X553371Y252785D01*
X553379Y252781D01*
X553386Y252776D01*
X553556Y252691D01*
X553730Y252603D01*
X553738Y252600D01*
X553746Y252596D01*
X553932Y252547D01*
X554118Y252495D01*
X554127Y252494D01*
X554135Y252492D01*
X554466Y252465D01*
X555866Y252465D01*
X555893Y252467D01*
X555919Y252465D01*
X556093Y252487D01*
X556267Y252505D01*
X556292Y252512D01*
X556319Y252516D01*
X556485Y252571D01*
X556652Y252623D01*
X556675Y252636D01*
X556701Y252644D01*
X556852Y252731D01*
X557006Y252815D01*
X557026Y252832D01*
X557049Y252845D01*
X557302Y253060D01*
X557766Y253523D01*
X559436Y254215D01*
X561244Y254215D01*
X562914Y253523D01*
X564193Y252244D01*
X564885Y250574D01*
X564885Y248766D01*
X564092Y246852D01*
X564091Y246848D01*
X564089Y246844D01*
X564033Y246655D01*
X563976Y246467D01*
X563975Y246462D01*
X563974Y246458D01*
X563956Y246260D01*
X563938Y246068D01*
X563882Y246072D01*
X563877Y246071D01*
X563873Y246072D01*
X563677Y246046D01*
X563482Y246021D01*
X563478Y246020D01*
X563474Y246019D01*
X563158Y245918D01*
X561244Y245125D01*
X559436Y245125D01*
X557766Y245817D01*
X557302Y246280D01*
X557282Y246297D01*
X557264Y246318D01*
X557126Y246425D01*
X556991Y246535D01*
X556967Y246548D01*
X556946Y246564D01*
X556789Y246642D01*
X556635Y246724D01*
X556610Y246732D01*
X556586Y246744D01*
X556416Y246789D01*
X556249Y246839D01*
X556223Y246841D01*
X556197Y246848D01*
X555866Y246875D01*
X514839Y246875D01*
X514812Y246873D01*
X514786Y246875D01*
X514612Y246853D01*
X514438Y246835D01*
X514413Y246828D01*
X514386Y246824D01*
X514221Y246769D01*
X514053Y246717D01*
X514030Y246704D01*
X514005Y246696D01*
X513853Y246609D01*
X513699Y246525D01*
X513679Y246508D01*
X513656Y246495D01*
X513403Y246280D01*
X473543Y206421D01*
X473378Y206280D01*
X472914Y205817D01*
X471244Y205125D01*
X469436Y205125D01*
G37*
%LPD*%
%LPC*%
G36*
X1004661Y582008D02*
X1004661Y582008D01*
X993520Y584224D01*
X983027Y588570D01*
X973582Y594881D01*
X965551Y602912D01*
X959240Y612357D01*
X954894Y622850D01*
X952678Y633991D01*
X952678Y645349D01*
X954894Y656490D01*
X959240Y666983D01*
X965551Y676428D01*
X973582Y684459D01*
X983027Y690770D01*
X993520Y695116D01*
X1004661Y697332D01*
X1016019Y697332D01*
X1027160Y695116D01*
X1037653Y690770D01*
X1047098Y684459D01*
X1055129Y676428D01*
X1061440Y666983D01*
X1065786Y656490D01*
X1068002Y645349D01*
X1068002Y633991D01*
X1065786Y622850D01*
X1061440Y612357D01*
X1055129Y602912D01*
X1047098Y594881D01*
X1037653Y588570D01*
X1032152Y586291D01*
X1027160Y584224D01*
X1016019Y582008D01*
X1004661Y582008D01*
G37*
%LPD*%
%LPC*%
G36*
X71410Y266645D02*
X71410Y266645D01*
X66182Y268811D01*
X62181Y272812D01*
X60015Y278040D01*
X60015Y283700D01*
X62181Y288928D01*
X80120Y306867D01*
X80137Y306888D01*
X80158Y306905D01*
X80265Y307043D01*
X80375Y307179D01*
X80388Y307202D01*
X80404Y307223D01*
X80482Y307380D01*
X80564Y307534D01*
X80572Y307560D01*
X80584Y307584D01*
X80629Y307753D01*
X80679Y307920D01*
X80681Y307947D01*
X80688Y307973D01*
X80715Y308303D01*
X80715Y341060D01*
X82881Y346288D01*
X86882Y350289D01*
X92110Y352455D01*
X97770Y352455D01*
X102998Y350289D01*
X106999Y346288D01*
X109165Y341060D01*
X109165Y298740D01*
X106999Y293512D01*
X82298Y268811D01*
X78856Y267385D01*
X77070Y266645D01*
X71410Y266645D01*
G37*
%LPD*%
%LPC*%
G36*
X336267Y216847D02*
X336267Y216847D01*
X332253Y218510D01*
X329180Y221583D01*
X327517Y225597D01*
X327517Y229943D01*
X329180Y233957D01*
X332253Y237030D01*
X332742Y237232D01*
X332742Y237233D01*
X336027Y238593D01*
X336035Y238598D01*
X336044Y238600D01*
X336213Y238693D01*
X336382Y238784D01*
X336389Y238789D01*
X336397Y238794D01*
X336545Y238918D01*
X336693Y239040D01*
X336698Y239047D01*
X336705Y239053D01*
X336825Y239203D01*
X336946Y239353D01*
X336951Y239361D01*
X336956Y239368D01*
X337043Y239537D01*
X337134Y239709D01*
X337136Y239718D01*
X337140Y239726D01*
X337192Y239908D01*
X337247Y240096D01*
X337247Y240105D01*
X337250Y240113D01*
X337264Y240302D01*
X337281Y240497D01*
X337280Y240506D01*
X337281Y240514D01*
X337258Y240705D01*
X337236Y240897D01*
X337233Y240905D01*
X337232Y240914D01*
X337172Y241096D01*
X337113Y241280D01*
X337108Y241288D01*
X337106Y241296D01*
X337010Y241464D01*
X336917Y241632D01*
X336911Y241638D01*
X336906Y241646D01*
X336779Y241792D01*
X336655Y241937D01*
X336648Y241943D01*
X336642Y241950D01*
X336490Y242067D01*
X336338Y242186D01*
X336330Y242190D01*
X336323Y242195D01*
X336027Y242347D01*
X332253Y243910D01*
X329180Y246983D01*
X327517Y250997D01*
X327517Y255343D01*
X329180Y259357D01*
X332253Y262430D01*
X336027Y263993D01*
X336035Y263998D01*
X336044Y264000D01*
X336213Y264093D01*
X336382Y264184D01*
X336389Y264189D01*
X336397Y264194D01*
X336545Y264318D01*
X336693Y264440D01*
X336698Y264447D01*
X336705Y264453D01*
X336825Y264603D01*
X336946Y264753D01*
X336951Y264761D01*
X336956Y264768D01*
X337043Y264937D01*
X337134Y265109D01*
X337136Y265118D01*
X337140Y265126D01*
X337191Y265307D01*
X337247Y265496D01*
X337247Y265505D01*
X337250Y265513D01*
X337265Y265704D01*
X337281Y265897D01*
X337280Y265906D01*
X337281Y265914D01*
X337258Y266105D01*
X337236Y266297D01*
X337233Y266305D01*
X337232Y266314D01*
X337172Y266496D01*
X337113Y266680D01*
X337108Y266688D01*
X337106Y266696D01*
X337010Y266864D01*
X336917Y267032D01*
X336911Y267038D01*
X336906Y267046D01*
X336779Y267192D01*
X336655Y267337D01*
X336648Y267343D01*
X336642Y267350D01*
X336490Y267467D01*
X336338Y267586D01*
X336330Y267590D01*
X336323Y267595D01*
X336027Y267747D01*
X332253Y269310D01*
X329180Y272383D01*
X327517Y276397D01*
X327517Y280743D01*
X329180Y284757D01*
X332253Y287830D01*
X336027Y289393D01*
X336035Y289398D01*
X336044Y289400D01*
X336213Y289493D01*
X336382Y289584D01*
X336389Y289589D01*
X336397Y289594D01*
X336545Y289718D01*
X336693Y289840D01*
X336698Y289847D01*
X336705Y289853D01*
X336825Y290003D01*
X336946Y290153D01*
X336951Y290161D01*
X336956Y290168D01*
X337043Y290337D01*
X337134Y290509D01*
X337136Y290518D01*
X337140Y290526D01*
X337192Y290708D01*
X337247Y290896D01*
X337247Y290905D01*
X337250Y290913D01*
X337265Y291104D01*
X337281Y291297D01*
X337280Y291306D01*
X337281Y291314D01*
X337258Y291505D01*
X337236Y291697D01*
X337233Y291705D01*
X337232Y291714D01*
X337172Y291896D01*
X337113Y292080D01*
X337108Y292088D01*
X337106Y292096D01*
X337010Y292264D01*
X336917Y292432D01*
X336911Y292438D01*
X336906Y292446D01*
X336779Y292592D01*
X336655Y292737D01*
X336648Y292743D01*
X336642Y292750D01*
X336490Y292867D01*
X336338Y292986D01*
X336330Y292990D01*
X336323Y292995D01*
X336027Y293147D01*
X332253Y294710D01*
X329180Y297783D01*
X327517Y301797D01*
X327517Y306143D01*
X329180Y310157D01*
X332253Y313230D01*
X336027Y314793D01*
X336035Y314798D01*
X336044Y314800D01*
X336212Y314893D01*
X336382Y314984D01*
X336389Y314989D01*
X336397Y314994D01*
X336545Y315118D01*
X336693Y315240D01*
X336698Y315247D01*
X336705Y315253D01*
X336825Y315403D01*
X336946Y315553D01*
X336951Y315561D01*
X336956Y315568D01*
X337043Y315737D01*
X337134Y315909D01*
X337136Y315918D01*
X337140Y315926D01*
X337192Y316108D01*
X337247Y316296D01*
X337247Y316305D01*
X337250Y316313D01*
X337265Y316504D01*
X337281Y316697D01*
X337280Y316706D01*
X337281Y316714D01*
X337258Y316905D01*
X337236Y317097D01*
X337233Y317105D01*
X337232Y317114D01*
X337172Y317296D01*
X337113Y317480D01*
X337108Y317488D01*
X337106Y317496D01*
X337010Y317664D01*
X336917Y317832D01*
X336911Y317838D01*
X336906Y317846D01*
X336779Y317992D01*
X336655Y318137D01*
X336648Y318143D01*
X336642Y318150D01*
X336490Y318267D01*
X336338Y318386D01*
X336330Y318390D01*
X336323Y318395D01*
X336027Y318547D01*
X332253Y320110D01*
X329180Y323183D01*
X327517Y327197D01*
X327517Y331543D01*
X329180Y335557D01*
X332253Y338630D01*
X332651Y338795D01*
X336027Y340193D01*
X336035Y340198D01*
X336044Y340200D01*
X336213Y340293D01*
X336382Y340384D01*
X336389Y340389D01*
X336397Y340394D01*
X336545Y340518D01*
X336693Y340640D01*
X336698Y340647D01*
X336705Y340653D01*
X336825Y340803D01*
X336946Y340953D01*
X336951Y340961D01*
X336956Y340968D01*
X337043Y341137D01*
X337134Y341309D01*
X337136Y341318D01*
X337140Y341326D01*
X337192Y341508D01*
X337247Y341696D01*
X337247Y341705D01*
X337250Y341713D01*
X337265Y341904D01*
X337281Y342097D01*
X337280Y342106D01*
X337281Y342114D01*
X337258Y342305D01*
X337236Y342497D01*
X337233Y342505D01*
X337232Y342514D01*
X337172Y342695D01*
X337113Y342880D01*
X337108Y342888D01*
X337106Y342896D01*
X337010Y343064D01*
X336917Y343232D01*
X336911Y343238D01*
X336906Y343246D01*
X336779Y343392D01*
X336655Y343537D01*
X336648Y343543D01*
X336642Y343550D01*
X336490Y343667D01*
X336338Y343786D01*
X336330Y343790D01*
X336323Y343795D01*
X336027Y343947D01*
X332253Y345510D01*
X329180Y348583D01*
X327517Y352597D01*
X327517Y356943D01*
X329180Y360957D01*
X332253Y364030D01*
X336267Y365693D01*
X340613Y365693D01*
X344627Y364030D01*
X347700Y360957D01*
X349363Y356943D01*
X349363Y352597D01*
X347700Y348583D01*
X344627Y345510D01*
X340853Y343947D01*
X340845Y343942D01*
X340836Y343940D01*
X340668Y343848D01*
X340498Y343756D01*
X340491Y343751D01*
X340483Y343746D01*
X340337Y343623D01*
X340187Y343500D01*
X340182Y343493D01*
X340175Y343487D01*
X340055Y343337D01*
X339934Y343187D01*
X339929Y343179D01*
X339924Y343173D01*
X339836Y343001D01*
X339747Y342831D01*
X339744Y342822D01*
X339740Y342814D01*
X339688Y342630D01*
X339633Y342444D01*
X339633Y342436D01*
X339630Y342427D01*
X339615Y342236D01*
X339599Y342043D01*
X339600Y342034D01*
X339599Y342026D01*
X339622Y341835D01*
X339644Y341643D01*
X339647Y341635D01*
X339648Y341626D01*
X339708Y341443D01*
X339767Y341260D01*
X339771Y341252D01*
X339774Y341244D01*
X339870Y341076D01*
X339963Y340908D01*
X339969Y340902D01*
X339974Y340894D01*
X340100Y340749D01*
X340225Y340603D01*
X340232Y340597D01*
X340238Y340590D01*
X340390Y340473D01*
X340542Y340354D01*
X340550Y340350D01*
X340557Y340345D01*
X340853Y340193D01*
X344627Y338630D01*
X347700Y335557D01*
X349363Y331543D01*
X349363Y327197D01*
X347700Y323183D01*
X344627Y320110D01*
X340853Y318547D01*
X340845Y318542D01*
X340836Y318540D01*
X340667Y318447D01*
X340498Y318356D01*
X340491Y318351D01*
X340483Y318346D01*
X340337Y318223D01*
X340187Y318100D01*
X340182Y318093D01*
X340175Y318087D01*
X340055Y317937D01*
X339934Y317787D01*
X339929Y317779D01*
X339924Y317773D01*
X339836Y317601D01*
X339747Y317431D01*
X339744Y317422D01*
X339740Y317414D01*
X339688Y317230D01*
X339633Y317044D01*
X339633Y317036D01*
X339630Y317027D01*
X339615Y316836D01*
X339599Y316643D01*
X339600Y316634D01*
X339599Y316626D01*
X339622Y316435D01*
X339644Y316243D01*
X339647Y316235D01*
X339648Y316226D01*
X339708Y316043D01*
X339767Y315860D01*
X339771Y315852D01*
X339774Y315844D01*
X339870Y315676D01*
X339963Y315508D01*
X339969Y315502D01*
X339974Y315494D01*
X340100Y315349D01*
X340225Y315203D01*
X340232Y315197D01*
X340238Y315190D01*
X340390Y315073D01*
X340542Y314954D01*
X340550Y314950D01*
X340557Y314945D01*
X340853Y314793D01*
X344627Y313230D01*
X347700Y310157D01*
X349363Y306143D01*
X349363Y301797D01*
X347700Y297783D01*
X344627Y294710D01*
X340853Y293147D01*
X340845Y293142D01*
X340836Y293140D01*
X340668Y293048D01*
X340498Y292956D01*
X340491Y292951D01*
X340483Y292946D01*
X340337Y292823D01*
X340187Y292700D01*
X340182Y292693D01*
X340175Y292687D01*
X340055Y292537D01*
X339934Y292387D01*
X339929Y292379D01*
X339924Y292373D01*
X339836Y292201D01*
X339747Y292031D01*
X339744Y292022D01*
X339740Y292014D01*
X339688Y291830D01*
X339633Y291644D01*
X339633Y291636D01*
X339630Y291627D01*
X339615Y291436D01*
X339599Y291243D01*
X339600Y291234D01*
X339599Y291226D01*
X339622Y291035D01*
X339644Y290843D01*
X339647Y290835D01*
X339648Y290826D01*
X339708Y290643D01*
X339767Y290460D01*
X339771Y290452D01*
X339774Y290444D01*
X339870Y290276D01*
X339963Y290108D01*
X339969Y290102D01*
X339974Y290094D01*
X340100Y289949D01*
X340225Y289803D01*
X340232Y289797D01*
X340238Y289790D01*
X340390Y289673D01*
X340542Y289554D01*
X340550Y289550D01*
X340557Y289545D01*
X340853Y289393D01*
X344627Y287830D01*
X347700Y284757D01*
X349363Y280743D01*
X349363Y276397D01*
X347700Y272383D01*
X344627Y269310D01*
X340853Y267747D01*
X340845Y267742D01*
X340836Y267740D01*
X340668Y267648D01*
X340498Y267556D01*
X340491Y267551D01*
X340483Y267546D01*
X340337Y267423D01*
X340187Y267300D01*
X340182Y267293D01*
X340175Y267287D01*
X340055Y267137D01*
X339934Y266987D01*
X339929Y266979D01*
X339924Y266973D01*
X339836Y266801D01*
X339747Y266631D01*
X339744Y266622D01*
X339740Y266614D01*
X339688Y266430D01*
X339633Y266244D01*
X339633Y266236D01*
X339630Y266227D01*
X339615Y266036D01*
X339599Y265843D01*
X339600Y265834D01*
X339599Y265826D01*
X339622Y265635D01*
X339644Y265443D01*
X339647Y265435D01*
X339648Y265426D01*
X339708Y265243D01*
X339767Y265060D01*
X339771Y265052D01*
X339774Y265044D01*
X339870Y264876D01*
X339963Y264708D01*
X339969Y264702D01*
X339974Y264694D01*
X340100Y264549D01*
X340225Y264403D01*
X340232Y264397D01*
X340238Y264390D01*
X340390Y264273D01*
X340542Y264154D01*
X340550Y264150D01*
X340557Y264145D01*
X340853Y263993D01*
X344627Y262430D01*
X347700Y259357D01*
X349363Y255343D01*
X349363Y250997D01*
X347700Y246983D01*
X344627Y243910D01*
X340853Y242347D01*
X340845Y242342D01*
X340836Y242340D01*
X340668Y242248D01*
X340498Y242156D01*
X340491Y242151D01*
X340483Y242146D01*
X340337Y242023D01*
X340187Y241900D01*
X340182Y241893D01*
X340175Y241887D01*
X340055Y241737D01*
X339934Y241587D01*
X339929Y241579D01*
X339924Y241573D01*
X339836Y241401D01*
X339747Y241231D01*
X339744Y241222D01*
X339740Y241214D01*
X339688Y241030D01*
X339633Y240844D01*
X339633Y240836D01*
X339630Y240827D01*
X339615Y240636D01*
X339599Y240443D01*
X339600Y240434D01*
X339599Y240426D01*
X339622Y240235D01*
X339644Y240043D01*
X339647Y240035D01*
X339648Y240026D01*
X339708Y239843D01*
X339767Y239660D01*
X339771Y239652D01*
X339774Y239644D01*
X339870Y239475D01*
X339963Y239308D01*
X339969Y239302D01*
X339974Y239294D01*
X340100Y239149D01*
X340225Y239003D01*
X340232Y238997D01*
X340238Y238990D01*
X340390Y238873D01*
X340542Y238754D01*
X340550Y238750D01*
X340557Y238745D01*
X340853Y238593D01*
X344627Y237030D01*
X347700Y233957D01*
X349363Y229943D01*
X349363Y225597D01*
X347700Y221583D01*
X344627Y218510D01*
X340613Y216847D01*
X336267Y216847D01*
G37*
%LPD*%
%LPC*%
G36*
X324483Y154749D02*
X324483Y154749D01*
X323046Y156186D01*
X323026Y156203D01*
X323008Y156224D01*
X322870Y156331D01*
X322735Y156441D01*
X322711Y156454D01*
X322690Y156470D01*
X322533Y156548D01*
X322379Y156630D01*
X322354Y156638D01*
X322330Y156650D01*
X322160Y156695D01*
X321993Y156745D01*
X321967Y156747D01*
X321941Y156754D01*
X321610Y156781D01*
X316528Y156781D01*
X314474Y157632D01*
X295602Y176504D01*
X294751Y178558D01*
X294751Y236514D01*
X294749Y236540D01*
X294751Y236567D01*
X294729Y236741D01*
X294711Y236914D01*
X294704Y236940D01*
X294700Y236966D01*
X294645Y237132D01*
X294593Y237299D01*
X294580Y237323D01*
X294572Y237348D01*
X294485Y237500D01*
X294401Y237653D01*
X294384Y237674D01*
X294371Y237697D01*
X294156Y237950D01*
X279430Y252677D01*
X279416Y252688D01*
X279404Y252702D01*
X279260Y252816D01*
X279118Y252932D01*
X279102Y252940D01*
X279088Y252951D01*
X278924Y253035D01*
X278762Y253120D01*
X278745Y253125D01*
X278729Y253134D01*
X278552Y253183D01*
X278376Y253235D01*
X278359Y253237D01*
X278342Y253242D01*
X278158Y253255D01*
X277976Y253272D01*
X277958Y253270D01*
X277940Y253271D01*
X277758Y253248D01*
X277575Y253228D01*
X277558Y253223D01*
X277541Y253221D01*
X277367Y253162D01*
X277191Y253107D01*
X277176Y253098D01*
X277159Y253092D01*
X276999Y253000D01*
X276839Y252912D01*
X276826Y252900D01*
X276810Y252891D01*
X276557Y252677D01*
X275952Y252071D01*
X272311Y250563D01*
X268369Y250563D01*
X264728Y252071D01*
X261941Y254858D01*
X260433Y258499D01*
X260433Y262441D01*
X261941Y266082D01*
X264728Y268869D01*
X268369Y270377D01*
X272311Y270377D01*
X275952Y268869D01*
X278167Y266654D01*
X278187Y266637D01*
X278205Y266616D01*
X278343Y266509D01*
X278478Y266399D01*
X278502Y266386D01*
X278523Y266370D01*
X278680Y266292D01*
X278834Y266210D01*
X278859Y266202D01*
X278883Y266190D01*
X279053Y266145D01*
X279220Y266095D01*
X279246Y266093D01*
X279272Y266086D01*
X279603Y266059D01*
X280652Y266059D01*
X282706Y265208D01*
X284563Y263350D01*
X284564Y263350D01*
X305078Y242836D01*
X305929Y240782D01*
X305929Y182826D01*
X305931Y182800D01*
X305929Y182773D01*
X305951Y182599D01*
X305969Y182426D01*
X305976Y182400D01*
X305980Y182374D01*
X306035Y182208D01*
X306087Y182041D01*
X306100Y182017D01*
X306108Y181992D01*
X306195Y181840D01*
X306279Y181687D01*
X306296Y181666D01*
X306309Y181643D01*
X306524Y181390D01*
X319360Y168554D01*
X319381Y168537D01*
X319398Y168516D01*
X319536Y168409D01*
X319672Y168299D01*
X319695Y168286D01*
X319716Y168270D01*
X319873Y168192D01*
X320027Y168110D01*
X320053Y168102D01*
X320077Y168090D01*
X320246Y168045D01*
X320413Y167995D01*
X320440Y167993D01*
X320466Y167986D01*
X320796Y167959D01*
X321610Y167959D01*
X321637Y167961D01*
X321663Y167959D01*
X321837Y167981D01*
X322011Y167999D01*
X322036Y168006D01*
X322063Y168010D01*
X322228Y168065D01*
X322396Y168117D01*
X322419Y168130D01*
X322444Y168138D01*
X322596Y168225D01*
X322750Y168309D01*
X322770Y168326D01*
X322793Y168339D01*
X323046Y168554D01*
X324483Y169991D01*
X330797Y169991D01*
X335261Y165527D01*
X335261Y159213D01*
X330797Y154749D01*
X324483Y154749D01*
G37*
%LPD*%
%LPC*%
G36*
X262910Y526885D02*
X262910Y526885D01*
X257682Y529051D01*
X253681Y533052D01*
X251515Y538280D01*
X251515Y569340D01*
X253681Y574568D01*
X257682Y578569D01*
X262910Y580735D01*
X268570Y580735D01*
X273798Y578569D01*
X277799Y574568D01*
X279965Y569340D01*
X279965Y538280D01*
X277799Y533052D01*
X273798Y529051D01*
X268570Y526885D01*
X262910Y526885D01*
G37*
%LPD*%
%LPC*%
G36*
X262910Y318605D02*
X262910Y318605D01*
X257682Y320771D01*
X253681Y324772D01*
X251515Y330000D01*
X251515Y361060D01*
X253681Y366288D01*
X257682Y370289D01*
X260111Y371295D01*
X262910Y372455D01*
X268570Y372455D01*
X273798Y370289D01*
X277799Y366288D01*
X279965Y361060D01*
X279965Y330000D01*
X277799Y324772D01*
X273798Y320771D01*
X268570Y318605D01*
X262910Y318605D01*
G37*
%LPD*%
%LPC*%
G36*
X212110Y318605D02*
X212110Y318605D01*
X206882Y320771D01*
X202881Y324772D01*
X200715Y330000D01*
X200715Y361060D01*
X202881Y366288D01*
X206882Y370289D01*
X209311Y371295D01*
X212110Y372455D01*
X217770Y372455D01*
X222998Y370289D01*
X226999Y366288D01*
X229165Y361060D01*
X229165Y330000D01*
X226999Y324772D01*
X222998Y320771D01*
X217770Y318605D01*
X212110Y318605D01*
G37*
%LPD*%
%LPC*%
G36*
X142910Y298605D02*
X142910Y298605D01*
X137682Y300771D01*
X133681Y304772D01*
X131515Y310000D01*
X131515Y341060D01*
X133681Y346288D01*
X137682Y350289D01*
X142910Y352455D01*
X148570Y352455D01*
X153798Y350289D01*
X157799Y346288D01*
X159965Y341060D01*
X159965Y310000D01*
X157799Y304772D01*
X153798Y300771D01*
X151660Y299885D01*
X151659Y299885D01*
X148570Y298605D01*
X142910Y298605D01*
G37*
%LPD*%
%LPC*%
G36*
X142910Y506885D02*
X142910Y506885D01*
X137682Y509051D01*
X133681Y513052D01*
X131515Y518280D01*
X131515Y549340D01*
X133681Y554568D01*
X137682Y558569D01*
X142910Y560735D01*
X148570Y560735D01*
X153798Y558569D01*
X157799Y554568D01*
X159965Y549340D01*
X159965Y518280D01*
X157799Y513052D01*
X153798Y509051D01*
X149022Y507073D01*
X148570Y506885D01*
X142910Y506885D01*
G37*
%LPD*%
%LPC*%
G36*
X689436Y375125D02*
X689436Y375125D01*
X687766Y375817D01*
X686487Y377096D01*
X685795Y378766D01*
X685795Y380574D01*
X686487Y382244D01*
X687766Y383523D01*
X689436Y384215D01*
X690091Y384215D01*
X690118Y384217D01*
X690144Y384215D01*
X690318Y384237D01*
X690492Y384255D01*
X690517Y384262D01*
X690544Y384266D01*
X690709Y384321D01*
X690877Y384373D01*
X690900Y384386D01*
X690925Y384394D01*
X691077Y384481D01*
X691231Y384565D01*
X691251Y384582D01*
X691274Y384595D01*
X691527Y384810D01*
X755200Y448483D01*
X755217Y448503D01*
X755238Y448521D01*
X755345Y448659D01*
X755455Y448794D01*
X755468Y448818D01*
X755484Y448839D01*
X755562Y448996D01*
X755644Y449150D01*
X755652Y449175D01*
X755664Y449199D01*
X755709Y449369D01*
X755759Y449536D01*
X755761Y449562D01*
X755768Y449588D01*
X755795Y449919D01*
X755795Y450574D01*
X756487Y452244D01*
X757766Y453523D01*
X759436Y454215D01*
X761244Y454215D01*
X762914Y453523D01*
X764193Y452244D01*
X764885Y450574D01*
X764885Y448766D01*
X764193Y447096D01*
X762914Y445817D01*
X761244Y445125D01*
X760589Y445125D01*
X760562Y445123D01*
X760536Y445125D01*
X760362Y445103D01*
X760188Y445085D01*
X760163Y445078D01*
X760136Y445074D01*
X759971Y445019D01*
X759803Y444967D01*
X759780Y444954D01*
X759755Y444946D01*
X759603Y444859D01*
X759449Y444775D01*
X759429Y444758D01*
X759406Y444745D01*
X759153Y444530D01*
X695480Y380857D01*
X695463Y380837D01*
X695442Y380819D01*
X695335Y380681D01*
X695225Y380546D01*
X695212Y380522D01*
X695196Y380501D01*
X695118Y380344D01*
X695036Y380190D01*
X695028Y380165D01*
X695016Y380141D01*
X694971Y379971D01*
X694921Y379804D01*
X694919Y379778D01*
X694912Y379752D01*
X694885Y379421D01*
X694885Y378766D01*
X694193Y377096D01*
X692914Y375817D01*
X691244Y375125D01*
X689436Y375125D01*
G37*
%LPD*%
%LPC*%
G36*
X820898Y598576D02*
X820898Y598576D01*
X820880Y598578D01*
X820863Y598582D01*
X820532Y598609D01*
X809355Y598609D01*
X809395Y598866D01*
X809976Y600653D01*
X810829Y602327D01*
X811934Y603848D01*
X813262Y605176D01*
X814783Y606281D01*
X816457Y607134D01*
X817189Y607372D01*
X817271Y607408D01*
X817355Y607434D01*
X817454Y607488D01*
X817558Y607534D01*
X817631Y607585D01*
X817708Y607627D01*
X817795Y607700D01*
X817887Y607765D01*
X817949Y607829D01*
X818017Y607886D01*
X818087Y607975D01*
X818165Y608057D01*
X818212Y608132D01*
X818268Y608201D01*
X818319Y608302D01*
X818379Y608397D01*
X818411Y608480D01*
X818451Y608559D01*
X818482Y608668D01*
X818522Y608774D01*
X818537Y608861D01*
X818561Y608947D01*
X818570Y609059D01*
X818588Y609171D01*
X818585Y609260D01*
X818592Y609348D01*
X818579Y609460D01*
X818575Y609573D01*
X818554Y609660D01*
X818544Y609748D01*
X818508Y609855D01*
X818482Y609965D01*
X818445Y610046D01*
X818417Y610130D01*
X818361Y610228D01*
X818314Y610331D01*
X818262Y610403D01*
X818218Y610480D01*
X818144Y610565D01*
X818077Y610656D01*
X818011Y610716D01*
X817953Y610783D01*
X817864Y610852D01*
X817780Y610929D01*
X817704Y610975D01*
X817634Y611029D01*
X817508Y611093D01*
X817436Y611137D01*
X817393Y611153D01*
X817339Y611180D01*
X814853Y612210D01*
X811780Y615283D01*
X810117Y619297D01*
X810117Y623643D01*
X811780Y627657D01*
X814853Y630730D01*
X818867Y632393D01*
X823213Y632393D01*
X827227Y630730D01*
X830300Y627657D01*
X831963Y623643D01*
X831963Y619297D01*
X830300Y615283D01*
X827227Y612210D01*
X824741Y611180D01*
X824663Y611138D01*
X824580Y611105D01*
X824486Y611043D01*
X824386Y610990D01*
X824318Y610934D01*
X824243Y610885D01*
X824163Y610806D01*
X824076Y610734D01*
X824020Y610665D01*
X823957Y610602D01*
X823893Y610509D01*
X823822Y610421D01*
X823781Y610343D01*
X823731Y610269D01*
X823688Y610165D01*
X823635Y610065D01*
X823610Y609979D01*
X823576Y609897D01*
X823554Y609787D01*
X823522Y609678D01*
X823514Y609590D01*
X823497Y609503D01*
X823497Y609389D01*
X823487Y609277D01*
X823497Y609189D01*
X823497Y609100D01*
X823520Y608989D01*
X823533Y608877D01*
X823560Y608792D01*
X823577Y608705D01*
X823621Y608601D01*
X823656Y608494D01*
X823699Y608416D01*
X823733Y608334D01*
X823797Y608241D01*
X823852Y608142D01*
X823910Y608075D01*
X823960Y608001D01*
X824040Y607922D01*
X824114Y607836D01*
X824184Y607782D01*
X824247Y607719D01*
X824342Y607658D01*
X824431Y607588D01*
X824510Y607548D01*
X824585Y607500D01*
X824715Y607445D01*
X824791Y607407D01*
X824835Y607395D01*
X824891Y607372D01*
X825623Y607134D01*
X827297Y606281D01*
X828818Y605176D01*
X830146Y603848D01*
X831251Y602327D01*
X832104Y600653D01*
X832685Y598866D01*
X832725Y598609D01*
X821548Y598609D01*
X821530Y598607D01*
X821513Y598609D01*
X821330Y598588D01*
X821148Y598569D01*
X821131Y598564D01*
X821113Y598562D01*
X821035Y598537D01*
X820898Y598576D01*
G37*
%LPD*%
%LPC*%
G36*
X562021Y62905D02*
X562021Y62905D01*
X558660Y64297D01*
X556087Y66870D01*
X554695Y70231D01*
X554695Y89109D01*
X556087Y92470D01*
X558660Y95043D01*
X562021Y96435D01*
X565659Y96435D01*
X569020Y95043D01*
X571593Y92470D01*
X572985Y89109D01*
X572985Y70231D01*
X571593Y66870D01*
X569020Y64297D01*
X565659Y62905D01*
X562021Y62905D01*
G37*
%LPD*%
%LPC*%
G36*
X536621Y62905D02*
X536621Y62905D01*
X533260Y64297D01*
X530687Y66870D01*
X529295Y70231D01*
X529295Y89109D01*
X530687Y92470D01*
X533260Y95043D01*
X536621Y96435D01*
X540259Y96435D01*
X543620Y95043D01*
X546193Y92470D01*
X547585Y89109D01*
X547585Y70231D01*
X546193Y66870D01*
X543620Y64297D01*
X540259Y62905D01*
X536621Y62905D01*
G37*
%LPD*%
%LPC*%
G36*
X511221Y62905D02*
X511221Y62905D01*
X507860Y64297D01*
X505287Y66870D01*
X503895Y70231D01*
X503895Y89109D01*
X505287Y92470D01*
X507860Y95043D01*
X511221Y96435D01*
X514859Y96435D01*
X518220Y95043D01*
X520793Y92470D01*
X522185Y89109D01*
X522185Y70231D01*
X520793Y66870D01*
X518220Y64297D01*
X514859Y62905D01*
X511221Y62905D01*
G37*
%LPD*%
%LPC*%
G36*
X485821Y62905D02*
X485821Y62905D01*
X482460Y64297D01*
X479887Y66870D01*
X478495Y70231D01*
X478495Y89109D01*
X479887Y92470D01*
X482460Y95043D01*
X485821Y96435D01*
X489459Y96435D01*
X492820Y95043D01*
X495393Y92470D01*
X496785Y89109D01*
X496785Y70231D01*
X495393Y66870D01*
X492820Y64297D01*
X489459Y62905D01*
X485821Y62905D01*
G37*
%LPD*%
%LPC*%
G36*
X736621Y42905D02*
X736621Y42905D01*
X733260Y44297D01*
X730687Y46870D01*
X729295Y50231D01*
X729295Y69109D01*
X730687Y72470D01*
X733260Y75043D01*
X736621Y76435D01*
X740259Y76435D01*
X743620Y75043D01*
X746193Y72470D01*
X747585Y69109D01*
X747585Y50231D01*
X746193Y46870D01*
X743620Y44297D01*
X740259Y42905D01*
X736621Y42905D01*
G37*
%LPD*%
%LPC*%
G36*
X711221Y42905D02*
X711221Y42905D01*
X707860Y44297D01*
X705287Y46870D01*
X703895Y50231D01*
X703895Y69109D01*
X705287Y72470D01*
X707860Y75043D01*
X711221Y76435D01*
X714859Y76435D01*
X718220Y75043D01*
X720793Y72470D01*
X722185Y69109D01*
X722185Y50231D01*
X720793Y46870D01*
X718220Y44297D01*
X714859Y42905D01*
X711221Y42905D01*
G37*
%LPD*%
%LPC*%
G36*
X660421Y42905D02*
X660421Y42905D01*
X657060Y44297D01*
X654487Y46870D01*
X653095Y50231D01*
X653095Y69109D01*
X654487Y72470D01*
X657060Y75043D01*
X660421Y76435D01*
X664059Y76435D01*
X667420Y75043D01*
X669993Y72470D01*
X671385Y69109D01*
X671385Y50231D01*
X669993Y46870D01*
X667420Y44297D01*
X664059Y42905D01*
X660421Y42905D01*
G37*
%LPD*%
%LPC*%
G36*
X1027088Y507525D02*
X1027088Y507525D01*
X1026195Y508418D01*
X1026195Y524922D01*
X1027088Y525815D01*
X1043592Y525815D01*
X1044485Y524922D01*
X1044485Y508418D01*
X1043592Y507525D01*
X1027088Y507525D01*
G37*
%LPD*%
%LPC*%
G36*
X977088Y507525D02*
X977088Y507525D01*
X976195Y508418D01*
X976195Y524922D01*
X977088Y525815D01*
X993592Y525815D01*
X994485Y524922D01*
X994485Y508418D01*
X993592Y507525D01*
X977088Y507525D01*
G37*
%LPD*%
%LPC*%
G36*
X925088Y213525D02*
X925088Y213525D01*
X924195Y214418D01*
X924195Y230922D01*
X925088Y231815D01*
X941592Y231815D01*
X942485Y230922D01*
X942485Y214418D01*
X941592Y213525D01*
X925088Y213525D01*
G37*
%LPD*%
%LPC*%
G36*
X268369Y148963D02*
X268369Y148963D01*
X264728Y150471D01*
X261941Y153258D01*
X260433Y156899D01*
X260433Y160841D01*
X261941Y164482D01*
X264728Y167269D01*
X268369Y168777D01*
X272311Y168777D01*
X275952Y167269D01*
X278739Y164482D01*
X280247Y160841D01*
X280247Y156899D01*
X278739Y153258D01*
X275952Y150471D01*
X272311Y148963D01*
X268369Y148963D01*
G37*
%LPD*%
G36*
X450893Y412467D02*
X450893Y412467D01*
X450919Y412465D01*
X451093Y412487D01*
X451267Y412505D01*
X451292Y412512D01*
X451319Y412516D01*
X451485Y412571D01*
X451652Y412623D01*
X451675Y412635D01*
X451700Y412644D01*
X451852Y412731D01*
X452006Y412815D01*
X452026Y412832D01*
X452049Y412845D01*
X452302Y413060D01*
X452650Y413408D01*
X452656Y413415D01*
X452663Y413420D01*
X452783Y413570D01*
X452906Y413719D01*
X452910Y413727D01*
X452915Y413734D01*
X453004Y413904D01*
X453094Y414075D01*
X453097Y414083D01*
X453101Y414091D01*
X453154Y414277D01*
X453209Y414461D01*
X453210Y414470D01*
X453212Y414478D01*
X453228Y414670D01*
X453245Y414862D01*
X453244Y414871D01*
X453245Y414880D01*
X453223Y415070D01*
X453202Y415262D01*
X453199Y415271D01*
X453198Y415279D01*
X453139Y415462D01*
X453080Y415646D01*
X453076Y415654D01*
X453073Y415662D01*
X452979Y415829D01*
X452886Y415998D01*
X452880Y416005D01*
X452875Y416013D01*
X452750Y416158D01*
X452625Y416305D01*
X452618Y416311D01*
X452612Y416318D01*
X452461Y416435D01*
X452309Y416555D01*
X452301Y416559D01*
X452294Y416564D01*
X452122Y416650D01*
X451950Y416737D01*
X451942Y416740D01*
X451934Y416744D01*
X451747Y416794D01*
X451562Y416845D01*
X451554Y416846D01*
X451545Y416848D01*
X451214Y416875D01*
X439182Y416875D01*
X436951Y419107D01*
X436950Y419107D01*
X431146Y424911D01*
X431139Y424917D01*
X431134Y424924D01*
X430985Y425043D01*
X430835Y425166D01*
X430827Y425171D01*
X430820Y425176D01*
X430649Y425265D01*
X430479Y425355D01*
X430471Y425358D01*
X430463Y425362D01*
X430277Y425415D01*
X430093Y425470D01*
X430084Y425471D01*
X430076Y425473D01*
X429884Y425489D01*
X429692Y425506D01*
X429683Y425505D01*
X429674Y425506D01*
X429485Y425484D01*
X429292Y425463D01*
X429283Y425460D01*
X429275Y425459D01*
X429093Y425400D01*
X428908Y425341D01*
X428900Y425337D01*
X428892Y425334D01*
X428723Y425239D01*
X428556Y425147D01*
X428549Y425141D01*
X428541Y425136D01*
X428395Y425010D01*
X428249Y424886D01*
X428243Y424879D01*
X428236Y424873D01*
X428119Y424722D01*
X427999Y424570D01*
X427995Y424562D01*
X427990Y424555D01*
X427904Y424383D01*
X427817Y424211D01*
X427814Y424203D01*
X427810Y424195D01*
X427760Y424008D01*
X427709Y423823D01*
X427708Y423814D01*
X427706Y423806D01*
X427679Y423475D01*
X427679Y421409D01*
X416248Y421409D01*
X416230Y421407D01*
X416213Y421409D01*
X416030Y421388D01*
X415848Y421369D01*
X415831Y421364D01*
X415813Y421362D01*
X415638Y421305D01*
X415463Y421251D01*
X415447Y421243D01*
X415430Y421237D01*
X415270Y421147D01*
X415109Y421059D01*
X415095Y421048D01*
X415079Y421039D01*
X414940Y420919D01*
X414799Y420802D01*
X414788Y420788D01*
X414775Y420776D01*
X414662Y420631D01*
X414547Y420488D01*
X414539Y420472D01*
X414528Y420458D01*
X414446Y420293D01*
X414362Y420131D01*
X414357Y420114D01*
X414349Y420098D01*
X414301Y419919D01*
X414250Y419744D01*
X414249Y419726D01*
X414244Y419709D01*
X414217Y419378D01*
X414217Y418362D01*
X414219Y418344D01*
X414217Y418326D01*
X414239Y418144D01*
X414257Y417961D01*
X414262Y417944D01*
X414264Y417927D01*
X414321Y417752D01*
X414375Y417576D01*
X414383Y417561D01*
X414389Y417544D01*
X414479Y417384D01*
X414567Y417222D01*
X414578Y417209D01*
X414587Y417193D01*
X414707Y417054D01*
X414825Y416913D01*
X414838Y416902D01*
X414850Y416888D01*
X414995Y416776D01*
X415138Y416661D01*
X415154Y416653D01*
X415168Y416642D01*
X415333Y416560D01*
X415496Y416475D01*
X415513Y416470D01*
X415529Y416462D01*
X415707Y416414D01*
X415882Y416364D01*
X415900Y416362D01*
X415917Y416358D01*
X416248Y416331D01*
X427679Y416331D01*
X427679Y414496D01*
X427681Y414478D01*
X427679Y414460D01*
X427700Y414278D01*
X427719Y414095D01*
X427724Y414078D01*
X427726Y414061D01*
X427783Y413886D01*
X427837Y413710D01*
X427845Y413695D01*
X427851Y413678D01*
X427941Y413518D01*
X428029Y413356D01*
X428040Y413343D01*
X428049Y413327D01*
X428169Y413188D01*
X428286Y413047D01*
X428300Y413036D01*
X428312Y413022D01*
X428457Y412910D01*
X428600Y412795D01*
X428616Y412787D01*
X428630Y412776D01*
X428795Y412694D01*
X428957Y412609D01*
X428974Y412604D01*
X428990Y412596D01*
X429169Y412549D01*
X429344Y412498D01*
X429362Y412496D01*
X429379Y412492D01*
X429710Y412465D01*
X450866Y412465D01*
X450893Y412467D01*
G37*
%LPC*%
G36*
X192594Y272595D02*
X192594Y272595D01*
X189553Y273855D01*
X187225Y276183D01*
X185965Y279224D01*
X185965Y282516D01*
X187225Y285557D01*
X189553Y287885D01*
X192594Y289145D01*
X195886Y289145D01*
X198927Y287885D01*
X201255Y285557D01*
X202515Y282516D01*
X202515Y279224D01*
X201255Y276183D01*
X198927Y273855D01*
X195886Y272595D01*
X192594Y272595D01*
G37*
%LPD*%
%LPC*%
G36*
X192594Y152595D02*
X192594Y152595D01*
X189553Y153855D01*
X187225Y156183D01*
X185965Y159224D01*
X185965Y162516D01*
X187225Y165557D01*
X189553Y167885D01*
X192594Y169145D01*
X195886Y169145D01*
X198927Y167885D01*
X201255Y165557D01*
X202515Y162516D01*
X202515Y159224D01*
X201255Y156183D01*
X198927Y153855D01*
X195886Y152595D01*
X192594Y152595D01*
G37*
%LPD*%
%LPC*%
G36*
X72594Y152595D02*
X72594Y152595D01*
X69553Y153855D01*
X67225Y156183D01*
X65965Y159224D01*
X65965Y162516D01*
X67225Y165557D01*
X69553Y167885D01*
X72594Y169145D01*
X75886Y169145D01*
X78927Y167885D01*
X81255Y165557D01*
X82515Y162516D01*
X82515Y159224D01*
X81255Y156183D01*
X78927Y153855D01*
X75886Y152595D01*
X72594Y152595D01*
G37*
%LPD*%
%LPC*%
G36*
X340979Y433509D02*
X340979Y433509D01*
X340979Y453831D01*
X350125Y453831D01*
X350085Y453574D01*
X349504Y451787D01*
X348651Y450113D01*
X347546Y448592D01*
X346218Y447264D01*
X344697Y446159D01*
X343364Y445480D01*
X343321Y445452D01*
X343274Y445431D01*
X343152Y445344D01*
X343025Y445262D01*
X342989Y445227D01*
X342947Y445197D01*
X342844Y445087D01*
X342736Y444982D01*
X342707Y444940D01*
X342672Y444903D01*
X342593Y444775D01*
X342508Y444651D01*
X342487Y444604D01*
X342461Y444560D01*
X342408Y444419D01*
X342349Y444281D01*
X342339Y444231D01*
X342321Y444183D01*
X342297Y444034D01*
X342267Y443887D01*
X342266Y443836D01*
X342258Y443785D01*
X342265Y443634D01*
X342264Y443484D01*
X342273Y443434D01*
X342275Y443383D01*
X342311Y443237D01*
X342340Y443089D01*
X342359Y443041D01*
X342372Y442992D01*
X342436Y442856D01*
X342493Y442716D01*
X342521Y442674D01*
X342543Y442627D01*
X342633Y442507D01*
X342716Y442381D01*
X342752Y442345D01*
X342783Y442304D01*
X342895Y442203D01*
X343001Y442097D01*
X343044Y442069D01*
X343082Y442034D01*
X343279Y441913D01*
X343337Y441874D01*
X343349Y441869D01*
X343364Y441860D01*
X344697Y441181D01*
X346218Y440076D01*
X347546Y438748D01*
X348651Y437227D01*
X349504Y435553D01*
X350085Y433766D01*
X350125Y433509D01*
X340979Y433509D01*
G37*
%LPD*%
%LPC*%
G36*
X464779Y82209D02*
X464779Y82209D01*
X464779Y97149D01*
X466140Y96706D01*
X467565Y95980D01*
X468859Y95040D01*
X469990Y93909D01*
X470930Y92615D01*
X471656Y91190D01*
X472151Y89669D01*
X472401Y88090D01*
X472401Y82209D01*
X464779Y82209D01*
G37*
%LPD*%
%LPC*%
G36*
X439379Y82209D02*
X439379Y82209D01*
X439379Y97149D01*
X440740Y96706D01*
X442165Y95980D01*
X443459Y95040D01*
X444590Y93909D01*
X445530Y92615D01*
X446256Y91190D01*
X446751Y89669D01*
X447001Y88090D01*
X447001Y82209D01*
X439379Y82209D01*
G37*
%LPD*%
%LPC*%
G36*
X690179Y62209D02*
X690179Y62209D01*
X690179Y77149D01*
X691540Y76706D01*
X692965Y75980D01*
X694259Y75040D01*
X695390Y73909D01*
X696330Y72615D01*
X697056Y71190D01*
X697551Y69669D01*
X697801Y68090D01*
X697801Y62209D01*
X690179Y62209D01*
G37*
%LPD*%
%LPC*%
G36*
X464779Y77131D02*
X464779Y77131D01*
X472401Y77131D01*
X472401Y71250D01*
X472151Y69671D01*
X471656Y68150D01*
X470930Y66725D01*
X469990Y65431D01*
X468859Y64300D01*
X467565Y63360D01*
X466140Y62634D01*
X464779Y62191D01*
X464779Y77131D01*
G37*
%LPD*%
%LPC*%
G36*
X439379Y77131D02*
X439379Y77131D01*
X447001Y77131D01*
X447001Y71250D01*
X446751Y69671D01*
X446256Y68150D01*
X445530Y66725D01*
X444590Y65431D01*
X443459Y64300D01*
X442165Y63360D01*
X440740Y62634D01*
X439379Y62191D01*
X439379Y77131D01*
G37*
%LPD*%
%LPC*%
G36*
X690179Y57131D02*
X690179Y57131D01*
X697801Y57131D01*
X697801Y51250D01*
X697551Y49671D01*
X697056Y48150D01*
X696330Y46725D01*
X695390Y45431D01*
X694259Y44300D01*
X692965Y43360D01*
X691540Y42634D01*
X690179Y42191D01*
X690179Y57131D01*
G37*
%LPD*%
%LPC*%
G36*
X677479Y62209D02*
X677479Y62209D01*
X677479Y68090D01*
X677729Y69669D01*
X678224Y71190D01*
X678950Y72615D01*
X679890Y73909D01*
X681021Y75040D01*
X682315Y75980D01*
X683740Y76706D01*
X685101Y77149D01*
X685101Y62209D01*
X677479Y62209D01*
G37*
%LPD*%
%LPC*%
G36*
X426679Y82209D02*
X426679Y82209D01*
X426679Y88090D01*
X426929Y89669D01*
X427424Y91190D01*
X428150Y92615D01*
X429090Y93909D01*
X430221Y95040D01*
X431515Y95980D01*
X432940Y96706D01*
X434301Y97149D01*
X434301Y82209D01*
X426679Y82209D01*
G37*
%LPD*%
%LPC*%
G36*
X452079Y82209D02*
X452079Y82209D01*
X452079Y88090D01*
X452329Y89669D01*
X452824Y91190D01*
X453550Y92615D01*
X454490Y93909D01*
X455621Y95040D01*
X456915Y95980D01*
X458340Y96706D01*
X459701Y97149D01*
X459701Y82209D01*
X452079Y82209D01*
G37*
%LPD*%
%LPC*%
G36*
X458340Y62634D02*
X458340Y62634D01*
X456915Y63360D01*
X455621Y64300D01*
X454490Y65431D01*
X453550Y66725D01*
X452824Y68150D01*
X452329Y69671D01*
X452079Y71250D01*
X452079Y77131D01*
X459701Y77131D01*
X459701Y62191D01*
X458340Y62634D01*
G37*
%LPD*%
%LPC*%
G36*
X432940Y62634D02*
X432940Y62634D01*
X431515Y63360D01*
X430221Y64300D01*
X429090Y65431D01*
X428150Y66725D01*
X427424Y68150D01*
X426929Y69671D01*
X426679Y71250D01*
X426679Y77131D01*
X434301Y77131D01*
X434301Y62191D01*
X432940Y62634D01*
G37*
%LPD*%
%LPC*%
G36*
X683740Y42634D02*
X683740Y42634D01*
X682315Y43360D01*
X681021Y44300D01*
X679890Y45431D01*
X678950Y46725D01*
X678224Y48150D01*
X677729Y49671D01*
X677479Y51250D01*
X677479Y57131D01*
X685101Y57131D01*
X685101Y42191D01*
X683740Y42634D01*
G37*
%LPD*%
%LPC*%
G36*
X1089879Y225209D02*
X1089879Y225209D01*
X1089879Y232831D01*
X1095295Y232831D01*
X1095941Y232658D01*
X1096520Y232323D01*
X1096993Y231850D01*
X1097328Y231271D01*
X1097501Y230625D01*
X1097501Y225209D01*
X1089879Y225209D01*
G37*
%LPD*%
%LPC*%
G36*
X1089879Y212509D02*
X1089879Y212509D01*
X1089879Y220131D01*
X1097501Y220131D01*
X1097501Y214715D01*
X1097328Y214069D01*
X1096993Y213490D01*
X1096520Y213017D01*
X1095941Y212682D01*
X1095295Y212509D01*
X1089879Y212509D01*
G37*
%LPD*%
%LPC*%
G36*
X1077179Y225209D02*
X1077179Y225209D01*
X1077179Y230625D01*
X1077352Y231271D01*
X1077687Y231850D01*
X1078160Y232323D01*
X1078739Y232658D01*
X1079385Y232831D01*
X1084801Y232831D01*
X1084801Y225209D01*
X1077179Y225209D01*
G37*
%LPD*%
%LPC*%
G36*
X1079385Y212509D02*
X1079385Y212509D01*
X1078739Y212682D01*
X1078160Y213017D01*
X1077687Y213490D01*
X1077352Y214069D01*
X1077179Y214715D01*
X1077179Y220131D01*
X1084801Y220131D01*
X1084801Y212509D01*
X1079385Y212509D01*
G37*
%LPD*%
%LPC*%
G36*
X355071Y139001D02*
X355071Y139001D01*
X355071Y145607D01*
X356617Y145607D01*
X361677Y140547D01*
X361677Y139001D01*
X355071Y139001D01*
G37*
%LPD*%
%LPC*%
G36*
X355071Y134939D02*
X355071Y134939D01*
X361677Y134939D01*
X361677Y133393D01*
X356617Y128333D01*
X355071Y128333D01*
X355071Y134939D01*
G37*
%LPD*%
%LPC*%
G36*
X344403Y139001D02*
X344403Y139001D01*
X344403Y140547D01*
X349463Y145607D01*
X351009Y145607D01*
X351009Y139001D01*
X344403Y139001D01*
G37*
%LPD*%
%LPC*%
G36*
X349463Y128333D02*
X349463Y128333D01*
X344403Y133393D01*
X344403Y134939D01*
X351009Y134939D01*
X351009Y128333D01*
X349463Y128333D01*
G37*
%LPD*%
D10*
X353040Y136970D03*
X353040Y162370D03*
X327640Y162370D03*
D11*
X270340Y260470D03*
X270340Y158870D03*
D12*
X74240Y280870D03*
X194240Y160870D03*
X214240Y220870D03*
X74240Y160870D03*
X194240Y280870D03*
D13*
X130340Y769670D03*
D14*
X265740Y566510D02*
X265740Y541110D01*
X214940Y541110D02*
X214940Y566510D01*
X214940Y358230D02*
X214940Y332830D01*
X265740Y332830D02*
X265740Y358230D01*
X145740Y521110D02*
X145740Y546510D01*
X94940Y546510D02*
X94940Y521110D01*
X94940Y338230D02*
X94940Y312830D01*
X145740Y312830D02*
X145740Y338230D01*
D13*
X430340Y769670D03*
X730340Y769670D03*
D15*
X738440Y67290D02*
X738440Y52050D01*
X713040Y52050D02*
X713040Y67290D01*
X687640Y67290D02*
X687640Y52050D01*
X662240Y52050D02*
X662240Y67290D01*
D16*
X1035340Y516670D03*
X985340Y516670D03*
X1087340Y222670D03*
X933340Y222670D03*
D17*
X338440Y532570D03*
X338440Y507170D03*
X338440Y481770D03*
X338440Y456370D03*
X338440Y430970D03*
X338440Y405570D03*
D18*
X821040Y227770D03*
D17*
X821040Y253170D03*
X821040Y278570D03*
X821040Y303970D03*
X821040Y329370D03*
X821040Y354770D03*
X821040Y380170D03*
X821040Y405570D03*
D18*
X821040Y443670D03*
D17*
X821040Y469070D03*
X821040Y494470D03*
X821040Y519870D03*
X821040Y545270D03*
X821040Y570670D03*
X821040Y596070D03*
X821040Y621470D03*
X338440Y354770D03*
X338440Y329370D03*
X338440Y303970D03*
X338440Y278570D03*
X338440Y253170D03*
X338440Y227770D03*
D15*
X563840Y87290D02*
X563840Y72050D01*
X538440Y72050D02*
X538440Y87290D01*
X513040Y87290D02*
X513040Y72050D01*
X487640Y72050D02*
X487640Y87290D01*
X462240Y87290D02*
X462240Y72050D01*
X436840Y72050D02*
X436840Y87290D01*
D19*
X390340Y469670D03*
X415740Y469670D03*
X390340Y444270D03*
X415740Y444270D03*
X390340Y418870D03*
X415740Y418870D03*
D20*
X40340Y39670D03*
X1110340Y39670D03*
X1110340Y769670D03*
X40340Y769670D03*
D21*
X600340Y219670D03*
X660340Y219670D03*
X770340Y199670D03*
X50340Y709670D03*
X1000340Y739670D03*
X517300Y602050D03*
X950340Y89670D03*
X330228Y77384D03*
X805340Y749670D03*
X805340Y769670D03*
X805340Y789670D03*
X205340Y749670D03*
X205340Y769670D03*
X205340Y789670D03*
X355340Y749670D03*
X355340Y769670D03*
X355340Y789670D03*
X505340Y749670D03*
X505340Y769670D03*
X505340Y789670D03*
X655340Y749670D03*
X655340Y769670D03*
X655340Y789670D03*
X545740Y348570D03*
X364440Y235470D03*
X356340Y246870D03*
D22*
X300340Y239670D02*
X300340Y179670D01*
X300340Y239670D02*
X279540Y260470D01*
X270340Y260470D01*
X300340Y179670D02*
X317640Y162370D01*
X327640Y162370D01*
D14*
X130340Y719670D02*
X130340Y769670D01*
D21*
X160340Y709670D03*
D22*
X150340Y719670D01*
X130340Y719670D01*
D14*
X130340Y660470D02*
X100340Y660470D01*
X50340Y309670D02*
X40340Y299670D01*
X40340Y259670D01*
X79140Y220870D02*
X214240Y220870D01*
X130340Y660470D02*
X130340Y719670D01*
X100340Y660470D02*
X50340Y610470D01*
X50340Y309670D01*
X40340Y259670D02*
X79140Y220870D01*
X74240Y280870D02*
X94940Y301570D01*
X94940Y325530D01*
X370340Y709670D02*
X430340Y769670D01*
X370340Y709670D02*
X230340Y709670D01*
X219670Y709670D01*
X170000Y660000D02*
X170000Y640000D01*
X170000Y620000D01*
X140000Y590000D01*
X100000Y590000D01*
X94940Y584940D01*
X94940Y533810D01*
X170000Y660000D02*
X219670Y709670D01*
X620340Y659670D02*
X730340Y769670D01*
X249670Y659670D02*
X220000Y630000D01*
X214940Y553810D02*
X220000Y548870D01*
X249670Y659670D02*
X620340Y659670D01*
X220000Y630000D02*
X220000Y548870D01*
D21*
X440340Y389670D03*
D23*
X470340Y359670D01*
X470340Y339670D01*
D21*
X470340Y339670D03*
X560340Y249670D03*
D23*
X512840Y249670D01*
X495340Y267170D01*
D21*
X495340Y267170D03*
X470340Y209670D03*
D23*
X472840Y209670D01*
X512840Y249670D01*
X337940Y532070D02*
X338440Y532570D01*
X337940Y532070D02*
X320340Y514470D01*
X320340Y389670D01*
X330340Y379670D01*
X350340Y379670D01*
X462840Y267170D02*
X495340Y267170D01*
X462840Y267170D02*
X350340Y379670D01*
X357140Y532070D02*
X337940Y532070D01*
X374404Y434806D02*
X390340Y418870D01*
X374404Y434806D02*
X374404Y461353D01*
X357140Y478617D02*
X357140Y532070D01*
X357140Y478617D02*
X374404Y461353D01*
D21*
X690340Y379670D03*
D23*
X760340Y449670D01*
D21*
X760340Y449670D03*
X455340Y409670D03*
D23*
X410690Y406678D02*
X403548Y413820D01*
X410690Y406678D02*
X420790Y406678D01*
X403548Y431062D02*
X390340Y444270D01*
X423782Y409670D02*
X420790Y406678D01*
X403548Y413820D02*
X403548Y431062D01*
X423782Y409670D02*
X455340Y409670D01*
X470340Y419670D02*
X470349Y419661D01*
D21*
X470349Y419661D03*
D23*
X470340Y419670D02*
X440340Y419670D01*
X410690Y432078D02*
X403548Y439220D01*
X403548Y456462D02*
X390340Y469670D01*
X427932Y432078D02*
X440340Y419670D01*
X403548Y439220D02*
X403548Y456462D01*
X410690Y432078D02*
X427932Y432078D01*
X470840Y410170D02*
X470840Y409170D01*
D21*
X470840Y409170D03*
D23*
X477433Y416763D02*
X480340Y419670D01*
X477433Y416763D02*
X477433Y416727D01*
X473284Y412577D01*
X473247Y412577D01*
X470840Y410170D01*
X470840Y409170D02*
X480000Y418330D01*
X423868Y436142D02*
X415740Y444270D01*
X478562Y419670D02*
X480340Y419670D01*
X462090Y436142D02*
X423868Y436142D01*
X462090Y436142D02*
X478562Y419670D01*
D21*
X510340Y354670D03*
X850340Y419670D03*
D22*
X845340Y424670D01*
X805340Y424670D01*
X700340Y319670D01*
D23*
X510340Y354670D02*
X505340Y359670D01*
X480340Y359670D01*
X447424Y392586D01*
X447424Y392604D01*
X440358Y399670D01*
X400000Y399670D01*
X380340Y399670D01*
X370340Y409670D01*
X370340Y459670D01*
X348240Y481770D01*
X338440Y481770D01*
X338440Y507170D01*
D22*
X640340Y319670D02*
X700340Y319670D01*
D21*
X640340Y319670D03*
D22*
X640340Y309670D01*
X540340Y209670D01*
X537640Y206970D01*
X880340Y189670D02*
X900340Y169670D01*
X880340Y189670D02*
X880340Y389670D01*
X850340Y419670D01*
D21*
X540340Y209670D03*
X900340Y169670D03*
X400000Y399670D03*
X550340Y259670D03*
X515340Y259670D03*
D23*
X550340Y259670D01*
D21*
X720340Y249670D03*
X800340Y380170D03*
D23*
X800340Y329670D02*
X720340Y249670D01*
X800340Y329670D02*
X800340Y380170D01*
D21*
X705340Y249670D03*
X790340Y359670D03*
D23*
X790340Y339670D01*
X705340Y254670D01*
X705340Y249670D01*
D21*
X690340Y249670D03*
X803540Y286470D03*
D23*
X723274Y242586D02*
X697424Y242586D01*
X690340Y249670D01*
X767158Y286470D02*
X803540Y286470D01*
X767158Y286470D02*
X723274Y242586D01*
X753040Y162370D02*
X353040Y162370D01*
X753040Y162370D02*
X800340Y209670D01*
X800340Y259670D01*
X819240Y278570D01*
X821040Y278570D01*
M02*
