M48
;GenerationSoftware,Autodesk,EAGLE,9.0.1*%
;CreationDate,2018-07-03T17:36:11Z*%
FMAT,2
ICI,OFF
METRIC,TZ,000.000
T7C0.350
T6C0.813
T5C0.900
T4C1.016
T3C1.118
T2C1.321
T1C3.000
%
G90
M71
T1
X4034Y3967
X111034Y3967
X111034Y76967
X4034Y76967
T2
X26574Y34553
X14574Y32553
X9494Y32553
X9494Y53381
X14574Y53381
X21494Y34553
X21494Y55381
X26574Y55381
T3
X27034Y26047
X27034Y15887
T4
X33844Y22777
X33844Y30397
X33844Y25317
X33844Y27857
X33844Y32937
X33844Y35477
X82104Y62147
X82104Y59607
X82104Y57067
X82104Y54527
X82104Y51987
X82104Y49447
X82104Y46907
X82104Y44367
X82104Y40557
X82104Y38017
X82104Y35477
X82104Y32937
X82104Y30397
X82104Y27857
X82104Y25317
X82104Y22777
X33844Y40557
X33844Y43097
X33844Y45637
X33844Y48177
X33844Y50717
X33844Y53257
X93334Y22267
X108734Y22267
X98534Y51667
X68764Y5967
X103534Y51667
X41574Y44427
X71304Y5967
X73844Y5967
X39034Y44427
X41574Y46967
X39034Y46967
X43684Y7967
X66224Y5967
X46224Y7967
X48764Y7967
X51304Y7967
X53844Y7967
X56384Y7967
X39034Y41887
X41574Y41887
T5
X21424Y22087
X7424Y16087
X19424Y28087
X7424Y28087
X19424Y16087
T6
X35304Y13697
X35304Y16237
X32764Y16237
T7
X79034Y35967
X70534Y24967
X80034Y38017
X72034Y24967
X51534Y25967
X90034Y16967
X55034Y25967
X40000Y39967
X54034Y20967
X64034Y31967
X85034Y41967
X51034Y35467
X47084Y40917
X47035Y41966
X45534Y40967
X76034Y44967
X69034Y37967
X47034Y20967
X49534Y26717
X56034Y24967
X47034Y33967
X44034Y38967
X16034Y70967
X35634Y24687
X36444Y23547
X54574Y34857
X65534Y78967
X65534Y76967
X65534Y74967
X50534Y78967
X50534Y76967
X50534Y74967
X35534Y78967
X35534Y76967
X35534Y74967
X20534Y74967
X20534Y78967
X20534Y76967
X80354Y28647
X80534Y76967
X80534Y74967
X33023Y7738
X95034Y8967
X51730Y60205
X80534Y78967
X5034Y70967
X77034Y19967
X66034Y21967
X60034Y21967
X69034Y24967
X100034Y73967
M30