G04 EAGLE Gerber X2 export*
%TF.Part,Single*%
%TF.FileFunction,Legend,Top,1*%
%TF.FilePolarity,Positive*%
%TF.GenerationSoftware,Autodesk,EAGLE,9.0.1*%
%TF.CreationDate,2018-07-03T17:36:12Z*%
G75*
%MOMM*%
%FSLAX34Y34*%
%LPD*%
%AMOC8*
5,1,8,0,0,1.08239X$1,22.5*%
G01*
%ADD10C,0.203200*%
%ADD11C,0.152400*%
%ADD12R,0.889000X0.127000*%
%ADD13R,1.143000X0.127000*%
%ADD14R,1.270000X0.127000*%
%ADD15R,0.508000X0.127000*%
%ADD16R,0.381000X0.127000*%
%ADD17R,0.254000X0.127000*%
%ADD18R,1.397000X0.127000*%
%ADD19R,1.778000X0.127000*%
%ADD20R,1.651000X0.127000*%
%ADD21R,2.159000X0.127000*%
%ADD22R,2.032000X0.127000*%
%ADD23R,0.635000X0.127000*%
%ADD24R,0.127000X0.127000*%
%ADD25R,0.762000X0.127000*%
%ADD26R,2.286000X0.127000*%
%ADD27R,1.016000X0.127000*%
%ADD28R,1.524000X0.127000*%
%ADD29R,2.667000X0.127000*%
%ADD30R,1.905000X0.127000*%
%ADD31R,26.289000X0.127000*%
%ADD32R,3.683000X0.127000*%
%ADD33R,3.556000X0.127000*%
%ADD34R,3.429000X0.127000*%
%ADD35R,26.162000X0.127000*%
%ADD36R,3.048000X0.127000*%
%ADD37R,2.794000X0.127000*%
%ADD38R,2.540000X0.127000*%
%ADD39R,2.413000X0.127000*%
%ADD40R,2.921000X0.127000*%
%ADD41R,3.175000X0.127000*%
%ADD42R,3.302000X0.127000*%
%ADD43R,5.588000X0.127000*%
%ADD44R,5.461000X0.127000*%
%ADD45R,26.035000X0.127000*%
%ADD46R,3.810000X0.127000*%
%ADD47R,10.160000X0.127000*%
%ADD48R,10.033000X0.127000*%
%ADD49R,9.906000X0.127000*%
%ADD50R,9.779000X0.127000*%
%ADD51R,9.652000X0.127000*%
%ADD52R,5.969000X0.127000*%
%ADD53R,19.177000X0.127000*%
%ADD54R,25.781000X0.127000*%
%ADD55R,9.525000X0.127000*%
%ADD56R,25.654000X0.127000*%
%ADD57R,9.398000X0.127000*%
%ADD58R,9.271000X0.127000*%
%ADD59R,9.144000X0.127000*%
%ADD60C,0.101600*%
%ADD61C,0.076200*%
%ADD62C,0.127000*%
%ADD63C,0.050800*%
%ADD64R,2.540000X0.508000*%
%ADD65R,0.762000X1.905000*%
%ADD66C,0.177800*%
%ADD67R,1.143000X1.143000*%
%ADD68R,0.635000X2.794000*%
%ADD69R,0.508000X10.160000*%
%ADD70R,1.778000X0.381000*%
%ADD71R,6.350000X0.889000*%
%ADD72R,0.200000X0.200000*%
%ADD73C,0.025400*%
%ADD74R,0.300000X0.150000*%
%ADD75R,0.300000X0.300000*%


D10*
X53232Y65286D02*
X53232Y80878D01*
X53232Y73082D02*
X61028Y80878D01*
X64926Y80878D01*
X76620Y65286D02*
X84416Y65286D01*
X76620Y65286D02*
X72722Y69184D01*
X72722Y76980D01*
X76620Y80878D01*
X84416Y80878D01*
X88314Y76980D01*
X88314Y73082D01*
X72722Y73082D01*
X96110Y80878D02*
X103906Y65286D01*
X111702Y80878D01*
X142886Y84776D02*
X142886Y69184D01*
X142886Y84776D02*
X146784Y88674D01*
X154580Y88674D01*
X158478Y84776D01*
X158478Y69184D01*
X154580Y65286D01*
X146784Y65286D01*
X142886Y69184D01*
X158478Y84776D01*
X166274Y69184D02*
X166274Y65286D01*
X166274Y69184D02*
X170172Y69184D01*
X170172Y65286D01*
X166274Y65286D01*
X177968Y65286D02*
X193560Y65286D01*
X177968Y65286D02*
X193560Y80878D01*
X193560Y84776D01*
X189662Y88674D01*
X181866Y88674D01*
X177968Y84776D01*
X123396Y25286D02*
X107804Y25286D01*
X123396Y40878D01*
X123396Y44776D01*
X119498Y48674D01*
X111702Y48674D01*
X107804Y44776D01*
X131192Y44776D02*
X131192Y29184D01*
X131192Y44776D02*
X135090Y48674D01*
X142886Y48674D01*
X146784Y44776D01*
X146784Y29184D01*
X142886Y25286D01*
X135090Y25286D01*
X131192Y29184D01*
X146784Y44776D01*
X154580Y40878D02*
X162376Y48674D01*
X162376Y25286D01*
X154580Y25286D02*
X170172Y25286D01*
X177968Y44776D02*
X181866Y48674D01*
X189662Y48674D01*
X193560Y44776D01*
X193560Y40878D01*
X189662Y36980D01*
X193560Y33082D01*
X193560Y29184D01*
X189662Y25286D01*
X181866Y25286D01*
X177968Y29184D01*
X177968Y33082D01*
X181866Y36980D01*
X177968Y40878D01*
X177968Y44776D01*
X181866Y36980D02*
X189662Y36980D01*
D11*
X659025Y15009D02*
X661737Y15009D01*
X664449Y17720D01*
X664449Y31279D01*
X656314Y31279D01*
X653602Y28567D01*
X653602Y23144D01*
X656314Y20432D01*
X664449Y20432D01*
D10*
X677968Y29480D02*
X693560Y29480D01*
D11*
X709959Y30999D02*
X709959Y20152D01*
X709959Y25575D02*
X715382Y30999D01*
X718094Y30999D01*
X731102Y38227D02*
X731102Y20432D01*
X740000Y20432D01*
X742965Y23398D01*
X742965Y29330D01*
X740000Y32295D01*
X731102Y32295D01*
X544646Y35858D02*
X533800Y35858D01*
X544646Y35858D02*
X547358Y38569D01*
X536511Y38569D02*
X536511Y33146D01*
X536511Y44060D02*
X547358Y54907D01*
X547358Y44060D02*
X536511Y54907D01*
X517358Y30417D02*
X506511Y30417D01*
X511935Y30417D02*
X506511Y35841D01*
X506511Y38552D01*
X506511Y44060D02*
X517358Y54907D01*
X517358Y44060D02*
X506511Y54907D01*
X492358Y16741D02*
X481511Y11317D01*
X481511Y22164D02*
X492358Y16741D01*
X481511Y30400D02*
X481511Y38535D01*
X481511Y30400D02*
X484223Y27689D01*
X489646Y27689D01*
X492358Y30400D01*
X492358Y38535D01*
X481511Y46772D02*
X481511Y54907D01*
X481511Y46772D02*
X484223Y44060D01*
X489646Y44060D01*
X492358Y46772D01*
X492358Y54907D01*
X472781Y19452D02*
X472781Y16741D01*
X472781Y19452D02*
X470070Y22164D01*
X456511Y22164D01*
X456511Y14029D01*
X459223Y11317D01*
X464646Y11317D01*
X467358Y14029D01*
X467358Y22164D01*
X467358Y27689D02*
X456511Y27689D01*
X456511Y35824D01*
X459223Y38535D01*
X467358Y38535D01*
X467358Y54907D02*
X451088Y54907D01*
X467358Y54907D02*
X467358Y46772D01*
X464646Y44060D01*
X459223Y44060D01*
X456511Y46772D01*
X456511Y54907D01*
X447781Y19452D02*
X447781Y16741D01*
X447781Y19452D02*
X445070Y22164D01*
X431511Y22164D01*
X431511Y14029D01*
X434223Y11317D01*
X439646Y11317D01*
X442358Y14029D01*
X442358Y22164D01*
X442358Y27689D02*
X431511Y27689D01*
X431511Y35824D01*
X434223Y38535D01*
X442358Y38535D01*
X442358Y54907D02*
X426088Y54907D01*
X442358Y54907D02*
X442358Y46772D01*
X439646Y44060D01*
X434223Y44060D01*
X431511Y46772D01*
X431511Y54907D01*
X561511Y19503D02*
X572358Y19503D01*
X566935Y19503D02*
X561511Y24926D01*
X561511Y27638D01*
X572358Y33146D02*
X572358Y41281D01*
X569646Y43993D01*
X566935Y41281D01*
X566935Y35858D01*
X564223Y33146D01*
X561511Y35858D01*
X561511Y43993D01*
X558800Y52229D02*
X569646Y52229D01*
X572358Y54941D01*
X561511Y54941D02*
X561511Y49518D01*
D12*
X377390Y491460D03*
D13*
X420570Y491460D03*
D14*
X460575Y491460D03*
D15*
X479625Y491460D03*
D16*
X506930Y491460D03*
X524710Y491460D03*
D15*
X540585Y491460D03*
D12*
X590750Y491460D03*
D17*
X628215Y491460D03*
X651075Y491460D03*
D16*
X679650Y491460D03*
X706320Y491460D03*
D13*
X746960Y491460D03*
D16*
X774900Y491460D03*
X797760Y491460D03*
D18*
X377390Y492730D03*
D19*
X419935Y492730D03*
D14*
X460575Y492730D03*
D16*
X480260Y492730D03*
X506930Y492730D03*
X524710Y492730D03*
X539950Y492730D03*
D18*
X590750Y492730D03*
D17*
X628215Y492730D03*
X651075Y492730D03*
D16*
X679650Y492730D03*
X706320Y492730D03*
D19*
X746325Y492730D03*
D16*
X774900Y492730D03*
X797760Y492730D03*
D20*
X377390Y494000D03*
D21*
X420570Y494000D03*
D14*
X460575Y494000D03*
D15*
X480895Y494000D03*
X506295Y494000D03*
D16*
X524710Y494000D03*
D15*
X539315Y494000D03*
D20*
X590750Y494000D03*
D16*
X627580Y494000D03*
X650440Y494000D03*
X679650Y494000D03*
X706320Y494000D03*
D22*
X746325Y494000D03*
D16*
X774900Y494000D03*
X797760Y494000D03*
D23*
X371040Y495270D03*
X383740Y495270D03*
X411680Y495270D03*
X429460Y495270D03*
D16*
X456130Y495270D03*
X481530Y495270D03*
X505660Y495270D03*
X524710Y495270D03*
D15*
X538045Y495270D03*
D23*
X584400Y495270D03*
D15*
X597735Y495270D03*
X628215Y495270D03*
X651075Y495270D03*
D16*
X679650Y495270D03*
X706320Y495270D03*
D23*
X738070Y495270D03*
X754580Y495270D03*
D16*
X774900Y495270D03*
X797760Y495270D03*
X369770Y496540D03*
X385010Y496540D03*
D15*
X409775Y496540D03*
X431365Y496540D03*
D16*
X456130Y496540D03*
X481530Y496540D03*
D15*
X505025Y496540D03*
D16*
X524710Y496540D03*
X537410Y496540D03*
D15*
X583765Y496540D03*
X599005Y496540D03*
X628215Y496540D03*
X651075Y496540D03*
D16*
X679650Y496540D03*
X706320Y496540D03*
D23*
X735530Y496540D03*
D16*
X755850Y496540D03*
X774900Y496540D03*
X797760Y496540D03*
D15*
X369135Y497810D03*
X385645Y497810D03*
X408505Y497810D03*
X432635Y497810D03*
D16*
X456130Y497810D03*
X482800Y497810D03*
X504390Y497810D03*
X524710Y497810D03*
D15*
X536775Y497810D03*
X582495Y497810D03*
D16*
X599640Y497810D03*
D23*
X627580Y497810D03*
X650440Y497810D03*
D16*
X679650Y497810D03*
X706320Y497810D03*
D15*
X734895Y497810D03*
D24*
X757120Y497810D03*
D16*
X774900Y497810D03*
X797760Y497810D03*
X368500Y499080D03*
X386280Y499080D03*
D15*
X407235Y499080D03*
X433905Y499080D03*
D16*
X456130Y499080D03*
X482800Y499080D03*
X504390Y499080D03*
X524710Y499080D03*
D15*
X535505Y499080D03*
D16*
X581860Y499080D03*
X599640Y499080D03*
D25*
X628215Y499080D03*
X651075Y499080D03*
D16*
X679650Y499080D03*
X706320Y499080D03*
D15*
X733625Y499080D03*
D16*
X774900Y499080D03*
X797760Y499080D03*
D24*
X369770Y500350D03*
D16*
X386280Y500350D03*
D15*
X405965Y500350D03*
D16*
X434540Y500350D03*
X456130Y500350D03*
D15*
X483435Y500350D03*
X503755Y500350D03*
D16*
X524710Y500350D03*
D15*
X534235Y500350D03*
D24*
X583130Y500350D03*
D16*
X599640Y500350D03*
D25*
X628215Y500350D03*
D12*
X650440Y500350D03*
D16*
X679650Y500350D03*
X706320Y500350D03*
D15*
X732355Y500350D03*
D16*
X774900Y500350D03*
X797760Y500350D03*
X386280Y501620D03*
X405330Y501620D03*
D15*
X435175Y501620D03*
D16*
X456130Y501620D03*
D26*
X493595Y501620D03*
D16*
X524710Y501620D03*
X533600Y501620D03*
X599640Y501620D03*
X625040Y501620D03*
D15*
X630755Y501620D03*
D16*
X647900Y501620D03*
X652980Y501620D03*
X679650Y501620D03*
X706320Y501620D03*
X731720Y501620D03*
X774900Y501620D03*
X797760Y501620D03*
X386280Y502890D03*
X405330Y502890D03*
X435810Y502890D03*
X456130Y502890D03*
D26*
X493595Y502890D03*
D16*
X524710Y502890D03*
D15*
X532965Y502890D03*
D16*
X599640Y502890D03*
X625040Y502890D03*
X631390Y502890D03*
X647900Y502890D03*
X654250Y502890D03*
X679650Y502890D03*
X706320Y502890D03*
D15*
X731085Y502890D03*
D16*
X774900Y502890D03*
X797760Y502890D03*
X386280Y504160D03*
D15*
X404695Y504160D03*
D16*
X435810Y504160D03*
X456130Y504160D03*
D22*
X493595Y504160D03*
D16*
X524710Y504160D03*
D15*
X531695Y504160D03*
D16*
X599640Y504160D03*
X625040Y504160D03*
D15*
X632025Y504160D03*
X647265Y504160D03*
D16*
X654250Y504160D03*
X679650Y504160D03*
X706320Y504160D03*
X730450Y504160D03*
X774900Y504160D03*
X797760Y504160D03*
D15*
X385645Y505430D03*
D16*
X404060Y505430D03*
X437080Y505430D03*
X456130Y505430D03*
X485340Y505430D03*
X501850Y505430D03*
X524710Y505430D03*
X531060Y505430D03*
D15*
X599005Y505430D03*
D16*
X623770Y505430D03*
X632660Y505430D03*
X646630Y505430D03*
X654250Y505430D03*
X679650Y505430D03*
X706320Y505430D03*
X730450Y505430D03*
X774900Y505430D03*
X797760Y505430D03*
D23*
X383740Y506700D03*
D16*
X404060Y506700D03*
X437080Y506700D03*
X456130Y506700D03*
X486610Y506700D03*
X500580Y506700D03*
D27*
X527885Y506700D03*
D23*
X597100Y506700D03*
D16*
X623770Y506700D03*
X632660Y506700D03*
D15*
X645995Y506700D03*
D16*
X655520Y506700D03*
X679650Y506700D03*
X706320Y506700D03*
X730450Y506700D03*
X774900Y506700D03*
X797760Y506700D03*
D25*
X381835Y507970D03*
D16*
X404060Y507970D03*
X437080Y507970D03*
X456130Y507970D03*
X486610Y507970D03*
X500580Y507970D03*
D14*
X529155Y507970D03*
D23*
X595830Y507970D03*
D15*
X623135Y507970D03*
X633295Y507970D03*
D16*
X645360Y507970D03*
X655520Y507970D03*
X679650Y507970D03*
X706320Y507970D03*
X730450Y507970D03*
X774900Y507970D03*
X797760Y507970D03*
D12*
X379930Y509240D03*
D16*
X404060Y509240D03*
X437080Y509240D03*
X456130Y509240D03*
X487880Y509240D03*
D15*
X499945Y509240D03*
D28*
X530425Y509240D03*
D12*
X593290Y509240D03*
D16*
X622500Y509240D03*
X633930Y509240D03*
X645360Y509240D03*
D15*
X656155Y509240D03*
D16*
X679650Y509240D03*
X706320Y509240D03*
X730450Y509240D03*
D29*
X786330Y509240D03*
D12*
X377390Y510510D03*
D16*
X404060Y510510D03*
X437080Y510510D03*
X456130Y510510D03*
X487880Y510510D03*
X499310Y510510D03*
X524710Y510510D03*
D25*
X535505Y510510D03*
D12*
X590750Y510510D03*
D16*
X622500Y510510D03*
D15*
X634565Y510510D03*
X644725Y510510D03*
D16*
X656790Y510510D03*
X679650Y510510D03*
X706320Y510510D03*
X730450Y510510D03*
D29*
X786330Y510510D03*
D25*
X375485Y511780D03*
D16*
X404060Y511780D03*
X437080Y511780D03*
X456130Y511780D03*
D15*
X488515Y511780D03*
X498675Y511780D03*
D16*
X524710Y511780D03*
X537410Y511780D03*
D25*
X588845Y511780D03*
D15*
X621865Y511780D03*
D16*
X635200Y511780D03*
X644090Y511780D03*
X656790Y511780D03*
X679650Y511780D03*
X706320Y511780D03*
X730450Y511780D03*
D29*
X786330Y511780D03*
D23*
X373580Y513050D03*
D16*
X404060Y513050D03*
D15*
X436445Y513050D03*
D16*
X456130Y513050D03*
X489150Y513050D03*
X498040Y513050D03*
X524710Y513050D03*
X538680Y513050D03*
D23*
X586940Y513050D03*
D16*
X621230Y513050D03*
X635200Y513050D03*
D15*
X643455Y513050D03*
X657425Y513050D03*
D16*
X679650Y513050D03*
X706320Y513050D03*
X730450Y513050D03*
X774900Y513050D03*
X797760Y513050D03*
D15*
X371675Y514320D03*
X404695Y514320D03*
D16*
X435810Y514320D03*
X456130Y514320D03*
X489150Y514320D03*
X498040Y514320D03*
X524710Y514320D03*
X538680Y514320D03*
D15*
X585035Y514320D03*
D16*
X621230Y514320D03*
D15*
X635835Y514320D03*
D16*
X642820Y514320D03*
X658060Y514320D03*
X679650Y514320D03*
X706320Y514320D03*
D15*
X731085Y514320D03*
D16*
X774900Y514320D03*
X797760Y514320D03*
X371040Y515590D03*
X405330Y515590D03*
X435810Y515590D03*
X456130Y515590D03*
X490420Y515590D03*
X496770Y515590D03*
X524710Y515590D03*
X538680Y515590D03*
X584400Y515590D03*
D15*
X620595Y515590D03*
D16*
X636470Y515590D03*
X642820Y515590D03*
X658060Y515590D03*
X679650Y515590D03*
X706320Y515590D03*
X731720Y515590D03*
X774900Y515590D03*
X797760Y515590D03*
D15*
X370405Y516860D03*
X405965Y516860D03*
D16*
X434540Y516860D03*
X456130Y516860D03*
X490420Y516860D03*
X496770Y516860D03*
X524710Y516860D03*
X538680Y516860D03*
X584400Y516860D03*
X619960Y516860D03*
X636470Y516860D03*
D15*
X642185Y516860D03*
D16*
X659330Y516860D03*
X679650Y516860D03*
X706320Y516860D03*
D15*
X732355Y516860D03*
D16*
X774900Y516860D03*
X797760Y516860D03*
X369770Y518130D03*
D15*
X407235Y518130D03*
X433905Y518130D03*
D16*
X456130Y518130D03*
D12*
X494230Y518130D03*
D16*
X524710Y518130D03*
X538680Y518130D03*
D15*
X583765Y518130D03*
D16*
X619960Y518130D03*
D25*
X639645Y518130D03*
D16*
X659330Y518130D03*
X679650Y518130D03*
X706320Y518130D03*
X732990Y518130D03*
X774900Y518130D03*
X797760Y518130D03*
D15*
X370405Y519400D03*
D16*
X407870Y519400D03*
D15*
X432635Y519400D03*
D16*
X456130Y519400D03*
D25*
X493595Y519400D03*
D16*
X524710Y519400D03*
X538680Y519400D03*
X584400Y519400D03*
X618690Y519400D03*
D25*
X639645Y519400D03*
D15*
X659965Y519400D03*
D16*
X679650Y519400D03*
X706320Y519400D03*
D15*
X733625Y519400D03*
D24*
X757120Y519400D03*
D16*
X774900Y519400D03*
X797760Y519400D03*
X371040Y520670D03*
D17*
X384375Y520670D03*
D23*
X409140Y520670D03*
D15*
X431365Y520670D03*
D16*
X456130Y520670D03*
D23*
X494230Y520670D03*
D16*
X524710Y520670D03*
D15*
X538045Y520670D03*
D16*
X584400Y520670D03*
D17*
X597735Y520670D03*
D16*
X618690Y520670D03*
D23*
X639010Y520670D03*
D16*
X660600Y520670D03*
X679650Y520670D03*
X706320Y520670D03*
D15*
X734895Y520670D03*
D17*
X756485Y520670D03*
D16*
X774900Y520670D03*
X797760Y520670D03*
D15*
X371675Y521940D03*
X384375Y521940D03*
D23*
X410410Y521940D03*
D15*
X430095Y521940D03*
D16*
X456130Y521940D03*
D15*
X493595Y521940D03*
D16*
X524710Y521940D03*
D15*
X536775Y521940D03*
X585035Y521940D03*
D16*
X598370Y521940D03*
D15*
X618055Y521940D03*
X639645Y521940D03*
D16*
X660600Y521940D03*
X679650Y521940D03*
X706320Y521940D03*
D23*
X736800Y521940D03*
D15*
X755215Y521940D03*
D16*
X774900Y521940D03*
X797760Y521940D03*
D23*
X373580Y523210D03*
X382470Y523210D03*
D12*
X412950Y523210D03*
D25*
X427555Y523210D03*
D16*
X456130Y523210D03*
D15*
X493595Y523210D03*
D20*
X531060Y523210D03*
D23*
X586940Y523210D03*
X597100Y523210D03*
D16*
X617420Y523210D03*
X639010Y523210D03*
D15*
X661235Y523210D03*
D16*
X679650Y523210D03*
D21*
X706320Y523210D03*
D12*
X739340Y523210D03*
X753310Y523210D03*
D16*
X774900Y523210D03*
X797760Y523210D03*
D28*
X378025Y524480D03*
D30*
X420570Y524480D03*
D16*
X456130Y524480D03*
D17*
X493595Y524480D03*
D18*
X529790Y524480D03*
X592020Y524480D03*
D16*
X617420Y524480D03*
D17*
X639645Y524480D03*
D16*
X661870Y524480D03*
X679650Y524480D03*
D21*
X706320Y524480D03*
D30*
X746960Y524480D03*
D16*
X774900Y524480D03*
X797760Y524480D03*
D27*
X378025Y525750D03*
D18*
X420570Y525750D03*
D16*
X456130Y525750D03*
D17*
X493595Y525750D03*
D13*
X528520Y525750D03*
D27*
X591385Y525750D03*
D15*
X616785Y525750D03*
D17*
X639645Y525750D03*
D16*
X661870Y525750D03*
X679650Y525750D03*
D21*
X706320Y525750D03*
D18*
X746960Y525750D03*
D15*
X775535Y525750D03*
D16*
X797760Y525750D03*
D17*
X378025Y527020D03*
D16*
X420570Y527020D03*
D24*
X494230Y527020D03*
D16*
X592020Y527020D03*
D24*
X639010Y527020D03*
D16*
X746960Y527020D03*
D26*
X446605Y538450D03*
D19*
X483435Y538450D03*
D21*
X520900Y538450D03*
D31*
X670760Y538450D03*
D32*
X383740Y539720D03*
D26*
X446605Y539720D03*
D19*
X483435Y539720D03*
D21*
X520900Y539720D03*
D31*
X670760Y539720D03*
D33*
X384375Y540990D03*
D26*
X446605Y540990D03*
D19*
X483435Y540990D03*
D21*
X520900Y540990D03*
D31*
X670760Y540990D03*
D33*
X384375Y542260D03*
D21*
X447240Y542260D03*
D30*
X484070Y542260D03*
D21*
X520900Y542260D03*
D31*
X670760Y542260D03*
D33*
X385645Y543530D03*
D26*
X447875Y543530D03*
D30*
X484070Y543530D03*
D21*
X520900Y543530D03*
D31*
X670760Y543530D03*
D33*
X385645Y544800D03*
D26*
X447875Y544800D03*
D30*
X484070Y544800D03*
D21*
X520900Y544800D03*
D31*
X670760Y544800D03*
D34*
X386280Y546070D03*
D26*
X447875Y546070D03*
D22*
X484705Y546070D03*
D21*
X520900Y546070D03*
D31*
X670760Y546070D03*
D33*
X386915Y547340D03*
D21*
X448510Y547340D03*
D22*
X484705Y547340D03*
D21*
X520900Y547340D03*
D31*
X670760Y547340D03*
D33*
X386915Y548610D03*
D21*
X448510Y548610D03*
D22*
X484705Y548610D03*
D21*
X522170Y548610D03*
D31*
X670760Y548610D03*
D33*
X388185Y549880D03*
D26*
X449145Y549880D03*
D21*
X485340Y549880D03*
X522170Y549880D03*
D35*
X671395Y549880D03*
D33*
X388185Y551150D03*
D26*
X449145Y551150D03*
D21*
X485340Y551150D03*
X522170Y551150D03*
D30*
X550110Y551150D03*
D16*
X572970Y551150D03*
D15*
X586305Y551150D03*
D24*
X599640Y551150D03*
D25*
X614245Y551150D03*
D13*
X633930Y551150D03*
D23*
X654250Y551150D03*
D15*
X670125Y551150D03*
D23*
X686000Y551150D03*
X701240Y551150D03*
D25*
X717115Y551150D03*
D23*
X732990Y551150D03*
X757120Y551150D03*
D36*
X786965Y551150D03*
D34*
X388820Y552420D03*
D26*
X449145Y552420D03*
X485975Y552420D03*
D21*
X522170Y552420D03*
D22*
X550745Y552420D03*
D16*
X572970Y552420D03*
D15*
X586305Y552420D03*
D24*
X599640Y552420D03*
D25*
X614245Y552420D03*
D27*
X633295Y552420D03*
D23*
X655520Y552420D03*
D15*
X670125Y552420D03*
D23*
X686000Y552420D03*
D15*
X701875Y552420D03*
X717115Y552420D03*
X733625Y552420D03*
X757755Y552420D03*
D37*
X788235Y552420D03*
D33*
X389455Y553690D03*
D21*
X449780Y553690D03*
D26*
X485975Y553690D03*
D21*
X522170Y553690D03*
D22*
X550745Y553690D03*
D16*
X572970Y553690D03*
D15*
X586305Y553690D03*
D17*
X600275Y553690D03*
D23*
X614880Y553690D03*
D12*
X632660Y553690D03*
D23*
X655520Y553690D03*
D16*
X670760Y553690D03*
D23*
X686000Y553690D03*
D15*
X701875Y553690D03*
X717115Y553690D03*
X733625Y553690D03*
X757755Y553690D03*
D29*
X788870Y553690D03*
D34*
X390090Y554960D03*
D21*
X449780Y554960D03*
D26*
X485975Y554960D03*
D21*
X522170Y554960D03*
D22*
X550745Y554960D03*
D16*
X572970Y554960D03*
X586940Y554960D03*
D17*
X600275Y554960D03*
D23*
X614880Y554960D03*
D25*
X632025Y554960D03*
D23*
X655520Y554960D03*
D16*
X670760Y554960D03*
D23*
X686000Y554960D03*
D15*
X701875Y554960D03*
X717115Y554960D03*
X733625Y554960D03*
X757755Y554960D03*
D38*
X789505Y554960D03*
D34*
X390090Y556230D03*
D26*
X450415Y556230D03*
D39*
X486610Y556230D03*
D21*
X522170Y556230D03*
X551380Y556230D03*
D17*
X573605Y556230D03*
D16*
X586940Y556230D03*
D17*
X600275Y556230D03*
D23*
X631390Y556230D03*
D15*
X656155Y556230D03*
X671395Y556230D03*
X686635Y556230D03*
D23*
X702510Y556230D03*
D15*
X717115Y556230D03*
D23*
X734260Y556230D03*
D15*
X757755Y556230D03*
D39*
X790140Y556230D03*
D34*
X391360Y557500D03*
D26*
X450415Y557500D03*
D39*
X486610Y557500D03*
D21*
X522170Y557500D03*
X551380Y557500D03*
D17*
X573605Y557500D03*
X587575Y557500D03*
D16*
X600910Y557500D03*
D23*
X631390Y557500D03*
D15*
X656155Y557500D03*
X671395Y557500D03*
X686635Y557500D03*
D23*
X702510Y557500D03*
D15*
X717115Y557500D03*
D23*
X734260Y557500D03*
D15*
X757755Y557500D03*
D26*
X790775Y557500D03*
D34*
X391360Y558770D03*
D21*
X451050Y558770D03*
D39*
X486610Y558770D03*
D21*
X522170Y558770D03*
X551380Y558770D03*
D17*
X573605Y558770D03*
X587575Y558770D03*
D16*
X600910Y558770D03*
D23*
X631390Y558770D03*
D15*
X656155Y558770D03*
X671395Y558770D03*
X686635Y558770D03*
D23*
X702510Y558770D03*
D15*
X717115Y558770D03*
D23*
X734260Y558770D03*
D15*
X757755Y558770D03*
D26*
X790775Y558770D03*
D33*
X391995Y560040D03*
D21*
X451050Y560040D03*
D38*
X487245Y560040D03*
D21*
X522170Y560040D03*
X551380Y560040D03*
D17*
X573605Y560040D03*
D16*
X588210Y560040D03*
D15*
X601545Y560040D03*
X630755Y560040D03*
D23*
X649170Y560040D03*
X656790Y560040D03*
D15*
X671395Y560040D03*
D23*
X687270Y560040D03*
X702510Y560040D03*
D17*
X717115Y560040D03*
D23*
X734260Y560040D03*
D14*
X753945Y560040D03*
D15*
X766645Y560040D03*
D26*
X790775Y560040D03*
D21*
X451050Y561310D03*
D38*
X487245Y561310D03*
D21*
X522170Y561310D03*
D26*
X552015Y561310D03*
D24*
X574240Y561310D03*
D17*
X588845Y561310D03*
D15*
X601545Y561310D03*
X630755Y561310D03*
D28*
X652345Y561310D03*
D16*
X672030Y561310D03*
D23*
X687270Y561310D03*
D15*
X703145Y561310D03*
D17*
X717115Y561310D03*
D15*
X734895Y561310D03*
D18*
X754580Y561310D03*
D25*
X766645Y561310D03*
D21*
X791410Y561310D03*
D26*
X451685Y562580D03*
D38*
X487245Y562580D03*
D22*
X522805Y562580D03*
D26*
X552015Y562580D03*
D24*
X574240Y562580D03*
D17*
X588845Y562580D03*
D15*
X601545Y562580D03*
X630755Y562580D03*
D20*
X651710Y562580D03*
D16*
X672030Y562580D03*
D23*
X687270Y562580D03*
D15*
X703145Y562580D03*
D17*
X717115Y562580D03*
D15*
X734895Y562580D03*
D26*
X759025Y562580D03*
D21*
X791410Y562580D03*
X452320Y563850D03*
D29*
X487880Y563850D03*
D22*
X522805Y563850D03*
D26*
X552015Y563850D03*
D24*
X574240Y563850D03*
D17*
X588845Y563850D03*
D23*
X602180Y563850D03*
D16*
X616150Y563850D03*
D15*
X630755Y563850D03*
D20*
X651710Y563850D03*
D15*
X672665Y563850D03*
D23*
X687270Y563850D03*
X703780Y563850D03*
D17*
X717115Y563850D03*
D23*
X735530Y563850D03*
D21*
X758390Y563850D03*
X791410Y563850D03*
X452320Y565120D03*
D37*
X487245Y565120D03*
D22*
X522805Y565120D03*
D26*
X552015Y565120D03*
D24*
X574240Y565120D03*
X589480Y565120D03*
D15*
X602815Y565120D03*
D17*
X616785Y565120D03*
D15*
X630755Y565120D03*
D20*
X651710Y565120D03*
D15*
X672665Y565120D03*
X687905Y565120D03*
D23*
X703780Y565120D03*
D17*
X717115Y565120D03*
D23*
X735530Y565120D03*
D14*
X761565Y565120D03*
D21*
X791410Y565120D03*
X452320Y566390D03*
D37*
X487245Y566390D03*
D22*
X522805Y566390D03*
D39*
X552650Y566390D03*
D24*
X574240Y566390D03*
X589480Y566390D03*
D23*
X603450Y566390D03*
D17*
X616785Y566390D03*
D15*
X630755Y566390D03*
D20*
X651710Y566390D03*
D15*
X687905Y566390D03*
D23*
X703780Y566390D03*
D24*
X716480Y566390D03*
D23*
X735530Y566390D03*
D27*
X761565Y566390D03*
D21*
X791410Y566390D03*
X452320Y567660D03*
D40*
X487880Y567660D03*
D22*
X522805Y567660D03*
D39*
X552650Y567660D03*
D24*
X574240Y567660D03*
X589480Y567660D03*
D23*
X603450Y567660D03*
D17*
X616785Y567660D03*
D15*
X630755Y567660D03*
D19*
X652345Y567660D03*
D23*
X688540Y567660D03*
X703780Y567660D03*
D24*
X716480Y567660D03*
X724100Y567660D03*
D23*
X735530Y567660D03*
D12*
X760930Y567660D03*
D21*
X791410Y567660D03*
X453590Y568930D03*
D40*
X487880Y568930D03*
D22*
X522805Y568930D03*
D39*
X552650Y568930D03*
D23*
X603450Y568930D03*
D17*
X616785Y568930D03*
D15*
X630755Y568930D03*
D19*
X652345Y568930D03*
D23*
X688540Y568930D03*
D15*
X704415Y568930D03*
D24*
X716480Y568930D03*
X724100Y568930D03*
D15*
X736165Y568930D03*
D25*
X760295Y568930D03*
D26*
X790775Y568930D03*
D21*
X453590Y570200D03*
D40*
X487880Y570200D03*
D22*
X522805Y570200D03*
D38*
X553285Y570200D03*
D24*
X590750Y570200D03*
D25*
X604085Y570200D03*
D24*
X617420Y570200D03*
D25*
X630755Y570200D03*
D20*
X652980Y570200D03*
D23*
X688540Y570200D03*
D15*
X704415Y570200D03*
D24*
X716480Y570200D03*
X724100Y570200D03*
D15*
X736165Y570200D03*
D25*
X760295Y570200D03*
D39*
X790140Y570200D03*
D21*
X453590Y571470D03*
D36*
X488515Y571470D03*
D22*
X522805Y571470D03*
D38*
X553285Y571470D03*
D24*
X583130Y571470D03*
D25*
X604085Y571470D03*
D17*
X618055Y571470D03*
D25*
X630755Y571470D03*
D20*
X652980Y571470D03*
D23*
X688540Y571470D03*
D15*
X704415Y571470D03*
D17*
X723465Y571470D03*
D23*
X736800Y571470D03*
X759660Y571470D03*
D38*
X789505Y571470D03*
D21*
X453590Y572740D03*
D36*
X488515Y572740D03*
D21*
X523440Y572740D03*
D39*
X553920Y572740D03*
D24*
X583130Y572740D03*
D12*
X604720Y572740D03*
D17*
X618055Y572740D03*
D25*
X630755Y572740D03*
D20*
X652980Y572740D03*
D15*
X689175Y572740D03*
D23*
X705050Y572740D03*
D17*
X723465Y572740D03*
D23*
X736800Y572740D03*
D15*
X760295Y572740D03*
D29*
X788870Y572740D03*
D22*
X454225Y574010D03*
D36*
X488515Y574010D03*
D21*
X523440Y574010D03*
D39*
X553920Y574010D03*
D24*
X583130Y574010D03*
D12*
X604720Y574010D03*
D24*
X618690Y574010D03*
D25*
X630755Y574010D03*
D28*
X653615Y574010D03*
D15*
X689175Y574010D03*
D23*
X705050Y574010D03*
D17*
X723465Y574010D03*
D23*
X736800Y574010D03*
D14*
X756485Y574010D03*
D37*
X788235Y574010D03*
D21*
X454860Y575280D03*
D41*
X489150Y575280D03*
D21*
X523440Y575280D03*
D38*
X554555Y575280D03*
D17*
X583765Y575280D03*
D12*
X604720Y575280D03*
D24*
X618690Y575280D03*
D12*
X631390Y575280D03*
D28*
X653615Y575280D03*
D15*
X673935Y575280D03*
D23*
X689810Y575280D03*
X705050Y575280D03*
D17*
X723465Y575280D03*
D23*
X736800Y575280D03*
D14*
X756485Y575280D03*
D40*
X787600Y575280D03*
D21*
X454860Y576550D03*
D41*
X489150Y576550D03*
D22*
X524075Y576550D03*
D38*
X554555Y576550D03*
D17*
X583765Y576550D03*
D27*
X605355Y576550D03*
D24*
X618690Y576550D03*
D12*
X631390Y576550D03*
D28*
X654885Y576550D03*
D15*
X673935Y576550D03*
D23*
X689810Y576550D03*
X705050Y576550D03*
D17*
X723465Y576550D03*
D15*
X737435Y576550D03*
D14*
X756485Y576550D03*
D25*
X776805Y576550D03*
D22*
X792045Y576550D03*
D21*
X454860Y577820D03*
D41*
X489150Y577820D03*
D22*
X524075Y577820D03*
D38*
X554555Y577820D03*
D17*
X583765Y577820D03*
D27*
X605355Y577820D03*
X632025Y577820D03*
D23*
X651710Y577820D03*
X659330Y577820D03*
D16*
X674570Y577820D03*
D23*
X689810Y577820D03*
D15*
X705685Y577820D03*
D16*
X722830Y577820D03*
D15*
X737435Y577820D03*
D18*
X757120Y577820D03*
D15*
X776805Y577820D03*
D22*
X792045Y577820D03*
X455495Y579090D03*
D42*
X489785Y579090D03*
D22*
X524075Y579090D03*
D38*
X554555Y579090D03*
D16*
X584400Y579090D03*
D13*
X605990Y579090D03*
D27*
X632025Y579090D03*
D23*
X659330Y579090D03*
D15*
X675205Y579090D03*
D23*
X689810Y579090D03*
D15*
X705685Y579090D03*
D16*
X722830Y579090D03*
D15*
X737435Y579090D03*
X761565Y579090D03*
D22*
X792045Y579090D03*
X455495Y580360D03*
D42*
X489785Y580360D03*
D22*
X524075Y580360D03*
D29*
X555190Y580360D03*
D16*
X584400Y580360D03*
D13*
X605990Y580360D03*
X632660Y580360D03*
D23*
X659330Y580360D03*
D15*
X675205Y580360D03*
D23*
X689810Y580360D03*
X706320Y580360D03*
D16*
X722830Y580360D03*
D23*
X738070Y580360D03*
X762200Y580360D03*
D22*
X792045Y580360D03*
D43*
X404695Y581630D03*
D21*
X456130Y581630D03*
D42*
X489785Y581630D03*
D22*
X524075Y581630D03*
D29*
X555190Y581630D03*
D16*
X584400Y581630D03*
D13*
X605990Y581630D03*
D14*
X633295Y581630D03*
D15*
X659965Y581630D03*
X675205Y581630D03*
X690445Y581630D03*
D23*
X706320Y581630D03*
D15*
X723465Y581630D03*
D23*
X738070Y581630D03*
X762200Y581630D03*
D22*
X792045Y581630D03*
D43*
X405965Y582900D03*
D21*
X456130Y582900D03*
D20*
X481530Y582900D03*
X499310Y582900D03*
D22*
X524075Y582900D03*
D29*
X555190Y582900D03*
D15*
X585035Y582900D03*
D14*
X606625Y582900D03*
D18*
X633930Y582900D03*
D15*
X659965Y582900D03*
X675205Y582900D03*
X690445Y582900D03*
D23*
X706320Y582900D03*
D15*
X723465Y582900D03*
D23*
X738070Y582900D03*
D25*
X762835Y582900D03*
D30*
X792680Y582900D03*
D43*
X405965Y584170D03*
D22*
X456765Y584170D03*
D20*
X481530Y584170D03*
X499310Y584170D03*
D22*
X524075Y584170D03*
D37*
X555825Y584170D03*
D15*
X585035Y584170D03*
D14*
X606625Y584170D03*
D28*
X634565Y584170D03*
D23*
X660600Y584170D03*
D15*
X675205Y584170D03*
D23*
X691080Y584170D03*
X706320Y584170D03*
X722830Y584170D03*
X738070Y584170D03*
D25*
X764105Y584170D03*
D30*
X792680Y584170D03*
D44*
X406600Y585440D03*
D22*
X456765Y585440D03*
D20*
X481530Y585440D03*
X499310Y585440D03*
D22*
X524075Y585440D03*
D37*
X555825Y585440D03*
D15*
X585035Y585440D03*
D18*
X607260Y585440D03*
D20*
X635200Y585440D03*
D23*
X660600Y585440D03*
D16*
X675840Y585440D03*
D23*
X691080Y585440D03*
D15*
X706955Y585440D03*
D23*
X722830Y585440D03*
D15*
X738705Y585440D03*
D12*
X764740Y585440D03*
D30*
X792680Y585440D03*
D43*
X407235Y586710D03*
D22*
X456765Y586710D03*
D20*
X481530Y586710D03*
D19*
X499945Y586710D03*
D22*
X524075Y586710D03*
D37*
X555825Y586710D03*
D23*
X585670Y586710D03*
D14*
X607895Y586710D03*
D22*
X637105Y586710D03*
D23*
X660600Y586710D03*
D16*
X675840Y586710D03*
D23*
X691080Y586710D03*
D15*
X706955Y586710D03*
D23*
X722830Y586710D03*
D15*
X738705Y586710D03*
D13*
X766010Y586710D03*
D22*
X792045Y586710D03*
D44*
X407870Y587980D03*
D21*
X457400Y587980D03*
D20*
X481530Y587980D03*
X500580Y587980D03*
D22*
X524075Y587980D03*
D45*
X672030Y587980D03*
D43*
X408505Y589250D03*
D22*
X458035Y589250D03*
D20*
X481530Y589250D03*
X500580Y589250D03*
D22*
X524075Y589250D03*
D45*
X672030Y589250D03*
D43*
X408505Y590520D03*
D22*
X458035Y590520D03*
D20*
X481530Y590520D03*
D19*
X501215Y590520D03*
D30*
X524710Y590520D03*
D45*
X672030Y590520D03*
D43*
X409775Y591790D03*
D22*
X458035Y591790D03*
D20*
X481530Y591790D03*
X501850Y591790D03*
D30*
X524710Y591790D03*
D45*
X672030Y591790D03*
D43*
X409775Y593060D03*
D22*
X458035Y593060D03*
D20*
X481530Y593060D03*
X501850Y593060D03*
D30*
X524710Y593060D03*
D45*
X672030Y593060D03*
D43*
X411045Y594330D03*
D22*
X459305Y594330D03*
D20*
X481530Y594330D03*
X501850Y594330D03*
D30*
X524710Y594330D03*
D37*
X557095Y594330D03*
D39*
X584400Y594330D03*
D20*
X613610Y594330D03*
D28*
X630755Y594330D03*
D25*
X643455Y594330D03*
D15*
X651075Y594330D03*
D46*
X673935Y594330D03*
D15*
X696795Y594330D03*
D23*
X703780Y594330D03*
D25*
X712035Y594330D03*
D17*
X718385Y594330D03*
D25*
X724735Y594330D03*
D39*
X741880Y594330D03*
D23*
X758390Y594330D03*
D20*
X771090Y594330D03*
D21*
X791410Y594330D03*
D43*
X411045Y595600D03*
D22*
X459305Y595600D03*
D20*
X481530Y595600D03*
D19*
X502485Y595600D03*
D30*
X524710Y595600D03*
X552650Y595600D03*
D22*
X583765Y595600D03*
D18*
X614880Y595600D03*
D15*
X634565Y595600D03*
D16*
X650440Y595600D03*
X674570Y595600D03*
D15*
X690445Y595600D03*
X704415Y595600D03*
D24*
X719020Y595600D03*
D12*
X734260Y595600D03*
D16*
X752040Y595600D03*
D23*
X767280Y595600D03*
D21*
X791410Y595600D03*
D44*
X411680Y596870D03*
D22*
X459305Y596870D03*
D20*
X481530Y596870D03*
X503120Y596870D03*
D22*
X525345Y596870D03*
D30*
X552650Y596870D03*
X583130Y596870D03*
D13*
X616150Y596870D03*
D15*
X634565Y596870D03*
X651075Y596870D03*
X675205Y596870D03*
X690445Y596870D03*
X704415Y596870D03*
D24*
X719020Y596870D03*
D25*
X734895Y596870D03*
D16*
X752040Y596870D03*
D23*
X767280Y596870D03*
D22*
X792045Y596870D03*
D43*
X412315Y598140D03*
D22*
X459305Y598140D03*
D20*
X481530Y598140D03*
X503120Y598140D03*
D22*
X525345Y598140D03*
X553285Y598140D03*
D19*
X582495Y598140D03*
D27*
X616785Y598140D03*
D15*
X634565Y598140D03*
X651075Y598140D03*
X675205Y598140D03*
D16*
X691080Y598140D03*
X705050Y598140D03*
D17*
X719655Y598140D03*
D25*
X734895Y598140D03*
D16*
X752040Y598140D03*
D23*
X767280Y598140D03*
D22*
X792045Y598140D03*
D43*
X412315Y599410D03*
D30*
X459940Y599410D03*
D20*
X481530Y599410D03*
D19*
X503755Y599410D03*
D22*
X525345Y599410D03*
X553285Y599410D03*
D19*
X582495Y599410D03*
D12*
X617420Y599410D03*
D16*
X635200Y599410D03*
D23*
X650440Y599410D03*
D15*
X675205Y599410D03*
D16*
X691080Y599410D03*
X705050Y599410D03*
D17*
X719655Y599410D03*
D15*
X751405Y599410D03*
X766645Y599410D03*
D22*
X792045Y599410D03*
D43*
X413585Y600680D03*
D22*
X460575Y600680D03*
D20*
X481530Y600680D03*
X504390Y600680D03*
D22*
X525345Y600680D03*
X553285Y600680D03*
D20*
X581860Y600680D03*
D25*
X618055Y600680D03*
D16*
X635200Y600680D03*
D23*
X650440Y600680D03*
D16*
X675840Y600680D03*
X691080Y600680D03*
X705050Y600680D03*
D17*
X719655Y600680D03*
D15*
X751405Y600680D03*
X766645Y600680D03*
D22*
X792045Y600680D03*
D43*
X413585Y601950D03*
D22*
X460575Y601950D03*
D20*
X481530Y601950D03*
X504390Y601950D03*
D22*
X525345Y601950D03*
X553285Y601950D03*
D20*
X581860Y601950D03*
D12*
X618690Y601950D03*
D17*
X634565Y601950D03*
D23*
X650440Y601950D03*
D15*
X676475Y601950D03*
D16*
X691080Y601950D03*
X706320Y601950D03*
X720290Y601950D03*
D15*
X751405Y601950D03*
X766645Y601950D03*
D22*
X792045Y601950D03*
X460575Y603220D03*
D20*
X481530Y603220D03*
X504390Y603220D03*
D30*
X525980Y603220D03*
D22*
X553285Y603220D03*
D28*
X582495Y603220D03*
D25*
X619325Y603220D03*
D17*
X634565Y603220D03*
D25*
X649805Y603220D03*
D15*
X676475Y603220D03*
D16*
X691080Y603220D03*
X706320Y603220D03*
X720290Y603220D03*
D23*
X752040Y603220D03*
D16*
X767280Y603220D03*
D22*
X792045Y603220D03*
D30*
X461210Y604490D03*
D20*
X481530Y604490D03*
D19*
X505025Y604490D03*
D30*
X525980Y604490D03*
D22*
X553285Y604490D03*
D18*
X581860Y604490D03*
D15*
X602815Y604490D03*
D23*
X619960Y604490D03*
D17*
X634565Y604490D03*
D12*
X650440Y604490D03*
D18*
X672030Y604490D03*
D17*
X691715Y604490D03*
D16*
X706320Y604490D03*
D15*
X720925Y604490D03*
D23*
X752040Y604490D03*
D16*
X767280Y604490D03*
D22*
X792045Y604490D03*
D30*
X461210Y605760D03*
D20*
X481530Y605760D03*
X505660Y605760D03*
D30*
X525980Y605760D03*
D21*
X553920Y605760D03*
D18*
X581860Y605760D03*
D15*
X602815Y605760D03*
D23*
X619960Y605760D03*
D17*
X634565Y605760D03*
D12*
X650440Y605760D03*
D18*
X672030Y605760D03*
D17*
X691715Y605760D03*
X706955Y605760D03*
D15*
X720925Y605760D03*
D23*
X752040Y605760D03*
D17*
X766645Y605760D03*
D30*
X792680Y605760D03*
D22*
X461845Y607030D03*
D20*
X481530Y607030D03*
X505660Y607030D03*
D30*
X525980Y607030D03*
D21*
X553920Y607030D03*
D18*
X581860Y607030D03*
D23*
X603450Y607030D03*
D15*
X620595Y607030D03*
D17*
X634565Y607030D03*
D27*
X649805Y607030D03*
D28*
X672665Y607030D03*
D17*
X691715Y607030D03*
X706955Y607030D03*
D15*
X720925Y607030D03*
D23*
X752040Y607030D03*
D17*
X766645Y607030D03*
D30*
X792680Y607030D03*
D22*
X461845Y608300D03*
D20*
X481530Y608300D03*
D19*
X506295Y608300D03*
D30*
X525980Y608300D03*
D21*
X553920Y608300D03*
D18*
X581860Y608300D03*
D23*
X603450Y608300D03*
D15*
X620595Y608300D03*
D27*
X649805Y608300D03*
D28*
X672665Y608300D03*
D17*
X691715Y608300D03*
X706955Y608300D03*
D23*
X721560Y608300D03*
D16*
X736800Y608300D03*
D23*
X752040Y608300D03*
D17*
X766645Y608300D03*
D30*
X792680Y608300D03*
X462480Y609570D03*
D20*
X481530Y609570D03*
X506930Y609570D03*
D30*
X525980Y609570D03*
D21*
X553920Y609570D03*
D23*
X585670Y609570D03*
D25*
X604085Y609570D03*
D15*
X620595Y609570D03*
D27*
X649805Y609570D03*
D23*
X669490Y609570D03*
X677110Y609570D03*
D24*
X692350Y609570D03*
X707590Y609570D03*
D23*
X721560Y609570D03*
D16*
X736800Y609570D03*
D23*
X752040Y609570D03*
D17*
X766645Y609570D03*
D30*
X792680Y609570D03*
X462480Y610840D03*
D20*
X481530Y610840D03*
X506930Y610840D03*
D30*
X525980Y610840D03*
D21*
X553920Y610840D03*
D15*
X586305Y610840D03*
D25*
X604085Y610840D03*
D15*
X621865Y610840D03*
D27*
X649805Y610840D03*
D25*
X677745Y610840D03*
D24*
X692350Y610840D03*
X707590Y610840D03*
D25*
X722195Y610840D03*
D16*
X736800Y610840D03*
D23*
X752040Y610840D03*
D17*
X766645Y610840D03*
D30*
X792680Y610840D03*
X462480Y612110D03*
D20*
X481530Y612110D03*
X506930Y612110D03*
D30*
X525980Y612110D03*
D21*
X553920Y612110D03*
D15*
X586305Y612110D03*
D25*
X604085Y612110D03*
D15*
X621865Y612110D03*
D12*
X651710Y612110D03*
D25*
X677745Y612110D03*
D24*
X692350Y612110D03*
D17*
X708225Y612110D03*
D25*
X722195Y612110D03*
D17*
X737435Y612110D03*
D25*
X752675Y612110D03*
D17*
X766645Y612110D03*
D30*
X792680Y612110D03*
D32*
X471370Y613380D03*
D33*
X517725Y613380D03*
D26*
X554555Y613380D03*
D15*
X586305Y613380D03*
D25*
X604085Y613380D03*
D15*
X621865Y613380D03*
D25*
X652345Y613380D03*
D23*
X678380Y613380D03*
D24*
X692350Y613380D03*
X708860Y613380D03*
D25*
X722195Y613380D03*
D17*
X737435Y613380D03*
D25*
X752675Y613380D03*
D24*
X766010Y613380D03*
X773630Y613380D03*
D19*
X793315Y613380D03*
D33*
X472005Y614650D03*
X517725Y614650D03*
D26*
X554555Y614650D03*
D15*
X586305Y614650D03*
D12*
X604720Y614650D03*
D15*
X621865Y614650D03*
D23*
X652980Y614650D03*
X678380Y614650D03*
D24*
X692350Y614650D03*
X708860Y614650D03*
D25*
X723465Y614650D03*
D17*
X737435Y614650D03*
D25*
X752675Y614650D03*
D24*
X766010Y614650D03*
X773630Y614650D03*
D19*
X793315Y614650D03*
D33*
X472005Y615920D03*
X517725Y615920D03*
D21*
X555190Y615920D03*
D23*
X586940Y615920D03*
D12*
X604720Y615920D03*
D15*
X621865Y615920D03*
D17*
X637105Y615920D03*
D23*
X652980Y615920D03*
D25*
X679015Y615920D03*
D24*
X692350Y615920D03*
X701240Y615920D03*
X708860Y615920D03*
D25*
X723465Y615920D03*
D24*
X738070Y615920D03*
D25*
X752675Y615920D03*
D24*
X773630Y615920D03*
D19*
X793315Y615920D03*
D33*
X472005Y617190D03*
X517725Y617190D03*
D21*
X555190Y617190D03*
D23*
X586940Y617190D03*
D12*
X604720Y617190D03*
D15*
X621865Y617190D03*
D16*
X637740Y617190D03*
D15*
X653615Y617190D03*
D25*
X679015Y617190D03*
D24*
X701240Y617190D03*
D12*
X724100Y617190D03*
D24*
X738070Y617190D03*
D25*
X752675Y617190D03*
D24*
X773630Y617190D03*
D19*
X793315Y617190D03*
D33*
X472005Y618460D03*
D34*
X518360Y618460D03*
D21*
X555190Y618460D03*
D23*
X586940Y618460D03*
D25*
X605355Y618460D03*
D23*
X622500Y618460D03*
D15*
X638375Y618460D03*
X653615Y618460D03*
D25*
X679015Y618460D03*
D24*
X701240Y618460D03*
D12*
X724100Y618460D03*
D24*
X738070Y618460D03*
D25*
X752675Y618460D03*
D24*
X773630Y618460D03*
D19*
X793315Y618460D03*
D34*
X472640Y619730D03*
X518360Y619730D03*
D21*
X555190Y619730D03*
D18*
X584400Y619730D03*
D25*
X605355Y619730D03*
D23*
X622500Y619730D03*
D15*
X638375Y619730D03*
D23*
X654250Y619730D03*
D28*
X675205Y619730D03*
D24*
X701240Y619730D03*
D12*
X724100Y619730D03*
D24*
X738070Y619730D03*
D12*
X753310Y619730D03*
D16*
X773630Y619730D03*
D19*
X793315Y619730D03*
D34*
X472640Y621000D03*
D33*
X518995Y621000D03*
D21*
X555190Y621000D03*
D18*
X584400Y621000D03*
D25*
X605355Y621000D03*
D23*
X622500Y621000D03*
D15*
X638375Y621000D03*
D23*
X654250Y621000D03*
D20*
X675840Y621000D03*
D17*
X701875Y621000D03*
D27*
X724735Y621000D03*
D24*
X739340Y621000D03*
D12*
X753310Y621000D03*
D16*
X773630Y621000D03*
D20*
X793950Y621000D03*
D34*
X472640Y622270D03*
X519630Y622270D03*
D26*
X555825Y622270D03*
D18*
X584400Y622270D03*
D15*
X605355Y622270D03*
D23*
X622500Y622270D03*
D15*
X638375Y622270D03*
X654885Y622270D03*
D20*
X675840Y622270D03*
D17*
X701875Y622270D03*
D27*
X724735Y622270D03*
D24*
X739340Y622270D03*
D27*
X752675Y622270D03*
D16*
X773630Y622270D03*
D20*
X793950Y622270D03*
D47*
X438985Y623540D03*
D34*
X519630Y623540D03*
D26*
X555825Y623540D03*
D28*
X585035Y623540D03*
D16*
X605990Y623540D03*
D23*
X622500Y623540D03*
D16*
X639010Y623540D03*
D15*
X654885Y623540D03*
D20*
X675840Y623540D03*
D17*
X701875Y623540D03*
D13*
X725370Y623540D03*
D27*
X752675Y623540D03*
D16*
X773630Y623540D03*
D20*
X793950Y623540D03*
D47*
X438985Y624810D03*
D34*
X519630Y624810D03*
D26*
X555825Y624810D03*
D23*
X589480Y624810D03*
X622500Y624810D03*
D24*
X637740Y624810D03*
D15*
X654885Y624810D03*
D25*
X681555Y624810D03*
D16*
X702510Y624810D03*
D13*
X725370Y624810D03*
D27*
X752675Y624810D03*
D16*
X773630Y624810D03*
D20*
X793950Y624810D03*
D48*
X439620Y626080D03*
D34*
X519630Y626080D03*
D26*
X555825Y626080D03*
D25*
X590115Y626080D03*
D12*
X622500Y626080D03*
D23*
X654250Y626080D03*
D25*
X681555Y626080D03*
D16*
X702510Y626080D03*
D13*
X725370Y626080D03*
D27*
X752675Y626080D03*
D15*
X772995Y626080D03*
D20*
X793950Y626080D03*
D48*
X439620Y627350D03*
D42*
X520265Y627350D03*
D26*
X555825Y627350D03*
D12*
X590750Y627350D03*
X622500Y627350D03*
D23*
X654250Y627350D03*
D25*
X681555Y627350D03*
D16*
X702510Y627350D03*
D14*
X726005Y627350D03*
D13*
X753310Y627350D03*
D15*
X772995Y627350D03*
D20*
X793950Y627350D03*
D49*
X440255Y628620D03*
D42*
X520265Y628620D03*
D26*
X555825Y628620D03*
D12*
X590750Y628620D03*
X622500Y628620D03*
D25*
X654885Y628620D03*
X681555Y628620D03*
D15*
X703145Y628620D03*
D14*
X726005Y628620D03*
D13*
X753310Y628620D03*
D15*
X772995Y628620D03*
D20*
X793950Y628620D03*
D49*
X440255Y629890D03*
D42*
X520265Y629890D03*
D39*
X556460Y629890D03*
D27*
X591385Y629890D03*
X621865Y629890D03*
D12*
X654250Y629890D03*
X682190Y629890D03*
D15*
X703145Y629890D03*
D18*
X726640Y629890D03*
D13*
X753310Y629890D03*
D23*
X773630Y629890D03*
D28*
X794585Y629890D03*
D50*
X440890Y631160D03*
D41*
X520900Y631160D03*
D39*
X556460Y631160D03*
D13*
X593290Y631160D03*
X621230Y631160D03*
D27*
X653615Y631160D03*
D12*
X682190Y631160D03*
D15*
X703145Y631160D03*
D18*
X726640Y631160D03*
D13*
X753310Y631160D03*
D23*
X773630Y631160D03*
D28*
X794585Y631160D03*
D50*
X440890Y632430D03*
D41*
X520900Y632430D03*
D39*
X556460Y632430D03*
D14*
X593925Y632430D03*
X620595Y632430D03*
X652345Y632430D03*
D25*
X682825Y632430D03*
D23*
X703780Y632430D03*
D18*
X726640Y632430D03*
D13*
X753310Y632430D03*
D25*
X772995Y632430D03*
D28*
X794585Y632430D03*
D51*
X441525Y633700D03*
D41*
X520900Y633700D03*
D52*
X574240Y633700D03*
D53*
X706320Y633700D03*
D51*
X441525Y634970D03*
D36*
X521535Y634970D03*
D54*
X673300Y634970D03*
D51*
X441525Y636240D03*
D36*
X521535Y636240D03*
D54*
X673300Y636240D03*
D55*
X442160Y637510D03*
D36*
X521535Y637510D03*
D56*
X673935Y637510D03*
D55*
X442160Y638780D03*
D36*
X521535Y638780D03*
D56*
X673935Y638780D03*
D57*
X442795Y640050D03*
D40*
X522170Y640050D03*
D56*
X673935Y640050D03*
D57*
X442795Y641320D03*
D40*
X522170Y641320D03*
D56*
X673935Y641320D03*
D58*
X443430Y642590D03*
D40*
X522170Y642590D03*
D56*
X673935Y642590D03*
D58*
X443430Y643860D03*
D40*
X523440Y643860D03*
D56*
X673935Y643860D03*
D59*
X444065Y645130D03*
D37*
X522805Y645130D03*
D56*
X673935Y645130D03*
D60*
X840657Y617904D02*
X844555Y617904D01*
X846504Y615955D01*
X846504Y610108D01*
X840657Y610108D01*
X838708Y612057D01*
X840657Y614006D01*
X846504Y614006D01*
X850402Y610108D02*
X850402Y617904D01*
X850402Y614006D02*
X854300Y617904D01*
X856249Y617904D01*
X862096Y610108D02*
X865994Y610108D01*
X862096Y610108D02*
X860147Y612057D01*
X860147Y615955D01*
X862096Y617904D01*
X865994Y617904D01*
X867943Y615955D01*
X867943Y614006D01*
X860147Y614006D01*
X873790Y610108D02*
X873790Y619853D01*
X875739Y621802D01*
X875739Y615955D02*
X871841Y615955D01*
X844555Y617904D02*
X840657Y617904D01*
X844555Y617904D02*
X846504Y615955D01*
X846504Y610108D01*
X840657Y610108D01*
X838708Y612057D01*
X840657Y614006D01*
X846504Y614006D01*
X850402Y610108D02*
X850402Y617904D01*
X850402Y614006D02*
X854300Y617904D01*
X856249Y617904D01*
X862096Y610108D02*
X865994Y610108D01*
X862096Y610108D02*
X860147Y612057D01*
X860147Y615955D01*
X862096Y617904D01*
X865994Y617904D01*
X867943Y615955D01*
X867943Y614006D01*
X860147Y614006D01*
X873790Y610108D02*
X873790Y619853D01*
X875739Y621802D01*
X875739Y615955D02*
X871841Y615955D01*
X844555Y580810D02*
X842606Y580810D01*
X844555Y580810D02*
X846504Y582759D01*
X846504Y592504D01*
X840657Y592504D01*
X838708Y590555D01*
X838708Y586657D01*
X840657Y584708D01*
X846504Y584708D01*
X850402Y584708D02*
X850402Y592504D01*
X856249Y592504D01*
X858198Y590555D01*
X858198Y584708D01*
X869892Y584708D02*
X869892Y596402D01*
X869892Y584708D02*
X864045Y584708D01*
X862096Y586657D01*
X862096Y590555D01*
X864045Y592504D01*
X869892Y592504D01*
X844555Y559308D02*
X838708Y559308D01*
X844555Y559308D02*
X846504Y561257D01*
X844555Y563206D01*
X840657Y563206D01*
X838708Y565155D01*
X840657Y567104D01*
X846504Y567104D01*
X852351Y567104D02*
X858198Y567104D01*
X852351Y567104D02*
X850402Y565155D01*
X850402Y561257D01*
X852351Y559308D01*
X858198Y559308D01*
X862096Y559308D02*
X862096Y571002D01*
X862096Y563206D02*
X867943Y559308D01*
X862096Y563206D02*
X867943Y567104D01*
X838708Y541704D02*
X838708Y533908D01*
X838708Y541704D02*
X840657Y541704D01*
X842606Y539755D01*
X842606Y533908D01*
X842606Y539755D02*
X844555Y541704D01*
X846504Y539755D01*
X846504Y533908D01*
X850402Y541704D02*
X852351Y541704D01*
X852351Y533908D01*
X850402Y533908D02*
X854300Y533908D01*
X852351Y545602D02*
X852351Y547551D01*
X858198Y533908D02*
X864045Y533908D01*
X865994Y535857D01*
X864045Y537806D01*
X860147Y537806D01*
X858198Y539755D01*
X860147Y541704D01*
X865994Y541704D01*
X871841Y533908D02*
X875739Y533908D01*
X877688Y535857D01*
X877688Y539755D01*
X875739Y541704D01*
X871841Y541704D01*
X869892Y539755D01*
X869892Y535857D01*
X871841Y533908D01*
X838708Y516304D02*
X838708Y508508D01*
X838708Y516304D02*
X840657Y516304D01*
X842606Y514355D01*
X842606Y508508D01*
X842606Y514355D02*
X844555Y516304D01*
X846504Y514355D01*
X846504Y508508D01*
X852351Y508508D02*
X856249Y508508D01*
X858198Y510457D01*
X858198Y514355D01*
X856249Y516304D01*
X852351Y516304D01*
X850402Y514355D01*
X850402Y510457D01*
X852351Y508508D01*
X862096Y508508D02*
X867943Y508508D01*
X869892Y510457D01*
X867943Y512406D01*
X864045Y512406D01*
X862096Y514355D01*
X864045Y516304D01*
X869892Y516304D01*
X873790Y516304D02*
X875739Y516304D01*
X875739Y508508D01*
X873790Y508508D02*
X877688Y508508D01*
X875739Y520202D02*
X875739Y522151D01*
X846504Y494802D02*
X846504Y483108D01*
X840657Y483108D01*
X838708Y485057D01*
X838708Y488955D01*
X840657Y490904D01*
X846504Y490904D01*
X850402Y490904D02*
X854300Y494802D01*
X854300Y483108D01*
X850402Y483108D02*
X858198Y483108D01*
X862096Y485057D02*
X862096Y492853D01*
X864045Y494802D01*
X867943Y494802D01*
X869892Y492853D01*
X869892Y485057D01*
X867943Y483108D01*
X864045Y483108D01*
X862096Y485057D01*
X869892Y492853D01*
X846504Y469402D02*
X846504Y457708D01*
X840657Y457708D01*
X838708Y459657D01*
X838708Y463555D01*
X840657Y465504D01*
X846504Y465504D01*
X850402Y459657D02*
X852351Y457708D01*
X856249Y457708D01*
X858198Y459657D01*
X858198Y467453D01*
X856249Y469402D01*
X852351Y469402D01*
X850402Y467453D01*
X850402Y465504D01*
X852351Y463555D01*
X858198Y463555D01*
X846504Y444002D02*
X846504Y432308D01*
X840657Y432308D01*
X838708Y434257D01*
X838708Y438155D01*
X840657Y440104D01*
X846504Y440104D01*
X850402Y442053D02*
X852351Y444002D01*
X856249Y444002D01*
X858198Y442053D01*
X858198Y440104D01*
X856249Y438155D01*
X858198Y436206D01*
X858198Y434257D01*
X856249Y432308D01*
X852351Y432308D01*
X850402Y434257D01*
X850402Y436206D01*
X852351Y438155D01*
X850402Y440104D01*
X850402Y442053D01*
X852351Y438155D02*
X856249Y438155D01*
X846504Y418602D02*
X846504Y406908D01*
X840657Y406908D01*
X838708Y408857D01*
X838708Y412755D01*
X840657Y414704D01*
X846504Y414704D01*
X850402Y418602D02*
X858198Y418602D01*
X858198Y416653D01*
X850402Y408857D01*
X850402Y406908D01*
X846504Y393202D02*
X846504Y381508D01*
X840657Y381508D01*
X838708Y383457D01*
X838708Y387355D01*
X840657Y389304D01*
X846504Y389304D01*
X854300Y391253D02*
X858198Y393202D01*
X854300Y391253D02*
X850402Y387355D01*
X850402Y383457D01*
X852351Y381508D01*
X856249Y381508D01*
X858198Y383457D01*
X858198Y385406D01*
X856249Y387355D01*
X850402Y387355D01*
X846504Y367802D02*
X846504Y356108D01*
X840657Y356108D01*
X838708Y358057D01*
X838708Y361955D01*
X840657Y363904D01*
X846504Y363904D01*
X850402Y367802D02*
X858198Y367802D01*
X850402Y367802D02*
X850402Y361955D01*
X854300Y363904D01*
X856249Y363904D01*
X858198Y361955D01*
X858198Y358057D01*
X856249Y356108D01*
X852351Y356108D01*
X850402Y358057D01*
X846504Y342402D02*
X846504Y330708D01*
X840657Y330708D01*
X838708Y332657D01*
X838708Y336555D01*
X840657Y338504D01*
X846504Y338504D01*
X856249Y342402D02*
X856249Y330708D01*
X850402Y336555D02*
X856249Y342402D01*
X858198Y336555D02*
X850402Y336555D01*
X846504Y317002D02*
X846504Y305308D01*
X840657Y305308D01*
X838708Y307257D01*
X838708Y311155D01*
X840657Y313104D01*
X846504Y313104D01*
X850402Y315053D02*
X852351Y317002D01*
X856249Y317002D01*
X858198Y315053D01*
X858198Y313104D01*
X856249Y311155D01*
X854300Y311155D01*
X856249Y311155D02*
X858198Y309206D01*
X858198Y307257D01*
X856249Y305308D01*
X852351Y305308D01*
X850402Y307257D01*
X846504Y291602D02*
X846504Y279908D01*
X840657Y279908D01*
X838708Y281857D01*
X838708Y285755D01*
X840657Y287704D01*
X846504Y287704D01*
X850402Y279908D02*
X858198Y279908D01*
X850402Y279908D02*
X858198Y287704D01*
X858198Y289653D01*
X856249Y291602D01*
X852351Y291602D01*
X850402Y289653D01*
X838708Y262304D02*
X838708Y254508D01*
X838708Y258406D02*
X842606Y262304D01*
X844555Y262304D01*
X848453Y262304D02*
X856249Y254508D01*
X848453Y254508D02*
X856249Y262304D01*
X840657Y238853D02*
X840657Y231057D01*
X842606Y229108D01*
X842606Y236904D02*
X838708Y236904D01*
X846504Y236904D02*
X854300Y229108D01*
X846504Y229108D02*
X854300Y236904D01*
X294908Y533908D02*
X294908Y541704D01*
X294908Y537806D02*
X298806Y541704D01*
X300755Y541704D01*
X304653Y533908D02*
X310500Y533908D01*
X312449Y535857D01*
X310500Y537806D01*
X306602Y537806D01*
X304653Y539755D01*
X306602Y541704D01*
X312449Y541704D01*
X318296Y543653D02*
X318296Y535857D01*
X320245Y533908D01*
X320245Y541704D02*
X316347Y541704D01*
X287408Y516304D02*
X291306Y508508D01*
X295204Y516304D01*
X301051Y516304D02*
X306898Y516304D01*
X301051Y516304D02*
X299102Y514355D01*
X299102Y510457D01*
X301051Y508508D01*
X306898Y508508D01*
X312745Y516304D02*
X318592Y516304D01*
X312745Y516304D02*
X310796Y514355D01*
X310796Y510457D01*
X312745Y508508D01*
X318592Y508508D01*
X287408Y490904D02*
X291306Y483108D01*
X295204Y490904D01*
X301051Y490904D02*
X306898Y490904D01*
X301051Y490904D02*
X299102Y488955D01*
X299102Y485057D01*
X301051Y483108D01*
X306898Y483108D01*
X312745Y490904D02*
X318592Y490904D01*
X312745Y490904D02*
X310796Y488955D01*
X310796Y485057D01*
X312745Y483108D01*
X318592Y483108D01*
X293255Y453810D02*
X291306Y453810D01*
X293255Y453810D02*
X295204Y455759D01*
X295204Y465504D01*
X289357Y465504D01*
X287408Y463555D01*
X287408Y459657D01*
X289357Y457708D01*
X295204Y457708D01*
X299102Y457708D02*
X299102Y465504D01*
X304949Y465504D01*
X306898Y463555D01*
X306898Y457708D01*
X318592Y457708D02*
X318592Y469402D01*
X318592Y457708D02*
X312745Y457708D01*
X310796Y459657D01*
X310796Y463555D01*
X312745Y465504D01*
X318592Y465504D01*
X293255Y428410D02*
X291306Y428410D01*
X293255Y428410D02*
X295204Y430359D01*
X295204Y440104D01*
X289357Y440104D01*
X287408Y438155D01*
X287408Y434257D01*
X289357Y432308D01*
X295204Y432308D01*
X299102Y432308D02*
X299102Y440104D01*
X304949Y440104D01*
X306898Y438155D01*
X306898Y432308D01*
X318592Y432308D02*
X318592Y444002D01*
X318592Y432308D02*
X312745Y432308D01*
X310796Y434257D01*
X310796Y438155D01*
X312745Y440104D01*
X318592Y440104D01*
X287408Y414704D02*
X291306Y406908D01*
X295204Y414704D01*
X299102Y414704D02*
X301051Y414704D01*
X301051Y406908D01*
X299102Y406908D02*
X303000Y406908D01*
X301051Y418602D02*
X301051Y420551D01*
X306898Y414704D02*
X306898Y406908D01*
X306898Y414704D02*
X312745Y414704D01*
X314694Y412755D01*
X314694Y406908D01*
X311155Y363904D02*
X307257Y363904D01*
X311155Y363904D02*
X313104Y361955D01*
X313104Y356108D01*
X307257Y356108D01*
X305308Y358057D01*
X307257Y360006D01*
X313104Y360006D01*
X317002Y358057D02*
X317002Y365853D01*
X318951Y367802D01*
X322849Y367802D01*
X324798Y365853D01*
X324798Y358057D01*
X322849Y356108D01*
X318951Y356108D01*
X317002Y358057D01*
X324798Y365853D01*
X311155Y338504D02*
X307257Y338504D01*
X311155Y338504D02*
X313104Y336555D01*
X313104Y330708D01*
X307257Y330708D01*
X305308Y332657D01*
X307257Y334606D01*
X313104Y334606D01*
X317002Y338504D02*
X320900Y342402D01*
X320900Y330708D01*
X317002Y330708D02*
X324798Y330708D01*
X311155Y313104D02*
X307257Y313104D01*
X311155Y313104D02*
X313104Y311155D01*
X313104Y305308D01*
X307257Y305308D01*
X305308Y307257D01*
X307257Y309206D01*
X313104Y309206D01*
X317002Y305308D02*
X324798Y305308D01*
X317002Y305308D02*
X324798Y313104D01*
X324798Y315053D01*
X322849Y317002D01*
X318951Y317002D01*
X317002Y315053D01*
X311155Y287704D02*
X307257Y287704D01*
X311155Y287704D02*
X313104Y285755D01*
X313104Y279908D01*
X307257Y279908D01*
X305308Y281857D01*
X307257Y283806D01*
X313104Y283806D01*
X317002Y289653D02*
X318951Y291602D01*
X322849Y291602D01*
X324798Y289653D01*
X324798Y287704D01*
X322849Y285755D01*
X320900Y285755D01*
X322849Y285755D02*
X324798Y283806D01*
X324798Y281857D01*
X322849Y279908D01*
X318951Y279908D01*
X317002Y281857D01*
X311155Y262304D02*
X307257Y262304D01*
X311155Y262304D02*
X313104Y260355D01*
X313104Y254508D01*
X307257Y254508D01*
X305308Y256457D01*
X307257Y258406D01*
X313104Y258406D01*
X322849Y254508D02*
X322849Y266202D01*
X317002Y260355D01*
X324798Y260355D01*
X311155Y236904D02*
X307257Y236904D01*
X311155Y236904D02*
X313104Y234955D01*
X313104Y229108D01*
X307257Y229108D01*
X305308Y231057D01*
X307257Y233006D01*
X313104Y233006D01*
X317002Y240802D02*
X324798Y240802D01*
X317002Y240802D02*
X317002Y234955D01*
X320900Y236904D01*
X322849Y236904D01*
X324798Y234955D01*
X324798Y231057D01*
X322849Y229108D01*
X318951Y229108D01*
X317002Y231057D01*
D61*
X600373Y296374D02*
X601941Y297941D01*
X600373Y296374D02*
X600373Y293238D01*
X601941Y291671D01*
X608211Y291671D01*
X609779Y293238D01*
X609779Y296374D01*
X608211Y297941D01*
X609779Y301026D02*
X609779Y307297D01*
X609779Y301026D02*
X603508Y307297D01*
X601941Y307297D01*
X600373Y305729D01*
X600373Y302593D01*
X601941Y301026D01*
X551781Y306652D02*
X550213Y305084D01*
X550213Y301949D01*
X551781Y300381D01*
X558051Y300381D01*
X559619Y301949D01*
X559619Y305084D01*
X558051Y306652D01*
X551781Y309736D02*
X550213Y311304D01*
X550213Y314439D01*
X551781Y316007D01*
X553348Y316007D01*
X554916Y314439D01*
X554916Y312872D01*
X554916Y314439D02*
X556484Y316007D01*
X558051Y316007D01*
X559619Y314439D01*
X559619Y311304D01*
X558051Y309736D01*
D62*
X345420Y110300D02*
X335260Y110300D01*
D63*
X349629Y127400D02*
X349084Y127180D01*
X348534Y126974D01*
X347980Y126781D01*
X347420Y126602D01*
X346857Y126437D01*
X346289Y126285D01*
X345718Y126147D01*
X345144Y126023D01*
X344567Y125913D01*
X343988Y125817D01*
X343406Y125736D01*
X342822Y125668D01*
X342238Y125615D01*
X341651Y125576D01*
X341065Y125551D01*
X340477Y125540D01*
X339890Y125544D01*
X339303Y125562D01*
X338716Y125595D01*
X338131Y125641D01*
X337547Y125702D01*
X336964Y125777D01*
X336384Y125867D01*
X335805Y125970D01*
X335230Y126087D01*
X334657Y126219D01*
X334088Y126364D01*
X333523Y126523D01*
X332962Y126696D01*
X332405Y126882D01*
X331852Y127082D01*
X331305Y127295D01*
X330763Y127522D01*
X330227Y127761D01*
X329697Y128014D01*
X329173Y128280D01*
X328655Y128558D01*
X328145Y128848D01*
X327642Y129151D01*
X327146Y129466D01*
X326658Y129794D01*
X326178Y130132D01*
X325707Y130483D01*
X325244Y130845D01*
X324791Y131218D01*
X324346Y131602D01*
X323911Y131996D01*
X323486Y132401D01*
X323070Y132817D01*
X322665Y133242D01*
X322271Y133677D01*
X321887Y134122D01*
X321514Y134575D01*
X321152Y135038D01*
X320801Y135509D01*
X320463Y135989D01*
X320135Y136477D01*
X319820Y136973D01*
X319517Y137476D01*
X319227Y137986D01*
X318949Y138504D01*
X318683Y139028D01*
X318430Y139558D01*
X318191Y140094D01*
X317964Y140636D01*
X317751Y141183D01*
X317551Y141736D01*
X317365Y142293D01*
X317192Y142854D01*
X317033Y143419D01*
X316888Y143988D01*
X316756Y144561D01*
X316639Y145136D01*
X316536Y145715D01*
X316446Y146295D01*
X316371Y146878D01*
X316310Y147462D01*
X316264Y148047D01*
X316231Y148634D01*
X316213Y149221D01*
X316209Y149808D01*
X316220Y150396D01*
X316245Y150982D01*
X316284Y151569D01*
X316337Y152153D01*
X316405Y152737D01*
X316486Y153319D01*
X316582Y153898D01*
X316692Y154475D01*
X316816Y155049D01*
X316954Y155620D01*
X317106Y156188D01*
X317271Y156751D01*
X317450Y157311D01*
X317643Y157865D01*
X317849Y158415D01*
X318069Y158960D01*
D62*
X345420Y120905D02*
X345420Y110300D01*
D63*
X362610Y140381D02*
X362826Y140917D01*
X363030Y141458D01*
X363220Y142004D01*
X363397Y142554D01*
X363561Y143108D01*
X363711Y143666D01*
X363848Y144227D01*
X363972Y144792D01*
X364082Y145359D01*
X364178Y145929D01*
X364261Y146501D01*
X364330Y147074D01*
X364385Y147650D01*
X364427Y148226D01*
X364454Y148803D01*
X364468Y149381D01*
X364468Y149959D01*
X364454Y150537D01*
X364427Y151114D01*
X364385Y151690D01*
X364330Y152266D01*
X364261Y152839D01*
X364178Y153411D01*
X364082Y153981D01*
X363972Y154548D01*
X363848Y155113D01*
X363711Y155674D01*
X363561Y156232D01*
X363397Y156786D01*
X363220Y157336D01*
X363030Y157882D01*
X362826Y158423D01*
X362610Y158959D01*
D62*
X335260Y120905D02*
X335260Y110300D01*
D63*
X331051Y171940D02*
X331587Y172156D01*
X332128Y172360D01*
X332674Y172550D01*
X333224Y172727D01*
X333778Y172891D01*
X334336Y173041D01*
X334897Y173178D01*
X335462Y173302D01*
X336029Y173412D01*
X336599Y173508D01*
X337171Y173591D01*
X337744Y173660D01*
X338320Y173715D01*
X338896Y173757D01*
X339473Y173784D01*
X340051Y173798D01*
X340629Y173798D01*
X341207Y173784D01*
X341784Y173757D01*
X342360Y173715D01*
X342936Y173660D01*
X343509Y173591D01*
X344081Y173508D01*
X344651Y173412D01*
X345218Y173302D01*
X345783Y173178D01*
X346344Y173041D01*
X346902Y172891D01*
X347456Y172727D01*
X348006Y172550D01*
X348552Y172360D01*
X349093Y172156D01*
X349629Y171940D01*
D62*
X311130Y149670D02*
X311139Y150387D01*
X311165Y151103D01*
X311209Y151819D01*
X311271Y152533D01*
X311350Y153246D01*
X311446Y153956D01*
X311560Y154664D01*
X311691Y155369D01*
X311840Y156070D01*
X312005Y156767D01*
X312188Y157461D01*
X312388Y158149D01*
X312604Y158833D01*
X312837Y159511D01*
X313087Y160183D01*
X313353Y160848D01*
X313636Y161507D01*
X313934Y162159D01*
X314249Y162803D01*
X314579Y163439D01*
X314925Y164068D01*
X315286Y164687D01*
X315662Y165297D01*
X316053Y165898D01*
X316458Y166489D01*
X316878Y167070D01*
X317312Y167641D01*
X317760Y168201D01*
X318222Y168749D01*
X318697Y169286D01*
X319185Y169811D01*
X319685Y170325D01*
X320199Y170825D01*
X320724Y171313D01*
X321261Y171788D01*
X321809Y172250D01*
X322369Y172698D01*
X322940Y173132D01*
X323521Y173552D01*
X324112Y173957D01*
X324713Y174348D01*
X325323Y174724D01*
X325942Y175085D01*
X326571Y175431D01*
X327207Y175761D01*
X327851Y176076D01*
X328503Y176374D01*
X329162Y176657D01*
X329827Y176923D01*
X330499Y177173D01*
X331177Y177406D01*
X331861Y177622D01*
X332549Y177822D01*
X333243Y178005D01*
X333940Y178170D01*
X334641Y178319D01*
X335346Y178450D01*
X336054Y178564D01*
X336764Y178660D01*
X337477Y178739D01*
X338191Y178801D01*
X338907Y178845D01*
X339623Y178871D01*
X340340Y178880D01*
X341057Y178871D01*
X341773Y178845D01*
X342489Y178801D01*
X343203Y178739D01*
X343916Y178660D01*
X344626Y178564D01*
X345334Y178450D01*
X346039Y178319D01*
X346740Y178170D01*
X347437Y178005D01*
X348131Y177822D01*
X348819Y177622D01*
X349503Y177406D01*
X350181Y177173D01*
X350853Y176923D01*
X351518Y176657D01*
X352177Y176374D01*
X352829Y176076D01*
X353473Y175761D01*
X354109Y175431D01*
X354738Y175085D01*
X355357Y174724D01*
X355967Y174348D01*
X356568Y173957D01*
X357159Y173552D01*
X357740Y173132D01*
X358311Y172698D01*
X358871Y172250D01*
X359419Y171788D01*
X359956Y171313D01*
X360481Y170825D01*
X360995Y170325D01*
X361495Y169811D01*
X361983Y169286D01*
X362458Y168749D01*
X362920Y168201D01*
X363368Y167641D01*
X363802Y167070D01*
X364222Y166489D01*
X364627Y165898D01*
X365018Y165297D01*
X365394Y164687D01*
X365755Y164068D01*
X366101Y163439D01*
X366431Y162803D01*
X366746Y162159D01*
X367044Y161507D01*
X367327Y160848D01*
X367593Y160183D01*
X367843Y159511D01*
X368076Y158833D01*
X368292Y158149D01*
X368492Y157461D01*
X368675Y156767D01*
X368840Y156070D01*
X368989Y155369D01*
X369120Y154664D01*
X369234Y153956D01*
X369330Y153246D01*
X369409Y152533D01*
X369471Y151819D01*
X369515Y151103D01*
X369541Y150387D01*
X369550Y149670D01*
X369541Y148953D01*
X369515Y148237D01*
X369471Y147521D01*
X369409Y146807D01*
X369330Y146094D01*
X369234Y145384D01*
X369120Y144676D01*
X368989Y143971D01*
X368840Y143270D01*
X368675Y142573D01*
X368492Y141879D01*
X368292Y141191D01*
X368076Y140507D01*
X367843Y139829D01*
X367593Y139157D01*
X367327Y138492D01*
X367044Y137833D01*
X366746Y137181D01*
X366431Y136537D01*
X366101Y135901D01*
X365755Y135272D01*
X365394Y134653D01*
X365018Y134043D01*
X364627Y133442D01*
X364222Y132851D01*
X363802Y132270D01*
X363368Y131699D01*
X362920Y131139D01*
X362458Y130591D01*
X361983Y130054D01*
X361495Y129529D01*
X360995Y129015D01*
X360481Y128515D01*
X359956Y128027D01*
X359419Y127552D01*
X358871Y127090D01*
X358311Y126642D01*
X357740Y126208D01*
X357159Y125788D01*
X356568Y125383D01*
X355967Y124992D01*
X355357Y124616D01*
X354738Y124255D01*
X354109Y123909D01*
X353473Y123579D01*
X352829Y123264D01*
X352177Y122966D01*
X351518Y122683D01*
X350853Y122417D01*
X350181Y122167D01*
X349503Y121934D01*
X348819Y121718D01*
X348131Y121518D01*
X347437Y121335D01*
X346740Y121170D01*
X346039Y121021D01*
X345334Y120890D01*
X344626Y120776D01*
X343916Y120680D01*
X343203Y120601D01*
X342489Y120539D01*
X341773Y120495D01*
X341057Y120469D01*
X340340Y120460D01*
X339623Y120469D01*
X338907Y120495D01*
X338191Y120539D01*
X337477Y120601D01*
X336764Y120680D01*
X336054Y120776D01*
X335346Y120890D01*
X334641Y121021D01*
X333940Y121170D01*
X333243Y121335D01*
X332549Y121518D01*
X331861Y121718D01*
X331177Y121934D01*
X330499Y122167D01*
X329827Y122417D01*
X329162Y122683D01*
X328503Y122966D01*
X327851Y123264D01*
X327207Y123579D01*
X326571Y123909D01*
X325942Y124255D01*
X325323Y124616D01*
X324713Y124992D01*
X324112Y125383D01*
X323521Y125788D01*
X322940Y126208D01*
X322369Y126642D01*
X321809Y127090D01*
X321261Y127552D01*
X320724Y128027D01*
X320199Y128515D01*
X319685Y129015D01*
X319185Y129529D01*
X318697Y130054D01*
X318222Y130591D01*
X317760Y131139D01*
X317312Y131699D01*
X316878Y132270D01*
X316458Y132851D01*
X316053Y133442D01*
X315662Y134043D01*
X315286Y134653D01*
X314925Y135272D01*
X314579Y135901D01*
X314249Y136537D01*
X313934Y137181D01*
X313636Y137833D01*
X313353Y138492D01*
X313087Y139157D01*
X312837Y139829D01*
X312604Y140507D01*
X312388Y141191D01*
X312188Y141879D01*
X312005Y142573D01*
X311840Y143270D01*
X311691Y143971D01*
X311560Y144676D01*
X311446Y145384D01*
X311350Y146094D01*
X311271Y146807D01*
X311209Y147521D01*
X311165Y148237D01*
X311139Y148953D01*
X311130Y149670D01*
D11*
X283040Y189350D02*
X283040Y229990D01*
X257640Y229990D01*
X257640Y189350D01*
X283040Y189350D01*
X270340Y203320D02*
X270340Y209670D01*
X263990Y219830D02*
X276690Y219830D01*
X270340Y209670D01*
X270340Y224910D01*
X263990Y219830D02*
X270340Y209670D01*
X263990Y209670D01*
X270340Y209670D02*
X276690Y209670D01*
D64*
X270340Y195700D03*
D65*
X270340Y239515D03*
X270340Y179825D03*
D62*
X253195Y189985D02*
X241755Y189985D01*
X253195Y189985D02*
X253195Y195705D01*
X251288Y197612D01*
X243662Y197612D01*
X241755Y195705D01*
X241755Y189985D01*
X241755Y201679D02*
X241755Y209305D01*
X241755Y201679D02*
X247475Y201679D01*
X245569Y205492D01*
X245569Y207399D01*
X247475Y209305D01*
X251288Y209305D01*
X253195Y207399D01*
X253195Y203586D01*
X251288Y201679D01*
D10*
X44240Y145870D02*
X44240Y295870D01*
X229240Y295870D01*
X229240Y145870D01*
X44240Y145870D01*
D63*
X136455Y202060D02*
X136455Y206721D01*
X136455Y202060D02*
X137387Y201128D01*
X139251Y201128D01*
X140183Y202060D01*
X140183Y206721D01*
X142068Y202060D02*
X143000Y201128D01*
X144864Y201128D01*
X145796Y202060D01*
X145796Y202992D01*
X144864Y203924D01*
X143000Y203924D01*
X142068Y204857D01*
X142068Y205789D01*
X143000Y206721D01*
X144864Y206721D01*
X145796Y205789D01*
X143932Y207653D02*
X143932Y200196D01*
X147681Y204857D02*
X149545Y206721D01*
X149545Y201128D01*
X147681Y201128D02*
X151409Y201128D01*
D11*
X277170Y509360D02*
X277170Y541110D01*
X203510Y541110D02*
X203510Y509360D01*
X214940Y509360D01*
X265740Y509360D02*
X277170Y509360D01*
D63*
X240340Y500470D02*
X240340Y398870D01*
D11*
X203510Y571590D02*
X203510Y627470D01*
X277170Y627470D02*
X277170Y571590D01*
X214940Y627470D02*
X203510Y627470D01*
X265740Y536030D02*
X265740Y509360D01*
X265740Y571590D02*
X265740Y627470D01*
X277170Y627470D01*
X214940Y627470D02*
X214940Y571590D01*
X214940Y627470D02*
X265740Y627470D01*
X214940Y536030D02*
X214940Y509360D01*
X254310Y571590D02*
X277170Y571590D01*
X277170Y566510D01*
X226370Y571590D02*
X203510Y571590D01*
X203510Y566510D01*
X226370Y566510D02*
X226370Y571590D01*
X254310Y571590D02*
X254310Y566510D01*
D63*
X269550Y500470D02*
X269550Y398870D01*
D11*
X211130Y398870D02*
X211130Y500470D01*
X203510Y389980D02*
X203510Y358230D01*
X277170Y358230D02*
X277170Y389980D01*
X265740Y389980D01*
X214940Y389980D02*
X203510Y389980D01*
X277170Y327750D02*
X277170Y271870D01*
X203510Y271870D02*
X203510Y327750D01*
X265740Y271870D02*
X277170Y271870D01*
X214940Y363310D02*
X214940Y389980D01*
X214940Y327750D02*
X214940Y271870D01*
X203510Y271870D01*
X265740Y271870D02*
X265740Y327750D01*
X265740Y271870D02*
X214940Y271870D01*
X265740Y363310D02*
X265740Y389980D01*
X226370Y327750D02*
X203510Y327750D01*
X203510Y332830D01*
X254310Y327750D02*
X277170Y327750D01*
X277170Y332830D01*
X254310Y332830D02*
X254310Y327750D01*
X226370Y327750D02*
X226370Y332830D01*
D66*
X207701Y412459D02*
X191685Y412459D01*
X191685Y423136D01*
X199693Y417798D02*
X199693Y412459D01*
X197024Y428831D02*
X191685Y434169D01*
X207701Y434169D01*
X207701Y428831D02*
X207701Y439508D01*
D67*
X260025Y621755D03*
X220655Y621755D03*
D68*
X262565Y520790D03*
X218115Y520790D03*
D69*
X259390Y449670D03*
X221290Y449670D03*
D67*
X220655Y277585D03*
X260025Y277585D03*
D68*
X218115Y378550D03*
X262565Y378550D03*
D69*
X221290Y449670D03*
X259390Y449670D03*
D70*
X240340Y549365D03*
X240340Y349975D03*
D71*
X240340Y504915D03*
X240340Y394425D03*
D11*
X157170Y489360D02*
X157170Y521110D01*
X83510Y521110D02*
X83510Y489360D01*
X94940Y489360D01*
X145740Y489360D02*
X157170Y489360D01*
D63*
X120340Y480470D02*
X120340Y378870D01*
D11*
X83510Y551590D02*
X83510Y607470D01*
X157170Y607470D02*
X157170Y551590D01*
X94940Y607470D02*
X83510Y607470D01*
X145740Y516030D02*
X145740Y489360D01*
X145740Y551590D02*
X145740Y607470D01*
X157170Y607470D01*
X94940Y607470D02*
X94940Y551590D01*
X94940Y607470D02*
X145740Y607470D01*
X94940Y516030D02*
X94940Y489360D01*
X134310Y551590D02*
X157170Y551590D01*
X157170Y546510D01*
X106370Y551590D02*
X83510Y551590D01*
X83510Y546510D01*
X106370Y546510D02*
X106370Y551590D01*
X134310Y551590D02*
X134310Y546510D01*
D63*
X149550Y480470D02*
X149550Y378870D01*
D11*
X91130Y378870D02*
X91130Y480470D01*
X83510Y369980D02*
X83510Y338230D01*
X157170Y338230D02*
X157170Y369980D01*
X145740Y369980D01*
X94940Y369980D02*
X83510Y369980D01*
X157170Y307750D02*
X157170Y251870D01*
X83510Y251870D02*
X83510Y307750D01*
X145740Y251870D02*
X157170Y251870D01*
X94940Y343310D02*
X94940Y369980D01*
X94940Y307750D02*
X94940Y251870D01*
X83510Y251870D01*
X145740Y251870D02*
X145740Y307750D01*
X145740Y251870D02*
X94940Y251870D01*
X145740Y343310D02*
X145740Y369980D01*
X106370Y307750D02*
X83510Y307750D01*
X83510Y312830D01*
X134310Y307750D02*
X157170Y307750D01*
X157170Y312830D01*
X134310Y312830D02*
X134310Y307750D01*
X106370Y307750D02*
X106370Y312830D01*
D66*
X87701Y392459D02*
X71685Y392459D01*
X71685Y403136D01*
X79693Y397798D02*
X79693Y392459D01*
X87701Y408831D02*
X87701Y419508D01*
X87701Y408831D02*
X77024Y419508D01*
X74355Y419508D01*
X71685Y416838D01*
X71685Y411500D01*
X74355Y408831D01*
D67*
X140025Y601755D03*
X100655Y601755D03*
D68*
X142565Y500790D03*
X98115Y500790D03*
D69*
X139390Y429670D03*
X101290Y429670D03*
D67*
X100655Y257585D03*
X140025Y257585D03*
D68*
X98115Y358550D03*
X142565Y358550D03*
D69*
X101290Y429670D03*
X139390Y429670D03*
D70*
X120340Y529365D03*
X120340Y329975D03*
D71*
X120340Y484915D03*
X120340Y374425D03*
D60*
X232296Y722078D02*
X232296Y729874D01*
X236194Y733772D01*
X240092Y729874D01*
X240092Y722078D01*
X240092Y727925D02*
X232296Y727925D01*
X249837Y733772D02*
X251786Y731823D01*
X249837Y733772D02*
X245939Y733772D01*
X243990Y731823D01*
X243990Y724027D01*
X245939Y722078D01*
X249837Y722078D01*
X251786Y724027D01*
X255684Y720129D02*
X263480Y720129D01*
X267378Y722078D02*
X267378Y733772D01*
X275174Y722078D01*
X275174Y733772D01*
X279072Y720129D02*
X286868Y720129D01*
X292715Y733772D02*
X296613Y733772D01*
X292715Y733772D02*
X290766Y731823D01*
X290766Y724027D01*
X292715Y722078D01*
X296613Y722078D01*
X298562Y724027D01*
X298562Y731823D01*
X296613Y733772D01*
X302460Y733772D02*
X302460Y724027D01*
X304409Y722078D01*
X308307Y722078D01*
X310256Y724027D01*
X310256Y733772D01*
X318052Y733772D02*
X318052Y722078D01*
X314154Y733772D02*
X321950Y733772D01*
X860848Y733374D02*
X860848Y725578D01*
X860848Y733374D02*
X864746Y737272D01*
X868644Y733374D01*
X868644Y725578D01*
X868644Y731425D02*
X860848Y731425D01*
X878389Y737272D02*
X880338Y735323D01*
X878389Y737272D02*
X874491Y737272D01*
X872542Y735323D01*
X872542Y727527D01*
X874491Y725578D01*
X878389Y725578D01*
X880338Y727527D01*
X884236Y723629D02*
X892032Y723629D01*
X895930Y725578D02*
X895930Y737272D01*
X903726Y725578D01*
X903726Y737272D01*
X540684Y734874D02*
X540684Y727078D01*
X540684Y734874D02*
X544582Y738772D01*
X548480Y734874D01*
X548480Y727078D01*
X548480Y732925D02*
X540684Y732925D01*
X558225Y738772D02*
X560174Y736823D01*
X558225Y738772D02*
X554327Y738772D01*
X552378Y736823D01*
X552378Y729027D01*
X554327Y727078D01*
X558225Y727078D01*
X560174Y729027D01*
X564072Y725129D02*
X571868Y725129D01*
X575766Y727078D02*
X575766Y738772D01*
X583562Y727078D01*
X583562Y738772D01*
X587460Y725129D02*
X595256Y725129D01*
X599154Y734874D02*
X603052Y738772D01*
X603052Y727078D01*
X599154Y727078D02*
X606950Y727078D01*
D72*
X621340Y359670D03*
D60*
X640508Y362202D02*
X640508Y350508D01*
X648304Y350508D01*
X652202Y362202D02*
X659998Y362202D01*
X652202Y362202D02*
X652202Y350508D01*
X659998Y350508D01*
X656100Y356355D02*
X652202Y356355D01*
X663896Y362202D02*
X663896Y350508D01*
X669743Y350508D01*
X671692Y352457D01*
X671692Y360253D01*
X669743Y362202D01*
X663896Y362202D01*
X675590Y358304D02*
X679488Y362202D01*
X679488Y350508D01*
X675590Y350508D02*
X683386Y350508D01*
X620508Y342202D02*
X620508Y330508D01*
X620508Y342202D02*
X626355Y342202D01*
X628304Y340253D01*
X628304Y336355D01*
X626355Y334406D01*
X620508Y334406D01*
X624406Y334406D02*
X628304Y330508D01*
X638049Y330508D02*
X638049Y342202D01*
X632202Y336355D01*
X639998Y336355D01*
X682858Y173800D02*
X694552Y173800D01*
X682858Y173800D02*
X682858Y179647D01*
X684807Y181596D01*
X688705Y181596D01*
X690654Y179647D01*
X690654Y173800D01*
X690654Y177698D02*
X694552Y181596D01*
X682858Y185494D02*
X682858Y193290D01*
X682858Y185494D02*
X688705Y185494D01*
X686756Y189392D01*
X686756Y191341D01*
X688705Y193290D01*
X692603Y193290D01*
X694552Y191341D01*
X694552Y187443D01*
X692603Y185494D01*
X700498Y177120D02*
X712192Y177120D01*
X700498Y177120D02*
X700498Y182967D01*
X702447Y184916D01*
X706345Y184916D01*
X708294Y182967D01*
X708294Y177120D01*
X708294Y181018D02*
X712192Y184916D01*
X702447Y192712D02*
X700498Y196610D01*
X702447Y192712D02*
X706345Y188814D01*
X710243Y188814D01*
X712192Y190763D01*
X712192Y194661D01*
X710243Y196610D01*
X708294Y196610D01*
X706345Y194661D01*
X706345Y188814D01*
D11*
X700340Y53320D02*
X693990Y46970D01*
X681290Y46970D01*
X674940Y53320D01*
X674940Y66020D01*
X681290Y72370D01*
X693990Y72370D01*
X700340Y66020D01*
X732090Y46970D02*
X744790Y46970D01*
X732090Y46970D02*
X725740Y53320D01*
X725740Y66020D01*
X732090Y72370D01*
X725740Y53320D02*
X719390Y46970D01*
X706690Y46970D01*
X700340Y53320D01*
X700340Y66020D01*
X706690Y72370D01*
X719390Y72370D01*
X725740Y66020D01*
X751140Y66020D02*
X751140Y53320D01*
X744790Y46970D01*
X751140Y66020D02*
X744790Y72370D01*
X732090Y72370D01*
X668590Y46970D02*
X655890Y46970D01*
X649540Y53320D01*
X649540Y66020D01*
X655890Y72370D01*
X674940Y53320D02*
X668590Y46970D01*
X674940Y66020D02*
X668590Y72370D01*
X655890Y72370D01*
D62*
X649362Y79317D02*
X647455Y81224D01*
X649362Y79317D02*
X651268Y79317D01*
X653175Y81224D01*
X653175Y90757D01*
X651268Y90757D02*
X655082Y90757D01*
X659149Y90757D02*
X659149Y79317D01*
X659149Y90757D02*
X664869Y90757D01*
X666776Y88850D01*
X666776Y85037D01*
X664869Y83130D01*
X659149Y83130D01*
X670843Y86944D02*
X674656Y90757D01*
X674656Y79317D01*
X670843Y79317D02*
X678469Y79317D01*
D60*
X297378Y592078D02*
X297378Y603772D01*
X303225Y603772D01*
X305174Y601823D01*
X305174Y599874D01*
X303225Y597925D01*
X305174Y595976D01*
X305174Y594027D01*
X303225Y592078D01*
X297378Y592078D01*
X297378Y597925D02*
X303225Y597925D01*
X309072Y599874D02*
X309072Y592078D01*
X309072Y599874D02*
X312970Y603772D01*
X316868Y599874D01*
X316868Y592078D01*
X316868Y597925D02*
X309072Y597925D01*
X324664Y592078D02*
X324664Y603772D01*
X320766Y603772D02*
X328562Y603772D01*
X336358Y603772D02*
X336358Y592078D01*
X332460Y603772D02*
X340256Y603772D01*
X344154Y597925D02*
X351950Y597925D01*
X86698Y672738D02*
X86698Y684432D01*
X92545Y684432D01*
X94494Y682483D01*
X94494Y680534D01*
X92545Y678585D01*
X94494Y676636D01*
X94494Y674687D01*
X92545Y672738D01*
X86698Y672738D01*
X86698Y678585D02*
X92545Y678585D01*
X98392Y680534D02*
X98392Y672738D01*
X98392Y680534D02*
X102290Y684432D01*
X106188Y680534D01*
X106188Y672738D01*
X106188Y678585D02*
X98392Y678585D01*
X113984Y672738D02*
X113984Y684432D01*
X110086Y684432D02*
X117882Y684432D01*
X125678Y684432D02*
X125678Y672738D01*
X121780Y684432D02*
X129576Y684432D01*
X133474Y678585D02*
X141270Y678585D01*
X137372Y682483D02*
X137372Y674687D01*
X188148Y664572D02*
X188148Y652878D01*
X188148Y664572D02*
X193995Y664572D01*
X195944Y662623D01*
X195944Y658725D01*
X193995Y656776D01*
X188148Y656776D01*
X192046Y656776D02*
X195944Y652878D01*
X199842Y664572D02*
X207638Y664572D01*
X207638Y662623D01*
X199842Y654827D01*
X199842Y652878D01*
X237468Y653538D02*
X237468Y665232D01*
X243315Y665232D01*
X245264Y663283D01*
X245264Y659385D01*
X243315Y657436D01*
X237468Y657436D01*
X241366Y657436D02*
X245264Y653538D01*
X249162Y663283D02*
X251111Y665232D01*
X255009Y665232D01*
X256958Y663283D01*
X256958Y661334D01*
X255009Y659385D01*
X256958Y657436D01*
X256958Y655487D01*
X255009Y653538D01*
X251111Y653538D01*
X249162Y655487D01*
X249162Y657436D01*
X251111Y659385D01*
X249162Y661334D01*
X249162Y663283D01*
X251111Y659385D02*
X255009Y659385D01*
X1087038Y475802D02*
X1098732Y475802D01*
X1092885Y475802D02*
X1092885Y483598D01*
X1087038Y483598D02*
X1098732Y483598D01*
X1098732Y487496D02*
X1087038Y487496D01*
X1098732Y487496D02*
X1098732Y495292D01*
X1098732Y499190D02*
X1087038Y499190D01*
X1094834Y499190D02*
X1087038Y506986D01*
X1092885Y501139D02*
X1098732Y506986D01*
X1090936Y510884D02*
X1087038Y514782D01*
X1098732Y514782D01*
X1098732Y510884D02*
X1098732Y518680D01*
X589747Y338304D02*
X587798Y336355D01*
X587798Y332457D01*
X589747Y330508D01*
X597543Y330508D01*
X599492Y332457D01*
X599492Y336355D01*
X597543Y338304D01*
X591696Y342202D02*
X587798Y346100D01*
X599492Y346100D01*
X599492Y342202D02*
X599492Y349998D01*
X597543Y353896D02*
X589747Y353896D01*
X587798Y355845D01*
X587798Y359743D01*
X589747Y361692D01*
X597543Y361692D01*
X599492Y359743D01*
X599492Y355845D01*
X597543Y353896D01*
X589747Y361692D01*
X932840Y161170D02*
X933052Y160747D01*
X933274Y160329D01*
X933506Y159917D01*
X933748Y159511D01*
X934000Y159110D01*
X934262Y158716D01*
X934533Y158328D01*
X934813Y157947D01*
X935103Y157573D01*
X935402Y157206D01*
X935709Y156847D01*
X936025Y156495D01*
X936350Y156151D01*
X936683Y155814D01*
X937024Y155486D01*
X937373Y155167D01*
X937729Y154856D01*
X938093Y154553D01*
X938464Y154260D01*
X938842Y153976D01*
X939227Y153701D01*
X939619Y153436D01*
X940017Y153180D01*
X940421Y152934D01*
X940831Y152697D01*
X941246Y152471D01*
X941667Y152255D01*
X942093Y152049D01*
X942524Y151854D01*
X942960Y151669D01*
X943400Y151495D01*
X943844Y151332D01*
X944291Y151179D01*
X944743Y151038D01*
X945198Y150907D01*
X945655Y150787D01*
X946116Y150679D01*
X946579Y150582D01*
X947044Y150496D01*
X947511Y150422D01*
X947980Y150359D01*
X948451Y150307D01*
X948922Y150267D01*
X949394Y150238D01*
X949867Y150221D01*
X950340Y150215D01*
X950813Y150221D01*
X951286Y150238D01*
X951758Y150267D01*
X952229Y150307D01*
X952700Y150359D01*
X953169Y150422D01*
X953636Y150496D01*
X954101Y150582D01*
X954564Y150679D01*
X955025Y150787D01*
X955482Y150907D01*
X955937Y151038D01*
X956389Y151179D01*
X956836Y151332D01*
X957280Y151495D01*
X957720Y151669D01*
X958156Y151854D01*
X958587Y152049D01*
X959013Y152255D01*
X959434Y152471D01*
X959849Y152697D01*
X960259Y152934D01*
X960663Y153180D01*
X961061Y153436D01*
X961453Y153701D01*
X961838Y153976D01*
X962216Y154260D01*
X962587Y154553D01*
X962951Y154856D01*
X963307Y155167D01*
X963656Y155486D01*
X963997Y155814D01*
X964330Y156151D01*
X964655Y156495D01*
X964971Y156847D01*
X965278Y157206D01*
X965577Y157573D01*
X965867Y157947D01*
X966147Y158328D01*
X966418Y158716D01*
X966680Y159110D01*
X966932Y159511D01*
X967174Y159917D01*
X967406Y160329D01*
X967628Y160747D01*
X967840Y161170D01*
X967840Y178170D02*
X967628Y178593D01*
X967406Y179011D01*
X967174Y179423D01*
X966932Y179829D01*
X966680Y180230D01*
X966418Y180624D01*
X966147Y181012D01*
X965867Y181393D01*
X965577Y181767D01*
X965278Y182134D01*
X964971Y182493D01*
X964655Y182845D01*
X964330Y183189D01*
X963997Y183526D01*
X963656Y183854D01*
X963307Y184173D01*
X962951Y184484D01*
X962587Y184787D01*
X962216Y185080D01*
X961838Y185364D01*
X961453Y185639D01*
X961061Y185904D01*
X960663Y186160D01*
X960259Y186406D01*
X959849Y186643D01*
X959434Y186869D01*
X959013Y187085D01*
X958587Y187291D01*
X958156Y187486D01*
X957720Y187671D01*
X957280Y187845D01*
X956836Y188008D01*
X956389Y188161D01*
X955937Y188302D01*
X955482Y188433D01*
X955025Y188553D01*
X954564Y188661D01*
X954101Y188758D01*
X953636Y188844D01*
X953169Y188918D01*
X952700Y188981D01*
X952229Y189033D01*
X951758Y189073D01*
X951286Y189102D01*
X950813Y189119D01*
X950340Y189125D01*
X949867Y189119D01*
X949394Y189102D01*
X948922Y189073D01*
X948451Y189033D01*
X947980Y188981D01*
X947511Y188918D01*
X947044Y188844D01*
X946579Y188758D01*
X946116Y188661D01*
X945655Y188553D01*
X945198Y188433D01*
X944743Y188302D01*
X944291Y188161D01*
X943844Y188008D01*
X943400Y187845D01*
X942960Y187671D01*
X942524Y187486D01*
X942093Y187291D01*
X941667Y187085D01*
X941246Y186869D01*
X940831Y186643D01*
X940421Y186406D01*
X940017Y186160D01*
X939619Y185904D01*
X939227Y185639D01*
X938842Y185364D01*
X938464Y185080D01*
X938093Y184787D01*
X937729Y184484D01*
X937373Y184173D01*
X937024Y183854D01*
X936683Y183526D01*
X936350Y183189D01*
X936025Y182845D01*
X935709Y182493D01*
X935402Y182134D01*
X935103Y181767D01*
X934813Y181393D01*
X934533Y181012D01*
X934262Y180624D01*
X934000Y180230D01*
X933748Y179829D01*
X933506Y179423D01*
X933274Y179011D01*
X933052Y178593D01*
X932840Y178170D01*
X971340Y161170D02*
X971340Y148670D01*
X940340Y148670D01*
X929340Y159670D01*
X929340Y179670D02*
X940340Y190670D01*
X971340Y190670D01*
X971340Y178170D01*
D61*
X948858Y146297D02*
X950426Y144729D01*
X948858Y146297D02*
X945723Y146297D01*
X944155Y144729D01*
X944155Y138459D01*
X945723Y136891D01*
X948858Y136891D01*
X950426Y138459D01*
X953511Y143162D02*
X956646Y146297D01*
X956646Y136891D01*
X953511Y136891D02*
X959781Y136891D01*
X962866Y144729D02*
X964433Y146297D01*
X967569Y146297D01*
X969137Y144729D01*
X969137Y143162D01*
X967569Y141594D01*
X966001Y141594D01*
X967569Y141594D02*
X969137Y140026D01*
X969137Y138459D01*
X967569Y136891D01*
X964433Y136891D01*
X962866Y138459D01*
D60*
X481552Y226900D02*
X469858Y226900D01*
X469858Y232747D01*
X471807Y234696D01*
X475705Y234696D01*
X477654Y232747D01*
X477654Y226900D01*
X477654Y230798D02*
X481552Y234696D01*
X481552Y238594D02*
X481552Y246390D01*
X481552Y238594D02*
X473756Y246390D01*
X471807Y246390D01*
X469858Y244441D01*
X469858Y240543D01*
X471807Y238594D01*
D10*
X375240Y244870D02*
X375240Y219770D01*
X385240Y257570D02*
X416040Y257570D01*
X426040Y244570D02*
X426040Y219770D01*
X416040Y206770D02*
X385240Y206770D01*
X387940Y232170D02*
X387944Y232482D01*
X387955Y232793D01*
X387974Y233104D01*
X388001Y233415D01*
X388036Y233725D01*
X388077Y234033D01*
X388127Y234341D01*
X388184Y234648D01*
X388249Y234953D01*
X388321Y235256D01*
X388400Y235557D01*
X388487Y235857D01*
X388581Y236154D01*
X388682Y236449D01*
X388791Y236741D01*
X388907Y237030D01*
X389030Y237317D01*
X389159Y237600D01*
X389296Y237880D01*
X389440Y238157D01*
X389590Y238430D01*
X389747Y238699D01*
X389910Y238964D01*
X390080Y239226D01*
X390257Y239483D01*
X390439Y239735D01*
X390628Y239983D01*
X390823Y240227D01*
X391023Y240465D01*
X391230Y240699D01*
X391442Y240927D01*
X391660Y241150D01*
X391883Y241368D01*
X392111Y241580D01*
X392345Y241787D01*
X392583Y241987D01*
X392827Y242182D01*
X393075Y242371D01*
X393327Y242553D01*
X393584Y242730D01*
X393846Y242900D01*
X394111Y243063D01*
X394380Y243220D01*
X394653Y243370D01*
X394930Y243514D01*
X395210Y243651D01*
X395493Y243780D01*
X395780Y243903D01*
X396069Y244019D01*
X396361Y244128D01*
X396656Y244229D01*
X396953Y244323D01*
X397253Y244410D01*
X397554Y244489D01*
X397857Y244561D01*
X398162Y244626D01*
X398469Y244683D01*
X398777Y244733D01*
X399085Y244774D01*
X399395Y244809D01*
X399706Y244836D01*
X400017Y244855D01*
X400328Y244866D01*
X400640Y244870D01*
X400952Y244866D01*
X401263Y244855D01*
X401574Y244836D01*
X401885Y244809D01*
X402195Y244774D01*
X402503Y244733D01*
X402811Y244683D01*
X403118Y244626D01*
X403423Y244561D01*
X403726Y244489D01*
X404027Y244410D01*
X404327Y244323D01*
X404624Y244229D01*
X404919Y244128D01*
X405211Y244019D01*
X405500Y243903D01*
X405787Y243780D01*
X406070Y243651D01*
X406350Y243514D01*
X406627Y243370D01*
X406900Y243220D01*
X407169Y243063D01*
X407434Y242900D01*
X407696Y242730D01*
X407953Y242553D01*
X408205Y242371D01*
X408453Y242182D01*
X408697Y241987D01*
X408935Y241787D01*
X409169Y241580D01*
X409397Y241368D01*
X409620Y241150D01*
X409838Y240927D01*
X410050Y240699D01*
X410257Y240465D01*
X410457Y240227D01*
X410652Y239983D01*
X410841Y239735D01*
X411023Y239483D01*
X411200Y239226D01*
X411370Y238964D01*
X411533Y238699D01*
X411690Y238430D01*
X411840Y238157D01*
X411984Y237880D01*
X412121Y237600D01*
X412250Y237317D01*
X412373Y237030D01*
X412489Y236741D01*
X412598Y236449D01*
X412699Y236154D01*
X412793Y235857D01*
X412880Y235557D01*
X412959Y235256D01*
X413031Y234953D01*
X413096Y234648D01*
X413153Y234341D01*
X413203Y234033D01*
X413244Y233725D01*
X413279Y233415D01*
X413306Y233104D01*
X413325Y232793D01*
X413336Y232482D01*
X413340Y232170D01*
X413336Y231858D01*
X413325Y231547D01*
X413306Y231236D01*
X413279Y230925D01*
X413244Y230615D01*
X413203Y230307D01*
X413153Y229999D01*
X413096Y229692D01*
X413031Y229387D01*
X412959Y229084D01*
X412880Y228783D01*
X412793Y228483D01*
X412699Y228186D01*
X412598Y227891D01*
X412489Y227599D01*
X412373Y227310D01*
X412250Y227023D01*
X412121Y226740D01*
X411984Y226460D01*
X411840Y226183D01*
X411690Y225910D01*
X411533Y225641D01*
X411370Y225376D01*
X411200Y225114D01*
X411023Y224857D01*
X410841Y224605D01*
X410652Y224357D01*
X410457Y224113D01*
X410257Y223875D01*
X410050Y223641D01*
X409838Y223413D01*
X409620Y223190D01*
X409397Y222972D01*
X409169Y222760D01*
X408935Y222553D01*
X408697Y222353D01*
X408453Y222158D01*
X408205Y221969D01*
X407953Y221787D01*
X407696Y221610D01*
X407434Y221440D01*
X407169Y221277D01*
X406900Y221120D01*
X406627Y220970D01*
X406350Y220826D01*
X406070Y220689D01*
X405787Y220560D01*
X405500Y220437D01*
X405211Y220321D01*
X404919Y220212D01*
X404624Y220111D01*
X404327Y220017D01*
X404027Y219930D01*
X403726Y219851D01*
X403423Y219779D01*
X403118Y219714D01*
X402811Y219657D01*
X402503Y219607D01*
X402195Y219566D01*
X401885Y219531D01*
X401574Y219504D01*
X401263Y219485D01*
X400952Y219474D01*
X400640Y219470D01*
X400328Y219474D01*
X400017Y219485D01*
X399706Y219504D01*
X399395Y219531D01*
X399085Y219566D01*
X398777Y219607D01*
X398469Y219657D01*
X398162Y219714D01*
X397857Y219779D01*
X397554Y219851D01*
X397253Y219930D01*
X396953Y220017D01*
X396656Y220111D01*
X396361Y220212D01*
X396069Y220321D01*
X395780Y220437D01*
X395493Y220560D01*
X395210Y220689D01*
X394930Y220826D01*
X394653Y220970D01*
X394380Y221120D01*
X394111Y221277D01*
X393846Y221440D01*
X393584Y221610D01*
X393327Y221787D01*
X393075Y221969D01*
X392827Y222158D01*
X392583Y222353D01*
X392345Y222553D01*
X392111Y222760D01*
X391883Y222972D01*
X391660Y223190D01*
X391442Y223413D01*
X391230Y223641D01*
X391023Y223875D01*
X390823Y224113D01*
X390628Y224357D01*
X390439Y224605D01*
X390257Y224857D01*
X390080Y225114D01*
X389910Y225376D01*
X389747Y225641D01*
X389590Y225910D01*
X389440Y226183D01*
X389296Y226460D01*
X389159Y226740D01*
X389030Y227023D01*
X388907Y227310D01*
X388791Y227599D01*
X388682Y227891D01*
X388581Y228186D01*
X388487Y228483D01*
X388400Y228783D01*
X388321Y229084D01*
X388249Y229387D01*
X388184Y229692D01*
X388127Y229999D01*
X388077Y230307D01*
X388036Y230615D01*
X388001Y230925D01*
X387974Y231236D01*
X387955Y231547D01*
X387944Y231858D01*
X387940Y232170D01*
D73*
X394419Y253255D02*
X393784Y253890D01*
X392513Y253890D01*
X391877Y253255D01*
X391877Y252619D01*
X392513Y251984D01*
X393784Y251984D01*
X394419Y251348D01*
X394419Y250713D01*
X393784Y250077D01*
X392513Y250077D01*
X391877Y250713D01*
X395619Y250077D02*
X398161Y250077D01*
X395619Y250077D02*
X398161Y252619D01*
X398161Y253255D01*
X397526Y253890D01*
X396255Y253890D01*
X395619Y253255D01*
D60*
X412844Y389623D02*
X410895Y391572D01*
X406997Y391572D01*
X405048Y389623D01*
X405048Y381827D01*
X406997Y379878D01*
X410895Y379878D01*
X412844Y381827D01*
X416742Y387674D02*
X420640Y391572D01*
X420640Y379878D01*
X416742Y379878D02*
X424538Y379878D01*
D10*
X351140Y411920D02*
X344790Y418270D01*
X351140Y411920D02*
X351140Y399220D01*
X344790Y392870D01*
X332090Y392870D02*
X325740Y399220D01*
X325740Y411920D01*
X332090Y418270D01*
X351140Y450020D02*
X351140Y462720D01*
X351140Y450020D02*
X344790Y443670D01*
X332090Y443670D02*
X325740Y450020D01*
X344790Y443670D02*
X351140Y437320D01*
X351140Y424620D01*
X344790Y418270D01*
X332090Y418270D02*
X325740Y424620D01*
X325740Y437320D01*
X332090Y443670D01*
X351140Y488120D02*
X344790Y494470D01*
X351140Y488120D02*
X351140Y475420D01*
X344790Y469070D01*
X332090Y469070D02*
X325740Y475420D01*
X325740Y488120D01*
X332090Y494470D01*
X344790Y469070D02*
X351140Y462720D01*
X332090Y469070D02*
X325740Y462720D01*
X325740Y450020D01*
X351140Y526220D02*
X351140Y538920D01*
X351140Y526220D02*
X344790Y519870D01*
X332090Y519870D02*
X325740Y526220D01*
X344790Y519870D02*
X351140Y513520D01*
X351140Y500820D01*
X344790Y494470D01*
X332090Y494470D02*
X325740Y500820D01*
X325740Y513520D01*
X332090Y519870D01*
X332090Y545270D02*
X344790Y545270D01*
X351140Y538920D01*
X332090Y545270D02*
X325740Y538920D01*
X325740Y526220D01*
X332090Y392870D02*
X344790Y392870D01*
D62*
X366886Y523279D02*
X368793Y525186D01*
X368793Y527092D01*
X366886Y528999D01*
X357353Y528999D01*
X357353Y527092D02*
X357353Y530906D01*
X357353Y540693D02*
X368793Y540693D01*
X363073Y534973D02*
X357353Y540693D01*
X363073Y542600D02*
X363073Y534973D01*
D10*
X808340Y386520D02*
X808340Y373820D01*
X808340Y386520D02*
X814690Y392870D01*
X827390Y392870D02*
X833740Y386520D01*
X808340Y348420D02*
X814690Y342070D01*
X808340Y348420D02*
X808340Y361120D01*
X814690Y367470D01*
X827390Y367470D02*
X833740Y361120D01*
X833740Y348420D01*
X827390Y342070D01*
X814690Y367470D02*
X808340Y373820D01*
X827390Y367470D02*
X833740Y373820D01*
X833740Y386520D01*
X808340Y310320D02*
X808340Y297620D01*
X808340Y310320D02*
X814690Y316670D01*
X827390Y316670D02*
X833740Y310320D01*
X814690Y316670D02*
X808340Y323020D01*
X808340Y335720D01*
X814690Y342070D01*
X827390Y342070D02*
X833740Y335720D01*
X833740Y323020D01*
X827390Y316670D01*
X808340Y272220D02*
X814690Y265870D01*
X808340Y272220D02*
X808340Y284920D01*
X814690Y291270D01*
X827390Y291270D02*
X833740Y284920D01*
X833740Y272220D01*
X827390Y265870D01*
X814690Y291270D02*
X808340Y297620D01*
X827390Y291270D02*
X833740Y297620D01*
X833740Y310320D01*
X808340Y234120D02*
X808340Y221420D01*
X808340Y234120D02*
X814690Y240470D01*
X827390Y240470D02*
X833740Y234120D01*
X814690Y240470D02*
X808340Y246820D01*
X808340Y259520D01*
X814690Y265870D01*
X827390Y265870D02*
X833740Y259520D01*
X833740Y246820D01*
X827390Y240470D01*
X827390Y215070D02*
X814690Y215070D01*
X808340Y221420D01*
X827390Y215070D02*
X833740Y221420D01*
X833740Y234120D01*
X808340Y399220D02*
X808340Y411920D01*
X814690Y418270D01*
X827390Y418270D01*
X833740Y411920D01*
X814690Y392870D02*
X808340Y399220D01*
X827390Y392870D02*
X833740Y399220D01*
X833740Y411920D01*
D62*
X802117Y216850D02*
X800210Y214943D01*
X802117Y216850D02*
X802117Y218756D01*
X800210Y220663D01*
X790677Y220663D01*
X790677Y218756D02*
X790677Y222570D01*
X794491Y226637D02*
X790677Y230450D01*
X802117Y230450D01*
X802117Y226637D02*
X802117Y234263D01*
D10*
X808340Y589720D02*
X808340Y602420D01*
X814690Y608770D01*
X827390Y608770D02*
X833740Y602420D01*
X808340Y564320D02*
X814690Y557970D01*
X808340Y564320D02*
X808340Y577020D01*
X814690Y583370D01*
X827390Y583370D02*
X833740Y577020D01*
X833740Y564320D01*
X827390Y557970D01*
X814690Y583370D02*
X808340Y589720D01*
X827390Y583370D02*
X833740Y589720D01*
X833740Y602420D01*
X808340Y526220D02*
X808340Y513520D01*
X808340Y526220D02*
X814690Y532570D01*
X827390Y532570D02*
X833740Y526220D01*
X814690Y532570D02*
X808340Y538920D01*
X808340Y551620D01*
X814690Y557970D01*
X827390Y557970D02*
X833740Y551620D01*
X833740Y538920D01*
X827390Y532570D01*
X808340Y488120D02*
X814690Y481770D01*
X808340Y488120D02*
X808340Y500820D01*
X814690Y507170D01*
X827390Y507170D02*
X833740Y500820D01*
X833740Y488120D01*
X827390Y481770D01*
X814690Y507170D02*
X808340Y513520D01*
X827390Y507170D02*
X833740Y513520D01*
X833740Y526220D01*
X808340Y450020D02*
X808340Y437320D01*
X808340Y450020D02*
X814690Y456370D01*
X827390Y456370D02*
X833740Y450020D01*
X814690Y456370D02*
X808340Y462720D01*
X808340Y475420D01*
X814690Y481770D01*
X827390Y481770D02*
X833740Y475420D01*
X833740Y462720D01*
X827390Y456370D01*
X827390Y430970D02*
X814690Y430970D01*
X808340Y437320D01*
X827390Y430970D02*
X833740Y437320D01*
X833740Y450020D01*
X808340Y615120D02*
X808340Y627820D01*
X814690Y634170D01*
X827390Y634170D01*
X833740Y627820D01*
X814690Y608770D02*
X808340Y615120D01*
X827390Y608770D02*
X833740Y615120D01*
X833740Y627820D01*
D62*
X802117Y432750D02*
X800210Y430843D01*
X802117Y432750D02*
X802117Y434656D01*
X800210Y436563D01*
X790677Y436563D01*
X790677Y434656D02*
X790677Y438470D01*
X792584Y442537D02*
X790677Y444444D01*
X790677Y448257D01*
X792584Y450163D01*
X794491Y450163D01*
X796397Y448257D01*
X796397Y446350D01*
X796397Y448257D02*
X798304Y450163D01*
X800210Y450163D01*
X802117Y448257D01*
X802117Y444444D01*
X800210Y442537D01*
D10*
X351140Y234120D02*
X344790Y240470D01*
X351140Y234120D02*
X351140Y221420D01*
X344790Y215070D01*
X332090Y215070D02*
X325740Y221420D01*
X325740Y234120D01*
X332090Y240470D01*
X351140Y272220D02*
X351140Y284920D01*
X351140Y272220D02*
X344790Y265870D01*
X332090Y265870D02*
X325740Y272220D01*
X344790Y265870D02*
X351140Y259520D01*
X351140Y246820D01*
X344790Y240470D01*
X332090Y240470D02*
X325740Y246820D01*
X325740Y259520D01*
X332090Y265870D01*
X351140Y310320D02*
X344790Y316670D01*
X351140Y310320D02*
X351140Y297620D01*
X344790Y291270D01*
X332090Y291270D02*
X325740Y297620D01*
X325740Y310320D01*
X332090Y316670D01*
X344790Y291270D02*
X351140Y284920D01*
X332090Y291270D02*
X325740Y284920D01*
X325740Y272220D01*
X351140Y348420D02*
X351140Y361120D01*
X351140Y348420D02*
X344790Y342070D01*
X332090Y342070D02*
X325740Y348420D01*
X344790Y342070D02*
X351140Y335720D01*
X351140Y323020D01*
X344790Y316670D01*
X332090Y316670D02*
X325740Y323020D01*
X325740Y335720D01*
X332090Y342070D01*
X332090Y367470D02*
X344790Y367470D01*
X351140Y361120D01*
X332090Y367470D02*
X325740Y361120D01*
X325740Y348420D01*
X332090Y215070D02*
X344790Y215070D01*
D62*
X366886Y345479D02*
X368793Y347386D01*
X368793Y349292D01*
X366886Y351199D01*
X357353Y351199D01*
X357353Y349292D02*
X357353Y353106D01*
X368793Y357173D02*
X368793Y364800D01*
X361167Y364800D02*
X368793Y357173D01*
X361167Y364800D02*
X359260Y364800D01*
X357353Y362893D01*
X357353Y359080D01*
X359260Y357173D01*
D60*
X410895Y371572D02*
X412844Y369623D01*
X410895Y371572D02*
X406997Y371572D01*
X405048Y369623D01*
X405048Y361827D01*
X406997Y359878D01*
X410895Y359878D01*
X412844Y361827D01*
X422589Y359878D02*
X422589Y371572D01*
X416742Y365725D01*
X424538Y365725D01*
X653818Y393538D02*
X653818Y405232D01*
X659665Y405232D01*
X661614Y403283D01*
X661614Y399385D01*
X659665Y397436D01*
X653818Y397436D01*
X657716Y397436D02*
X661614Y393538D01*
X665512Y401334D02*
X669410Y405232D01*
X669410Y393538D01*
X665512Y393538D02*
X673308Y393538D01*
D61*
X640656Y373622D02*
X640656Y367351D01*
X637521Y370486D02*
X643791Y370486D01*
D74*
X618840Y373670D03*
X618840Y385670D03*
D75*
X618840Y379670D03*
D60*
X607468Y393538D02*
X607468Y405232D01*
X607468Y393538D02*
X613315Y393538D01*
X615264Y395487D01*
X615264Y403283D01*
X613315Y405232D01*
X607468Y405232D01*
X619162Y403283D02*
X621111Y405232D01*
X625009Y405232D01*
X626958Y403283D01*
X626958Y401334D01*
X625009Y399385D01*
X623060Y399385D01*
X625009Y399385D02*
X626958Y397436D01*
X626958Y395487D01*
X625009Y393538D01*
X621111Y393538D01*
X619162Y395487D01*
X753918Y281732D02*
X753918Y270038D01*
X753918Y281732D02*
X759765Y281732D01*
X761714Y279783D01*
X761714Y275885D01*
X759765Y273936D01*
X753918Y273936D01*
X757816Y273936D02*
X761714Y270038D01*
X765612Y279783D02*
X767561Y281732D01*
X771459Y281732D01*
X773408Y279783D01*
X773408Y277834D01*
X771459Y275885D01*
X769510Y275885D01*
X771459Y275885D02*
X773408Y273936D01*
X773408Y271987D01*
X771459Y270038D01*
X767561Y270038D01*
X765612Y271987D01*
X753710Y214572D02*
X753710Y202878D01*
X753710Y214572D02*
X759557Y214572D01*
X761506Y212623D01*
X761506Y208725D01*
X759557Y206776D01*
X753710Y206776D01*
X757608Y206776D02*
X761506Y202878D01*
X765404Y204827D02*
X767353Y202878D01*
X771251Y202878D01*
X773200Y204827D01*
X773200Y212623D01*
X771251Y214572D01*
X767353Y214572D01*
X765404Y212623D01*
X765404Y210674D01*
X767353Y208725D01*
X773200Y208725D01*
D10*
X588340Y363170D02*
X588340Y376170D01*
X552340Y376170D02*
X552340Y363170D01*
D73*
X561577Y383133D02*
X561577Y385675D01*
X562213Y386310D01*
X563484Y386310D01*
X564119Y385675D01*
X564119Y383133D01*
X563484Y382497D01*
X562213Y382497D01*
X561577Y383133D01*
X562848Y383768D02*
X564119Y382497D01*
X565319Y385039D02*
X566590Y386310D01*
X566590Y382497D01*
X565319Y382497D02*
X567861Y382497D01*
D60*
X652447Y244916D02*
X650498Y242967D01*
X650498Y239069D01*
X652447Y237120D01*
X660243Y237120D01*
X662192Y239069D01*
X662192Y242967D01*
X660243Y244916D01*
X650498Y248814D02*
X650498Y256610D01*
X650498Y248814D02*
X656345Y248814D01*
X654396Y252712D01*
X654396Y254661D01*
X656345Y256610D01*
X660243Y256610D01*
X662192Y254661D01*
X662192Y250763D01*
X660243Y248814D01*
D10*
X640340Y227670D02*
X640340Y211670D01*
X623340Y229670D02*
X623242Y229688D01*
X623143Y229702D01*
X623043Y229712D01*
X622943Y229718D01*
X622843Y229720D01*
X622743Y229718D01*
X622643Y229712D01*
X622543Y229703D01*
X622444Y229689D01*
X622345Y229672D01*
X622248Y229650D01*
X622151Y229625D01*
X622055Y229596D01*
X621960Y229564D01*
X621867Y229527D01*
X621775Y229487D01*
X621685Y229444D01*
X621596Y229397D01*
X621510Y229346D01*
X621426Y229292D01*
X621343Y229235D01*
X621264Y229175D01*
X621186Y229111D01*
X621111Y229045D01*
X621039Y228975D01*
X620969Y228903D01*
X620903Y228828D01*
X620839Y228751D01*
X620779Y228671D01*
X620721Y228589D01*
X620667Y228505D01*
X620617Y228418D01*
X620569Y228330D01*
X620526Y228240D01*
X620485Y228148D01*
X620449Y228055D01*
X620416Y227961D01*
X620387Y227865D01*
X620362Y227768D01*
X620340Y227670D01*
X620339Y211670D02*
X620361Y211572D01*
X620386Y211475D01*
X620415Y211379D01*
X620448Y211285D01*
X620485Y211192D01*
X620525Y211100D01*
X620569Y211010D01*
X620616Y210922D01*
X620667Y210835D01*
X620721Y210751D01*
X620778Y210669D01*
X620839Y210589D01*
X620902Y210512D01*
X620969Y210437D01*
X621038Y210365D01*
X621111Y210296D01*
X621185Y210229D01*
X621263Y210166D01*
X621343Y210105D01*
X621425Y210048D01*
X621509Y209994D01*
X621596Y209944D01*
X621684Y209897D01*
X621774Y209853D01*
X621866Y209813D01*
X621959Y209777D01*
X622054Y209744D01*
X622150Y209715D01*
X622247Y209690D01*
X622345Y209668D01*
X622443Y209651D01*
X622543Y209637D01*
X622642Y209628D01*
X622742Y209622D01*
X622842Y209620D01*
X622942Y209622D01*
X623042Y209628D01*
X623142Y209638D01*
X623241Y209652D01*
X623340Y209670D01*
X637340Y209670D02*
X637439Y209652D01*
X637538Y209638D01*
X637638Y209628D01*
X637738Y209622D01*
X637838Y209620D01*
X637938Y209622D01*
X638038Y209628D01*
X638137Y209637D01*
X638237Y209651D01*
X638335Y209668D01*
X638433Y209690D01*
X638530Y209715D01*
X638626Y209744D01*
X638721Y209777D01*
X638814Y209813D01*
X638906Y209853D01*
X638996Y209897D01*
X639084Y209944D01*
X639171Y209994D01*
X639255Y210048D01*
X639337Y210105D01*
X639417Y210166D01*
X639495Y210229D01*
X639569Y210296D01*
X639642Y210365D01*
X639711Y210437D01*
X639778Y210512D01*
X639841Y210589D01*
X639902Y210669D01*
X639959Y210751D01*
X640013Y210835D01*
X640064Y210922D01*
X640111Y211010D01*
X640155Y211100D01*
X640195Y211192D01*
X640232Y211285D01*
X640265Y211379D01*
X640294Y211475D01*
X640319Y211572D01*
X640341Y211670D01*
X640341Y227670D02*
X640319Y227768D01*
X640294Y227865D01*
X640265Y227961D01*
X640232Y228055D01*
X640195Y228148D01*
X640155Y228240D01*
X640111Y228330D01*
X640064Y228418D01*
X640013Y228505D01*
X639959Y228589D01*
X639902Y228671D01*
X639841Y228751D01*
X639778Y228828D01*
X639711Y228903D01*
X639642Y228975D01*
X639569Y229044D01*
X639495Y229111D01*
X639417Y229174D01*
X639337Y229235D01*
X639255Y229292D01*
X639171Y229346D01*
X639084Y229396D01*
X638996Y229443D01*
X638906Y229487D01*
X638814Y229527D01*
X638721Y229563D01*
X638626Y229596D01*
X638530Y229625D01*
X638433Y229650D01*
X638335Y229672D01*
X638237Y229689D01*
X638137Y229703D01*
X638038Y229712D01*
X637938Y229718D01*
X637838Y229720D01*
X637738Y229718D01*
X637638Y229712D01*
X637538Y229702D01*
X637439Y229688D01*
X637340Y229670D01*
X620340Y227670D02*
X620340Y211670D01*
D73*
X614335Y212814D02*
X613700Y212179D01*
X613700Y210908D01*
X614335Y210272D01*
X614971Y210272D01*
X615606Y210908D01*
X615606Y212179D01*
X616242Y212814D01*
X616877Y212814D01*
X617513Y212179D01*
X617513Y210908D01*
X616877Y210272D01*
X616877Y214014D02*
X617513Y214650D01*
X617513Y215285D01*
X616877Y215921D01*
X613700Y215921D01*
X613700Y216556D02*
X613700Y215285D01*
X614971Y217756D02*
X613700Y219027D01*
X617513Y219027D01*
X617513Y217756D02*
X617513Y220298D01*
D11*
X455790Y307020D02*
X455790Y377120D01*
X525890Y377120D01*
X525890Y310570D01*
X522340Y307020D02*
X455790Y307020D01*
X522340Y307020D02*
X525890Y310570D01*
X514680Y314638D02*
X514682Y314757D01*
X514688Y314877D01*
X514698Y314996D01*
X514712Y315114D01*
X514730Y315232D01*
X514751Y315350D01*
X514777Y315466D01*
X514806Y315582D01*
X514840Y315697D01*
X514877Y315810D01*
X514918Y315922D01*
X514962Y316033D01*
X515010Y316143D01*
X515062Y316250D01*
X515117Y316356D01*
X515176Y316460D01*
X515239Y316562D01*
X515304Y316661D01*
X515373Y316759D01*
X515445Y316854D01*
X515520Y316947D01*
X515599Y317037D01*
X515680Y317125D01*
X515764Y317209D01*
X515851Y317291D01*
X515940Y317370D01*
X516032Y317446D01*
X516127Y317519D01*
X516224Y317589D01*
X516323Y317655D01*
X516425Y317718D01*
X516528Y317778D01*
X516633Y317834D01*
X516740Y317887D01*
X516849Y317936D01*
X516960Y317982D01*
X517072Y318023D01*
X517185Y318061D01*
X517299Y318096D01*
X517415Y318126D01*
X517531Y318153D01*
X517648Y318175D01*
X517766Y318194D01*
X517885Y318209D01*
X518004Y318220D01*
X518123Y318227D01*
X518242Y318230D01*
X518362Y318229D01*
X518481Y318224D01*
X518600Y318215D01*
X518719Y318202D01*
X518837Y318185D01*
X518954Y318165D01*
X519071Y318140D01*
X519187Y318111D01*
X519302Y318079D01*
X519416Y318043D01*
X519529Y318003D01*
X519640Y317959D01*
X519749Y317912D01*
X519857Y317861D01*
X519964Y317807D01*
X520068Y317749D01*
X520170Y317687D01*
X520271Y317623D01*
X520369Y317554D01*
X520465Y317483D01*
X520558Y317409D01*
X520649Y317331D01*
X520737Y317251D01*
X520822Y317167D01*
X520905Y317081D01*
X520985Y316992D01*
X521062Y316901D01*
X521135Y316807D01*
X521206Y316710D01*
X521273Y316612D01*
X521337Y316511D01*
X521398Y316408D01*
X521455Y316303D01*
X521508Y316197D01*
X521558Y316088D01*
X521605Y315978D01*
X521647Y315867D01*
X521686Y315754D01*
X521722Y315640D01*
X521753Y315524D01*
X521780Y315408D01*
X521804Y315291D01*
X521824Y315173D01*
X521840Y315055D01*
X521852Y314936D01*
X521860Y314817D01*
X521864Y314698D01*
X521864Y314578D01*
X521860Y314459D01*
X521852Y314340D01*
X521840Y314221D01*
X521824Y314103D01*
X521804Y313985D01*
X521780Y313868D01*
X521753Y313752D01*
X521722Y313636D01*
X521686Y313522D01*
X521647Y313409D01*
X521605Y313298D01*
X521558Y313188D01*
X521508Y313079D01*
X521455Y312973D01*
X521398Y312868D01*
X521337Y312765D01*
X521273Y312664D01*
X521206Y312566D01*
X521135Y312469D01*
X521062Y312375D01*
X520985Y312284D01*
X520905Y312195D01*
X520822Y312109D01*
X520737Y312025D01*
X520649Y311945D01*
X520558Y311867D01*
X520465Y311793D01*
X520369Y311722D01*
X520271Y311653D01*
X520170Y311589D01*
X520068Y311527D01*
X519964Y311469D01*
X519857Y311415D01*
X519749Y311364D01*
X519640Y311317D01*
X519529Y311273D01*
X519416Y311233D01*
X519302Y311197D01*
X519187Y311165D01*
X519071Y311136D01*
X518954Y311111D01*
X518837Y311091D01*
X518719Y311074D01*
X518600Y311061D01*
X518481Y311052D01*
X518362Y311047D01*
X518242Y311046D01*
X518123Y311049D01*
X518004Y311056D01*
X517885Y311067D01*
X517766Y311082D01*
X517648Y311101D01*
X517531Y311123D01*
X517415Y311150D01*
X517299Y311180D01*
X517185Y311215D01*
X517072Y311253D01*
X516960Y311294D01*
X516849Y311340D01*
X516740Y311389D01*
X516633Y311442D01*
X516528Y311498D01*
X516425Y311558D01*
X516323Y311621D01*
X516224Y311687D01*
X516127Y311757D01*
X516032Y311830D01*
X515940Y311906D01*
X515851Y311985D01*
X515764Y312067D01*
X515680Y312151D01*
X515599Y312239D01*
X515520Y312329D01*
X515445Y312422D01*
X515373Y312517D01*
X515304Y312615D01*
X515239Y312714D01*
X515176Y312816D01*
X515117Y312920D01*
X515062Y313026D01*
X515010Y313133D01*
X514962Y313243D01*
X514918Y313354D01*
X514877Y313466D01*
X514840Y313579D01*
X514806Y313694D01*
X514777Y313810D01*
X514751Y313926D01*
X514730Y314044D01*
X514712Y314162D01*
X514698Y314280D01*
X514688Y314399D01*
X514682Y314519D01*
X514680Y314638D01*
D73*
X515233Y291146D02*
X515233Y287969D01*
X515868Y287333D01*
X517139Y287333D01*
X517775Y287969D01*
X517775Y291146D01*
X518975Y289875D02*
X520246Y291146D01*
X520246Y287333D01*
X518975Y287333D02*
X521517Y287333D01*
D11*
X493990Y66970D02*
X481290Y66970D01*
X474940Y73320D01*
X474940Y86020D01*
X481290Y92370D01*
X474940Y73320D02*
X468590Y66970D01*
X455890Y66970D01*
X449540Y73320D01*
X449540Y86020D01*
X455890Y92370D01*
X468590Y92370D01*
X474940Y86020D01*
X519390Y66970D02*
X525740Y73320D01*
X519390Y66970D02*
X506690Y66970D01*
X500340Y73320D01*
X500340Y86020D01*
X506690Y92370D01*
X519390Y92370D01*
X525740Y86020D01*
X500340Y73320D02*
X493990Y66970D01*
X500340Y86020D02*
X493990Y92370D01*
X481290Y92370D01*
X557490Y66970D02*
X570190Y66970D01*
X557490Y66970D02*
X551140Y73320D01*
X551140Y86020D01*
X557490Y92370D01*
X551140Y73320D02*
X544790Y66970D01*
X532090Y66970D01*
X525740Y73320D01*
X525740Y86020D01*
X532090Y92370D01*
X544790Y92370D01*
X551140Y86020D01*
X576540Y86020D02*
X576540Y73320D01*
X570190Y66970D01*
X576540Y86020D02*
X570190Y92370D01*
X557490Y92370D01*
X443190Y66970D02*
X430490Y66970D01*
X424140Y73320D01*
X424140Y86020D01*
X430490Y92370D01*
X449540Y73320D02*
X443190Y66970D01*
X449540Y86020D02*
X443190Y92370D01*
X430490Y92370D01*
D62*
X424762Y99317D02*
X422855Y101224D01*
X424762Y99317D02*
X426668Y99317D01*
X428575Y101224D01*
X428575Y110757D01*
X426668Y110757D02*
X430482Y110757D01*
X434549Y110757D02*
X434549Y99317D01*
X434549Y110757D02*
X440269Y110757D01*
X442176Y108850D01*
X442176Y105037D01*
X440269Y103130D01*
X434549Y103130D01*
X446243Y99317D02*
X453869Y99317D01*
X446243Y99317D02*
X453869Y106944D01*
X453869Y108850D01*
X451963Y110757D01*
X448150Y110757D01*
X446243Y108850D01*
D60*
X722858Y162106D02*
X734552Y162106D01*
X722858Y162106D02*
X722858Y167953D01*
X724807Y169902D01*
X728705Y169902D01*
X730654Y167953D01*
X730654Y162106D01*
X730654Y166004D02*
X734552Y169902D01*
X726756Y173800D02*
X722858Y177698D01*
X734552Y177698D01*
X734552Y173800D02*
X734552Y181596D01*
X732603Y185494D02*
X724807Y185494D01*
X722858Y187443D01*
X722858Y191341D01*
X724807Y193290D01*
X732603Y193290D01*
X734552Y191341D01*
X734552Y187443D01*
X732603Y185494D01*
X724807Y193290D01*
D10*
X383990Y482370D02*
X377640Y476020D01*
X377640Y463320D02*
X383990Y456970D01*
X377640Y450620D01*
X377640Y437920D02*
X383990Y431570D01*
X377640Y425220D01*
X377640Y412520D02*
X383990Y406170D01*
X383990Y482370D02*
X422090Y482370D01*
X428440Y476020D01*
X428440Y463320D01*
X422090Y456970D01*
X428440Y450620D01*
X428440Y437920D01*
X422090Y431570D01*
X428440Y425220D01*
X428440Y412520D01*
X422090Y406170D01*
X422090Y456970D02*
X383990Y456970D01*
X383990Y431570D02*
X422090Y431570D01*
X422090Y406170D02*
X383990Y406170D01*
X377640Y412520D02*
X377640Y425220D01*
X377640Y437920D02*
X377640Y450620D01*
X377640Y463320D02*
X377640Y476020D01*
X374290Y476020D02*
X374290Y463320D01*
D62*
X444948Y447923D02*
X446855Y449830D01*
X446855Y451736D01*
X444948Y453643D01*
X435415Y453643D01*
X435415Y451736D02*
X435415Y455550D01*
X435415Y459617D02*
X446855Y459617D01*
X435415Y459617D02*
X435415Y465337D01*
X437322Y467244D01*
X441135Y467244D01*
X443042Y465337D01*
X443042Y459617D01*
X437322Y471311D02*
X435415Y473218D01*
X435415Y477031D01*
X437322Y478937D01*
X439229Y478937D01*
X441135Y477031D01*
X441135Y475124D01*
X441135Y477031D02*
X443042Y478937D01*
X444948Y478937D01*
X446855Y477031D01*
X446855Y473218D01*
X444948Y471311D01*
M02*
