G04 EAGLE Gerber X2 export*
%TF.Part,Single*%
%TF.FileFunction,Legend,Bot,1*%
%TF.FilePolarity,Positive*%
%TF.GenerationSoftware,Autodesk,EAGLE,9.0.1*%
%TF.CreationDate,2018-07-03T17:36:12Z*%
G75*
%MOMM*%
%FSLAX34Y34*%
%LPD*%
%AMOC8*
5,1,8,0,0,1.08239X$1,22.5*%
G01*
%ADD10C,0.101600*%


D10*
X183384Y722078D02*
X183384Y729874D01*
X179486Y733772D01*
X175588Y729874D01*
X175588Y722078D01*
X175588Y727925D02*
X183384Y727925D01*
X165843Y733772D02*
X163894Y731823D01*
X165843Y733772D02*
X169741Y733772D01*
X171690Y731823D01*
X171690Y724027D01*
X169741Y722078D01*
X165843Y722078D01*
X163894Y724027D01*
X159996Y720129D02*
X152200Y720129D01*
X148302Y722078D02*
X148302Y733772D01*
X148302Y722078D02*
X140506Y722078D01*
X136608Y720129D02*
X128812Y720129D01*
X122965Y733772D02*
X119067Y733772D01*
X122965Y733772D02*
X124914Y731823D01*
X124914Y724027D01*
X122965Y722078D01*
X119067Y722078D01*
X117118Y724027D01*
X117118Y731823D01*
X119067Y733772D01*
X113220Y733772D02*
X113220Y724027D01*
X111271Y722078D01*
X107373Y722078D01*
X105424Y724027D01*
X105424Y733772D01*
X97628Y733772D02*
X97628Y722078D01*
X101526Y733772D02*
X93730Y733772D01*
X509832Y728374D02*
X509832Y720578D01*
X509832Y728374D02*
X505934Y732272D01*
X502036Y728374D01*
X502036Y720578D01*
X502036Y726425D02*
X509832Y726425D01*
X492291Y732272D02*
X490342Y730323D01*
X492291Y732272D02*
X496189Y732272D01*
X498138Y730323D01*
X498138Y722527D01*
X496189Y720578D01*
X492291Y720578D01*
X490342Y722527D01*
X486444Y718629D02*
X478648Y718629D01*
X466954Y730323D02*
X468903Y732272D01*
X472801Y732272D01*
X474750Y730323D01*
X474750Y728374D01*
X472801Y726425D01*
X468903Y726425D01*
X466954Y724476D01*
X466954Y722527D01*
X468903Y720578D01*
X472801Y720578D01*
X474750Y722527D01*
X461107Y732272D02*
X457209Y732272D01*
X461107Y732272D02*
X463056Y730323D01*
X463056Y722527D01*
X461107Y720578D01*
X457209Y720578D01*
X455260Y722527D01*
X455260Y730323D01*
X457209Y732272D01*
X451362Y732272D02*
X451362Y720578D01*
X443566Y720578D01*
X439668Y720578D02*
X439668Y728374D01*
X435770Y732272D01*
X431872Y728374D01*
X431872Y720578D01*
X431872Y726425D02*
X439668Y726425D01*
X427974Y720578D02*
X427974Y732272D01*
X422127Y732272D01*
X420178Y730323D01*
X420178Y726425D01*
X422127Y724476D01*
X427974Y724476D01*
X424076Y724476D02*
X420178Y720578D01*
X416280Y718629D02*
X408484Y718629D01*
X404586Y720578D02*
X404586Y732272D01*
X404586Y720578D02*
X396790Y720578D01*
X392892Y718629D02*
X385096Y718629D01*
X381198Y720578D02*
X377300Y720578D01*
X379249Y720578D02*
X379249Y732272D01*
X381198Y732272D02*
X377300Y732272D01*
X373402Y732272D02*
X373402Y720578D01*
X365606Y720578D02*
X373402Y732272D01*
X365606Y732272D02*
X365606Y720578D01*
X814058Y722078D02*
X814058Y729874D01*
X810160Y733772D01*
X806262Y729874D01*
X806262Y722078D01*
X806262Y727925D02*
X814058Y727925D01*
X796517Y733772D02*
X794568Y731823D01*
X796517Y733772D02*
X800415Y733772D01*
X802364Y731823D01*
X802364Y724027D01*
X800415Y722078D01*
X796517Y722078D01*
X794568Y724027D01*
X790670Y720129D02*
X782874Y720129D01*
X778976Y722078D02*
X778976Y733772D01*
X775078Y729874D01*
X771180Y733772D01*
X771180Y722078D01*
X767282Y722078D02*
X767282Y729874D01*
X763384Y733772D01*
X759486Y729874D01*
X759486Y722078D01*
X759486Y727925D02*
X767282Y727925D01*
X755588Y722078D02*
X751690Y722078D01*
X753639Y722078D02*
X753639Y733772D01*
X755588Y733772D02*
X751690Y733772D01*
X747792Y733772D02*
X747792Y722078D01*
X739996Y722078D02*
X747792Y733772D01*
X739996Y733772D02*
X739996Y722078D01*
X728302Y731823D02*
X730251Y733772D01*
X734149Y733772D01*
X736098Y731823D01*
X736098Y729874D01*
X734149Y727925D01*
X730251Y727925D01*
X728302Y725976D01*
X728302Y724027D01*
X730251Y722078D01*
X734149Y722078D01*
X736098Y724027D01*
X724404Y720129D02*
X716608Y720129D01*
X712710Y722078D02*
X712710Y733772D01*
X712710Y722078D02*
X704914Y722078D01*
X701016Y720129D02*
X693220Y720129D01*
X689322Y722078D02*
X685424Y722078D01*
X687373Y722078D02*
X687373Y733772D01*
X689322Y733772D02*
X685424Y733772D01*
X681526Y733772D02*
X681526Y722078D01*
X673730Y722078D02*
X681526Y733772D01*
X673730Y733772D02*
X673730Y722078D01*
M02*
