G04 EAGLE Gerber X2 export*
%TF.Part,Single*%
%TF.FileFunction,Soldermask,Bot,1*%
%TF.FilePolarity,Negative*%
%TF.GenerationSoftware,Autodesk,EAGLE,9.0.1*%
%TF.CreationDate,2018-07-03T17:36:12Z*%
G75*
%MOMM*%
%FSLAX34Y34*%
%LPD*%
%AMOC8*
5,1,8,0,0,1.08239X$1,22.5*%
G01*
%ADD10P,1.457113X8X112.500000*%
%ADD11C,1.803400*%
%ADD12C,1.477000*%
%ADD13R,10.127000X5.127000*%
%ADD14C,2.667000*%
%ADD15C,1.651000*%
%ADD16R,1.651000X1.651000*%
%ADD17C,2.006600*%
%ADD18R,2.006600X2.006600*%
%ADD19P,2.171924X8X292.500000*%
%ADD20C,4.143000*%
%ADD21C,0.731000*%


D10*
X353040Y136970D03*
X353040Y162370D03*
X327640Y162370D03*
D11*
X270340Y260470D03*
X270340Y158870D03*
D12*
X74240Y280870D03*
X194240Y160870D03*
X214240Y220870D03*
X74240Y160870D03*
X194240Y280870D03*
D13*
X130340Y769670D03*
D14*
X265740Y566510D02*
X265740Y541110D01*
X214940Y541110D02*
X214940Y566510D01*
X214940Y358230D02*
X214940Y332830D01*
X265740Y332830D02*
X265740Y358230D01*
X145740Y521110D02*
X145740Y546510D01*
X94940Y546510D02*
X94940Y521110D01*
X94940Y338230D02*
X94940Y312830D01*
X145740Y312830D02*
X145740Y338230D01*
D13*
X430340Y769670D03*
X730340Y769670D03*
D15*
X738440Y67290D02*
X738440Y52050D01*
X713040Y52050D02*
X713040Y67290D01*
X687640Y67290D02*
X687640Y52050D01*
X662240Y52050D02*
X662240Y67290D01*
D16*
X1035340Y516670D03*
X985340Y516670D03*
X1087340Y222670D03*
X933340Y222670D03*
D17*
X338440Y532570D03*
X338440Y507170D03*
X338440Y481770D03*
X338440Y456370D03*
X338440Y430970D03*
X338440Y405570D03*
D18*
X821040Y227770D03*
D17*
X821040Y253170D03*
X821040Y278570D03*
X821040Y303970D03*
X821040Y329370D03*
X821040Y354770D03*
X821040Y380170D03*
X821040Y405570D03*
D18*
X821040Y443670D03*
D17*
X821040Y469070D03*
X821040Y494470D03*
X821040Y519870D03*
X821040Y545270D03*
X821040Y570670D03*
X821040Y596070D03*
X821040Y621470D03*
X338440Y354770D03*
X338440Y329370D03*
X338440Y303970D03*
X338440Y278570D03*
X338440Y253170D03*
X338440Y227770D03*
D15*
X563840Y87290D02*
X563840Y72050D01*
X538440Y72050D02*
X538440Y87290D01*
X513040Y87290D02*
X513040Y72050D01*
X487640Y72050D02*
X487640Y87290D01*
X462240Y87290D02*
X462240Y72050D01*
X436840Y72050D02*
X436840Y87290D01*
D19*
X390340Y469670D03*
X415740Y469670D03*
X390340Y444270D03*
X415740Y444270D03*
X390340Y418870D03*
X415740Y418870D03*
D20*
X40340Y39670D03*
X1110340Y39670D03*
X1110340Y769670D03*
X40340Y769670D03*
D21*
X600340Y219670D03*
X660340Y219670D03*
X770340Y199670D03*
X50340Y709670D03*
X1000340Y739670D03*
X517300Y602050D03*
X950340Y89670D03*
X330228Y77384D03*
X805340Y749670D03*
X805340Y769670D03*
X805340Y789670D03*
X205340Y749670D03*
X205340Y769670D03*
X205340Y789670D03*
X355340Y749670D03*
X355340Y769670D03*
X355340Y789670D03*
X505340Y749670D03*
X505340Y769670D03*
X505340Y789670D03*
X655340Y749670D03*
X655340Y769670D03*
X655340Y789670D03*
X545740Y348570D03*
X364440Y235470D03*
X356340Y246870D03*
X160340Y709670D03*
X440340Y389670D03*
X470340Y339670D03*
X560340Y249670D03*
X495340Y267170D03*
X470340Y209670D03*
X690340Y379670D03*
X760340Y449670D03*
X455340Y409670D03*
X470349Y419661D03*
X470840Y409170D03*
X510340Y354670D03*
X850340Y419670D03*
X640340Y319670D03*
X540340Y209670D03*
X900340Y169670D03*
X400000Y399670D03*
X550340Y259670D03*
X515340Y259670D03*
X720340Y249670D03*
X800340Y380170D03*
X705340Y249670D03*
X790340Y359670D03*
X690340Y249670D03*
X803540Y286470D03*
M02*
